NamdhinggoSILLCSource-Regular.ufo
<glyph name="exclam" format="2">
  <advance width="545"/>
  <unicode hex="0021"/>
  <outline>
    <contour>
      <point x="373" y="1375" type="line"/>
      <point x="332" y="1400" type="line"/>
      <point x="287" y="1382"/>
      <point x="215" y="1346"/>
      <point x="164" y="1315" type="curve"/>
      <point x="216" y="357" type="line"/>
      <point x="243" y="337" type="line"/>
      <point x="274" y="346"/>
      <point x="297" y="357"/>
      <point x="320" y="374" type="curve"/>
    </contour>
    <contour>
      <point x="389" y="118" type="curve" smooth="yes"/>
      <point x="389" y="191"/>
      <point x="349" y="230"/>
      <point x="285" y="230" type="curve" smooth="yes"/>
      <point x="208" y="230"/>
      <point x="143" y="162"/>
      <point x="143" y="74" type="curve" smooth="yes"/>
      <point x="143" y="0"/>
      <point x="179" y="-38"/>
      <point x="248" y="-38" type="curve" smooth="yes"/>
      <point x="327" y="-38"/>
      <point x="389" y="27"/>
    </contour>
  </outline>
</glyph>
<glyph name="quotedbl" format="2">
  <advance width="844"/>
  <unicode hex="0022"/>
  <outline>
    <contour>
      <point x="699" y="1378" type="curve"/>
      <point x="656" y="1400" type="line"/>
      <point x="629" y="1394"/>
      <point x="523" y="1358"/>
      <point x="496" y="1342" type="curve"/>
      <point x="552" y="769" type="line"/>
      <point x="582" y="769"/>
      <point x="632" y="779"/>
      <point x="650" y="789" type="curve"/>
      <point x="667" y="985"/>
      <point x="683" y="1182"/>
    </contour>
    <contour>
      <point x="349" y="1378" type="curve"/>
      <point x="334" y="1385"/>
      <point x="321" y="1393"/>
      <point x="306" y="1400" type="curve"/>
      <point x="280" y="1394"/>
      <point x="174" y="1358"/>
      <point x="146" y="1342" type="curve"/>
      <point x="203" y="769" type="line"/>
      <point x="233" y="769"/>
      <point x="282" y="779"/>
      <point x="301" y="789" type="curve"/>
      <point x="318" y="985"/>
      <point x="333" y="1182"/>
    </contour>
  </outline>
</glyph>
<glyph name="numbersign" format="2">
  <advance width="927"/>
  <unicode hex="0023"/>
  <outline>
    <contour>
      <point x="858" y="1201" type="line"/>
      <point x="832" y="1222" type="line"/>
      <point x="803" y="1211"/>
      <point x="768" y="1203"/>
      <point x="741" y="1183" type="curve"/>
      <point x="663" y="912" type="line"/>
      <point x="488" y="912" type="line"/>
      <point x="572" y="1201" type="line"/>
      <point x="544" y="1222" type="line"/>
      <point x="517" y="1211"/>
      <point x="481" y="1203"/>
      <point x="454" y="1183" type="curve"/>
      <point x="376" y="912" type="line"/>
      <point x="212" y="912" type="line"/>
      <point x="202" y="887"/>
      <point x="185" y="847"/>
      <point x="179" y="819" type="curve"/>
      <point x="202" y="797" type="line"/>
      <point x="343" y="797" type="line"/>
      <point x="276" y="561" type="line"/>
      <point x="111" y="561" type="line"/>
      <point x="99" y="536"/>
      <point x="84" y="494"/>
      <point x="79" y="469" type="curve"/>
      <point x="99" y="446" type="line"/>
      <point x="243" y="446" type="line"/>
      <point x="156" y="139" type="line"/>
      <point x="181" y="120" type="line"/>
      <point x="214" y="131"/>
      <point x="250" y="144"/>
      <point x="273" y="161" type="curve"/>
      <point x="300" y="256"/>
      <point x="328" y="350"/>
      <point x="355" y="446" type="curve"/>
      <point x="530" y="446" type="line"/>
      <point x="443" y="139" type="line"/>
      <point x="467" y="120" type="line"/>
      <point x="500" y="131"/>
      <point x="538" y="144"/>
      <point x="561" y="161" type="curve"/>
      <point x="642" y="446" type="line"/>
      <point x="810" y="446" type="line"/>
      <point x="819" y="467"/>
      <point x="834" y="511"/>
      <point x="840" y="536" type="curve"/>
      <point x="819" y="561" type="line"/>
      <point x="675" y="561" type="line"/>
      <point x="742" y="797" type="line"/>
      <point x="910" y="797" type="line"/>
      <point x="919" y="817"/>
      <point x="937" y="861"/>
      <point x="943" y="888" type="curve"/>
      <point x="919" y="912" type="line"/>
      <point x="775" y="912" type="line"/>
    </contour>
    <contour>
      <point x="455" y="797" type="line"/>
      <point x="630" y="797" type="line"/>
      <point x="608" y="718"/>
      <point x="585" y="640"/>
      <point x="562" y="561" type="curve"/>
      <point x="388" y="561" type="line"/>
    </contour>
  </outline>
</glyph>
<glyph name="dollar" format="2">
  <advance width="927"/>
  <unicode hex="0024"/>
  <outline>
    <contour>
      <point x="506" y="-132" type="curve"/>
      <point x="506" y="-3" type="line"/>
      <point x="729" y="30"/>
      <point x="836" y="203"/>
      <point x="836" y="355" type="curve" smooth="yes"/>
      <point x="836" y="557"/>
      <point x="666" y="631"/>
      <point x="506" y="691" type="curve"/>
      <point x="506" y="1039" type="line"/>
      <point x="563" y="1022"/>
      <point x="618" y="981"/>
      <point x="667" y="916" type="curve"/>
      <point x="711" y="909" type="line"/>
      <point x="740" y="935"/>
      <point x="792" y="1020"/>
      <point x="792" y="1051" type="curve" smooth="yes"/>
      <point x="792" y="1055"/>
      <point x="792" y="1058"/>
      <point x="790" y="1060" type="curve" smooth="yes"/>
      <point x="742" y="1108"/>
      <point x="626" y="1145"/>
      <point x="506" y="1148" type="curve"/>
      <point x="506" y="1287" type="line"/>
      <point x="479" y="1309" type="line"/>
      <point x="443" y="1300"/>
      <point x="449" y="1300"/>
      <point x="414" y="1279" type="curve"/>
      <point x="414" y="1145" type="line"/>
      <point x="167" y="1118"/>
      <point x="89" y="968"/>
      <point x="89" y="860" type="curve" smooth="yes"/>
      <point x="89" y="671"/>
      <point x="255" y="613"/>
      <point x="414" y="555" type="curve"/>
      <point x="414" y="114" type="line"/>
      <point x="297" y="132"/>
      <point x="202" y="205"/>
      <point x="143" y="334" type="curve"/>
      <point x="95" y="337" type="line"/>
      <point x="85" y="301"/>
      <point x="80" y="241"/>
      <point x="80" y="189" type="curve" smooth="yes"/>
      <point x="80" y="141"/>
      <point x="85" y="100"/>
      <point x="93" y="94" type="curve"/>
      <point x="203" y="24"/>
      <point x="297" y="-8"/>
      <point x="414" y="-9" type="curve"/>
      <point x="414" y="-142" type="line"/>
      <point x="441" y="-165" type="line"/>
      <point x="472" y="-157"/>
      <point x="483" y="-151"/>
    </contour>
    <contour>
      <point x="691" y="305" type="curve" smooth="yes"/>
      <point x="691" y="198"/>
      <point x="602" y="127"/>
      <point x="506" y="113" type="curve"/>
      <point x="506" y="519" type="line"/>
      <point x="609" y="475"/>
      <point x="691" y="418"/>
    </contour>
    <contour>
      <point x="227" y="904" type="curve" smooth="yes"/>
      <point x="227" y="972"/>
      <point x="278" y="1043"/>
      <point x="414" y="1049" type="curve"/>
      <point x="414" y="725" type="line"/>
      <point x="309" y="768"/>
      <point x="227" y="814"/>
    </contour>
  </outline>
</glyph>
<glyph name="percent" format="2">
  <advance width="1355"/>
  <unicode hex="0025"/>
  <outline>
    <contour>
      <point x="1289" y="292" type="curve" smooth="yes"/>
      <point x="1289" y="469"/>
      <point x="1186" y="612"/>
      <point x="1026" y="612" type="curve" smooth="yes"/>
      <point x="870" y="612"/>
      <point x="741" y="467"/>
      <point x="741" y="292" type="curve" smooth="yes"/>
      <point x="741" y="118"/>
      <point x="847" y="-28"/>
      <point x="1003" y="-28" type="curve" smooth="yes"/>
      <point x="1159" y="-28"/>
      <point x="1289" y="118"/>
    </contour>
    <contour>
      <point x="1167" y="1139" type="line"/>
      <point x="1141" y="1170" type="line"/>
      <point x="1104" y="1161"/>
      <point x="1045" y="1145"/>
      <point x="1012" y="1127" type="curve"/>
      <point x="188" y="1" type="line"/>
      <point x="211" y="-31" type="line"/>
      <point x="243" y="-22"/>
      <point x="319" y="-3"/>
      <point x="342" y="13" type="curve"/>
    </contour>
    <contour>
      <point x="616" y="849" type="curve" smooth="yes"/>
      <point x="616" y="1025"/>
      <point x="511" y="1167"/>
      <point x="352" y="1167" type="curve" smooth="yes"/>
      <point x="195" y="1167"/>
      <point x="66" y="1023"/>
      <point x="66" y="849" type="curve" smooth="yes"/>
      <point x="66" y="674"/>
      <point x="173" y="528"/>
      <point x="329" y="528" type="curve" smooth="yes"/>
      <point x="486" y="528"/>
      <point x="616" y="674"/>
    </contour>
    <contour>
      <point x="1139" y="273" type="curve" smooth="yes"/>
      <point x="1139" y="121"/>
      <point x="1090" y="46"/>
      <point x="1026" y="46" type="curve" smooth="yes"/>
      <point x="947" y="46"/>
      <point x="893" y="131"/>
      <point x="893" y="314" type="curve" smooth="yes"/>
      <point x="893" y="466"/>
      <point x="946" y="537"/>
      <point x="1003" y="537" type="curve" smooth="yes"/>
      <point x="1075" y="537"/>
      <point x="1139" y="453"/>
    </contour>
    <contour>
      <point x="464" y="830" type="curve" smooth="yes"/>
      <point x="464" y="677"/>
      <point x="414" y="603"/>
      <point x="352" y="603" type="curve" smooth="yes"/>
      <point x="271" y="603"/>
      <point x="218" y="687"/>
      <point x="218" y="870" type="curve" smooth="yes"/>
      <point x="218" y="1023"/>
      <point x="271" y="1093"/>
      <point x="329" y="1093" type="curve" smooth="yes"/>
      <point x="400" y="1093"/>
      <point x="464" y="1010"/>
    </contour>
  </outline>
</glyph>
<glyph name="ampersand" format="2">
  <advance width="1305"/>
  <unicode hex="0026"/>
  <outline>
    <contour>
      <point x="1289" y="708" type="curve"/>
      <point x="1281" y="719"/>
      <point x="1273" y="732"/>
      <point x="1265" y="744" type="curve"/>
      <point x="837" y="744" type="line"/>
      <point x="812" y="734"/>
      <point x="777" y="706"/>
      <point x="763" y="690" type="curve"/>
      <point x="785" y="661" type="line"/>
      <point x="859" y="661"/>
      <point x="936" y="581"/>
      <point x="936" y="475" type="curve" smooth="yes"/>
      <point x="936" y="421"/>
      <point x="916" y="358"/>
      <point x="880" y="301" type="curve"/>
      <point x="754" y="430"/>
      <point x="621" y="592"/>
      <point x="533" y="752" type="curve"/>
      <point x="590" y="789" type="line"/>
      <point x="739" y="882"/>
      <point x="841" y="1007"/>
      <point x="841" y="1139" type="curve" smooth="yes"/>
      <point x="841" y="1261"/>
      <point x="779" y="1372"/>
      <point x="612" y="1372" type="curve" smooth="yes"/>
      <point x="441" y="1372"/>
      <point x="289" y="1218"/>
      <point x="289" y="1015" type="curve" smooth="yes"/>
      <point x="289" y="930"/>
      <point x="312" y="841"/>
      <point x="350" y="750" type="curve"/>
      <point x="169" y="619"/>
      <point x="72" y="472"/>
      <point x="72" y="333" type="curve" smooth="yes"/>
      <point x="72" y="96"/>
      <point x="232" y="-28"/>
      <point x="474" y="-28" type="curve" smooth="yes"/>
      <point x="608" y="-28"/>
      <point x="731" y="25"/>
      <point x="831" y="104" type="curve"/>
      <point x="920" y="22"/>
      <point x="992" y="-28"/>
      <point x="1021" y="-28" type="curve" smooth="yes"/>
      <point x="1048" y="-28"/>
      <point x="1143" y="-2"/>
      <point x="1252" y="46" type="curve"/>
      <point x="1242" y="93" type="line"/>
      <point x="1223" y="89"/>
      <point x="1206" y="87"/>
      <point x="1189" y="87" type="curve" smooth="yes"/>
      <point x="1096" y="87"/>
      <point x="1030" y="155"/>
      <point x="952" y="229" type="curve"/>
      <point x="1022" y="323"/>
      <point x="1064" y="426"/>
      <point x="1064" y="514" type="curve" smooth="yes"/>
      <point x="1064" y="581"/>
      <point x="1059" y="612"/>
      <point x="1033" y="655" type="curve"/>
      <point x="1075" y="653"/>
      <point x="1145" y="636"/>
      <point x="1192" y="614" type="curve"/>
      <point x="1223" y="636"/>
      <point x="1258" y="669"/>
    </contour>
    <contour>
      <point x="510" y="86" type="curve" smooth="yes"/>
      <point x="378" y="86"/>
      <point x="248" y="176"/>
      <point x="248" y="353" type="curve" smooth="yes"/>
      <point x="248" y="455"/>
      <point x="285" y="546"/>
      <point x="399" y="649" type="curve"/>
      <point x="495" y="471"/>
      <point x="636" y="298"/>
      <point x="762" y="170" type="curve"/>
      <point x="693" y="120"/>
      <point x="607" y="86"/>
    </contour>
    <contour>
      <point x="432" y="1069" type="curve" smooth="yes"/>
      <point x="432" y="1168"/>
      <point x="474" y="1265"/>
      <point x="559" y="1265" type="curve" smooth="yes"/>
      <point x="640" y="1265"/>
      <point x="686" y="1196"/>
      <point x="686" y="1108" type="curve" smooth="yes"/>
      <point x="686" y="1025"/>
      <point x="649" y="928"/>
      <point x="491" y="838" type="curve"/>
      <point x="455" y="918"/>
      <point x="432" y="997"/>
    </contour>
  </outline>
</glyph>
<glyph name="parenleft" format="2">
  <advance width="621"/>
  <unicode hex="0028"/>
  <outline>
    <contour>
      <point x="587" y="-248" type="curve"/>
      <point x="398" y="-85"/>
      <point x="293" y="248"/>
      <point x="293" y="616" type="curve" smooth="yes"/>
      <point x="293" y="1021"/>
      <point x="426" y="1323"/>
      <point x="587" y="1464" type="curve"/>
      <point x="576" y="1480"/>
      <point x="563" y="1497"/>
      <point x="552" y="1514" type="curve"/>
      <point x="285" y="1369"/>
      <point x="111" y="1004"/>
      <point x="111" y="589" type="curve" smooth="yes"/>
      <point x="111" y="188"/>
      <point x="259" y="-157"/>
      <point x="552" y="-298" type="curve"/>
      <point x="563" y="-281"/>
      <point x="576" y="-264"/>
    </contour>
  </outline>
</glyph>
<glyph name="parenright" format="2">
  <advance width="621"/>
  <unicode hex="0029"/>
  <outline>
    <contour>
      <point x="512" y="627" type="curve" smooth="yes"/>
      <point x="512" y="1028"/>
      <point x="362" y="1375"/>
      <point x="70" y="1514" type="curve"/>
      <point x="35" y="1464" type="line"/>
      <point x="225" y="1303"/>
      <point x="329" y="967"/>
      <point x="329" y="601" type="curve" smooth="yes"/>
      <point x="329" y="196"/>
      <point x="195" y="-107"/>
      <point x="35" y="-248" type="curve"/>
      <point x="70" y="-298" type="line"/>
      <point x="336" y="-154"/>
      <point x="512" y="213"/>
    </contour>
  </outline>
</glyph>
<glyph name="asterisk" format="2">
  <advance width="864"/>
  <unicode hex="002A"/>
  <outline>
    <contour>
      <point x="507" y="1453" type="line"/>
      <point x="471" y="1477" type="line"/>
      <point x="444" y="1470"/>
      <point x="385" y="1442"/>
      <point x="357" y="1428" type="curve"/>
      <point x="397" y="1130" type="line"/>
      <point x="310" y="1196"/>
      <point x="225" y="1262"/>
      <point x="139" y="1327" type="curve"/>
      <point x="101" y="1306" type="line"/>
      <point x="93" y="1281"/>
      <point x="89" y="1216"/>
      <point x="87" y="1185" type="curve"/>
      <point x="365" y="1072" type="line"/>
      <point x="64" y="947" type="line"/>
      <point x="64" y="903" type="line"/>
      <point x="81" y="883"/>
      <point x="135" y="848"/>
      <point x="163" y="831" type="curve"/>
      <point x="398" y="1013" type="line"/>
      <point x="385" y="906"/>
      <point x="370" y="798"/>
      <point x="356" y="691" type="curve"/>
      <point x="369" y="684"/>
      <point x="382" y="677"/>
      <point x="395" y="671" type="curve"/>
      <point x="422" y="676"/>
      <point x="479" y="702"/>
      <point x="505" y="718" type="curve"/>
      <point x="493" y="817"/>
      <point x="479" y="915"/>
      <point x="467" y="1013" type="curve"/>
      <point x="723" y="816" type="line"/>
      <point x="762" y="837" type="line"/>
      <point x="771" y="865"/>
      <point x="775" y="929"/>
      <point x="777" y="959" type="curve"/>
      <point x="499" y="1074" type="line"/>
      <point x="599" y="1115"/>
      <point x="699" y="1157"/>
      <point x="799" y="1199" type="curve"/>
      <point x="799" y="1213"/>
      <point x="799" y="1227"/>
      <point x="800" y="1241" type="curve"/>
      <point x="780" y="1262"/>
      <point x="728" y="1297"/>
      <point x="701" y="1314" type="curve"/>
      <point x="465" y="1131" type="line"/>
    </contour>
  </outline>
</glyph>
<glyph name="plus" format="2">
  <advance width="800"/>
  <unicode hex="002B"/>
  <outline>
    <contour>
      <point x="458" y="220" type="curve"/>
      <point x="458" y="476" type="line"/>
      <point x="711" y="476" type="line"/>
      <point x="720" y="497"/>
      <point x="737" y="537"/>
      <point x="743" y="563" type="curve"/>
      <point x="719" y="587" type="line"/>
      <point x="458" y="587" type="line"/>
      <point x="458" y="851" type="line"/>
      <point x="433" y="874" type="line"/>
      <point x="406" y="867"/>
      <point x="366" y="853"/>
      <point x="342" y="846" type="curve"/>
      <point x="342" y="587" type="line"/>
      <point x="88" y="587" type="line"/>
      <point x="77" y="563"/>
      <point x="61" y="526"/>
      <point x="55" y="499" type="curve"/>
      <point x="64" y="492"/>
      <point x="72" y="484"/>
      <point x="81" y="476" type="curve"/>
      <point x="342" y="476" type="line"/>
      <point x="342" y="212" type="line"/>
      <point x="367" y="189" type="line"/>
      <point x="394" y="195"/>
      <point x="433" y="208"/>
    </contour>
  </outline>
</glyph>
<glyph name="comma" format="2">
  <advance width="463"/>
  <unicode hex="002C"/>
  <outline>
    <contour>
      <point x="390" y="66" type="curve" smooth="yes"/>
      <point x="390" y="144"/>
      <point x="371" y="195"/>
      <point x="310" y="223" type="curve"/>
      <point x="259" y="223"/>
      <point x="106" y="165"/>
      <point x="83" y="134" type="curve"/>
      <point x="98" y="83" type="line"/>
      <point x="103" y="83"/>
      <point x="108" y="83"/>
      <point x="113" y="83" type="curve" smooth="yes"/>
      <point x="185" y="83"/>
      <point x="217" y="43"/>
      <point x="217" y="-9" type="curve" smooth="yes"/>
      <point x="217" y="-118"/>
      <point x="184" y="-188"/>
      <point x="114" y="-269" type="curve"/>
      <point x="163" y="-306" type="line"/>
      <point x="299" y="-208"/>
      <point x="390" y="-42"/>
    </contour>
  </outline>
</glyph>
<glyph name="period" format="2">
  <advance width="463"/>
  <unicode hex="002E"/>
  <outline>
    <contour>
      <point x="370" y="118" type="curve" smooth="yes"/>
      <point x="370" y="191"/>
      <point x="330" y="230"/>
      <point x="266" y="230" type="curve" smooth="yes"/>
      <point x="190" y="230"/>
      <point x="124" y="162"/>
      <point x="124" y="74" type="curve" smooth="yes"/>
      <point x="124" y="0"/>
      <point x="160" y="-38"/>
      <point x="229" y="-38" type="curve" smooth="yes"/>
      <point x="308" y="-38"/>
      <point x="370" y="27"/>
    </contour>
  </outline>
</glyph>
<glyph name="slash" format="2">
  <advance width="913"/>
  <unicode hex="002F"/>
  <outline>
    <contour>
      <point x="866" y="1491" type="line"/>
      <point x="830" y="1514" type="line"/>
      <point x="795" y="1504"/>
      <point x="740" y="1487"/>
      <point x="706" y="1465" type="curve"/>
      <point x="43" y="-291" type="line"/>
      <point x="79" y="-317" type="line"/>
      <point x="111" y="-307"/>
      <point x="181" y="-284"/>
      <point x="206" y="-267" type="curve"/>
    </contour>
  </outline>
</glyph>
<glyph name="zero" format="2">
  <advance width="927"/>
  <unicode hex="0030"/>
  <outline>
    <contour>
      <point x="858" y="569" type="curve" smooth="yes"/>
      <point x="858" y="899"/>
      <point x="727" y="1168"/>
      <point x="479" y="1168" type="curve" smooth="yes"/>
      <point x="233" y="1168"/>
      <point x="68" y="895"/>
      <point x="68" y="569" type="curve" smooth="yes"/>
      <point x="68" y="244"/>
      <point x="201" y="-28"/>
      <point x="446" y="-28" type="curve" smooth="yes"/>
      <point x="692" y="-28"/>
      <point x="858" y="244"/>
    </contour>
    <contour>
      <point x="680" y="534" type="curve" smooth="yes"/>
      <point x="680" y="215"/>
      <point x="607" y="83"/>
      <point x="479" y="83" type="curve" smooth="yes"/>
      <point x="343" y="83"/>
      <point x="247" y="264"/>
      <point x="247" y="610" type="curve" smooth="yes"/>
      <point x="247" y="926"/>
      <point x="320" y="1056"/>
      <point x="446" y="1056" type="curve" smooth="yes"/>
      <point x="570" y="1056"/>
      <point x="680" y="880"/>
    </contour>
  </outline>
</glyph>
<glyph name="one" format="2">
  <advance width="927"/>
  <unicode hex="0031"/>
  <outline>
    <contour>
      <point x="812" y="0" type="line"/>
      <point x="812" y="57" type="line"/>
      <point x="622" y="80"/>
      <point x="576" y="117"/>
      <point x="576" y="142" type="curve" smooth="yes"/>
      <point x="576" y="1143" type="line"/>
      <point x="539" y="1178" type="line"/>
      <point x="454" y="1132"/>
      <point x="233" y="1044"/>
      <point x="128" y="1017" type="curve"/>
      <point x="149" y="961" type="line"/>
      <point x="239" y="980"/>
      <point x="299" y="987"/>
      <point x="338" y="987" type="curve" smooth="yes"/>
      <point x="416" y="987"/>
      <point x="413" y="956"/>
      <point x="413" y="882" type="curve" smooth="yes"/>
      <point x="413" y="142" type="line" smooth="yes"/>
      <point x="413" y="115"/>
      <point x="355" y="80"/>
      <point x="157" y="57" type="curve"/>
      <point x="157" y="0" type="line"/>
    </contour>
  </outline>
</glyph>
<glyph name="two" format="2">
  <advance width="927"/>
  <unicode hex="0032"/>
  <outline>
    <contour>
      <point x="812" y="287" type="line"/>
      <point x="757" y="301" type="line"/>
      <point x="757" y="301"/>
      <point x="746" y="126"/>
      <point x="661" y="126" type="curve" smooth="yes"/>
      <point x="270" y="126" type="line"/>
      <point x="662" y="580"/>
      <point x="800" y="738"/>
      <point x="800" y="907" type="curve" smooth="yes"/>
      <point x="800" y="1085"/>
      <point x="678" y="1168"/>
      <point x="515" y="1168" type="curve" smooth="yes"/>
      <point x="310" y="1168"/>
      <point x="115" y="998"/>
      <point x="115" y="867" type="curve"/>
      <point x="142" y="830" type="line"/>
      <point x="200" y="835"/>
      <point x="242" y="856"/>
      <point x="284" y="880" type="curve"/>
      <point x="284" y="882"/>
      <point x="284" y="885"/>
      <point x="284" y="887" type="curve" smooth="yes"/>
      <point x="284" y="976"/>
      <point x="351" y="1078"/>
      <point x="451" y="1078" type="curve" smooth="yes"/>
      <point x="579" y="1078"/>
      <point x="630" y="988"/>
      <point x="630" y="874" type="curve" smooth="yes"/>
      <point x="630" y="732"/>
      <point x="536" y="590"/>
      <point x="89" y="70" type="curve"/>
      <point x="116" y="0" type="line"/>
      <point x="798" y="0" type="line"/>
    </contour>
  </outline>
</glyph>
<glyph name="three" format="2">
  <advance width="927"/>
  <unicode hex="0033"/>
  <outline>
    <contour>
      <point x="801" y="360" type="curve" smooth="yes"/>
      <point x="801" y="514"/>
      <point x="693" y="643"/>
      <point x="546" y="660" type="curve"/>
      <point x="669" y="711"/>
      <point x="748" y="812"/>
      <point x="748" y="906" type="curve" smooth="yes"/>
      <point x="748" y="1035"/>
      <point x="665" y="1168"/>
      <point x="466" y="1168" type="curve" smooth="yes"/>
      <point x="264" y="1168"/>
      <point x="98" y="1015"/>
      <point x="98" y="909" type="curve"/>
      <point x="126" y="872" type="line"/>
      <point x="183" y="877"/>
      <point x="231" y="893"/>
      <point x="276" y="917" type="curve"/>
      <point x="274" y="927"/>
      <point x="273" y="936"/>
      <point x="273" y="946" type="curve" smooth="yes"/>
      <point x="273" y="1019"/>
      <point x="329" y="1078"/>
      <point x="412" y="1078" type="curve" smooth="yes"/>
      <point x="526" y="1078"/>
      <point x="573" y="976"/>
      <point x="573" y="889" type="curve" smooth="yes"/>
      <point x="573" y="812"/>
      <point x="540" y="703"/>
      <point x="313" y="641" type="curve"/>
      <point x="327" y="577" type="line"/>
      <point x="365" y="584"/>
      <point x="359" y="584"/>
      <point x="394" y="584" type="curve" smooth="yes"/>
      <point x="499" y="584"/>
      <point x="627" y="517"/>
      <point x="627" y="331" type="curve" smooth="yes"/>
      <point x="627" y="170"/>
      <point x="525" y="75"/>
      <point x="381" y="75" type="curve" smooth="yes"/>
      <point x="286" y="75"/>
      <point x="214" y="101"/>
      <point x="99" y="186" type="curve"/>
      <point x="66" y="116" type="line"/>
      <point x="180" y="7"/>
      <point x="297" y="-28"/>
      <point x="396" y="-28" type="curve" smooth="yes"/>
      <point x="655" y="-28"/>
      <point x="801" y="148"/>
    </contour>
  </outline>
</glyph>
<glyph name="four" format="2">
  <advance width="927"/>
  <unicode hex="0034"/>
  <outline>
    <contour>
      <point x="846" y="410" type="curve"/>
      <point x="822" y="438" type="line"/>
      <point x="703" y="438" type="line"/>
      <point x="703" y="1143" type="line"/>
      <point x="667" y="1178" type="line"/>
      <point x="625" y="1158"/>
      <point x="571" y="1130"/>
      <point x="518" y="1109" type="curve"/>
      <point x="52" y="360" type="line"/>
      <point x="62" y="349"/>
      <point x="74" y="338"/>
      <point x="85" y="327" type="curve"/>
      <point x="550" y="327" type="line"/>
      <point x="550" y="115" type="line" smooth="yes"/>
      <point x="550" y="93"/>
      <point x="516" y="75"/>
      <point x="351" y="47" type="curve"/>
      <point x="351" y="0" type="line"/>
      <point x="835" y="0" type="line"/>
      <point x="835" y="47" type="line"/>
      <point x="731" y="71"/>
      <point x="703" y="86"/>
      <point x="703" y="105" type="curve" smooth="yes"/>
      <point x="703" y="327" type="line"/>
      <point x="766" y="327" type="line"/>
      <point x="794" y="349"/>
      <point x="820" y="369"/>
    </contour>
    <contour>
      <point x="550" y="438" type="line"/>
      <point x="210" y="438" type="line"/>
      <point x="324" y="615"/>
      <point x="436" y="792"/>
      <point x="550" y="969" type="curve"/>
    </contour>
  </outline>
</glyph>
<glyph name="five" format="2">
  <advance width="927"/>
  <unicode hex="0035"/>
  <outline>
    <contour>
      <point x="810" y="388" type="curve" smooth="yes"/>
      <point x="810" y="573"/>
      <point x="685" y="741"/>
      <point x="450" y="741" type="curve" smooth="yes"/>
      <point x="382" y="741"/>
      <point x="309" y="730"/>
      <point x="257" y="713" type="curve"/>
      <point x="269" y="769"/>
      <point x="293" y="931"/>
      <point x="296" y="1005" type="curve"/>
      <point x="673" y="1005" type="line"/>
      <point x="703" y="1027"/>
      <point x="757" y="1087"/>
      <point x="785" y="1128" type="curve"/>
      <point x="775" y="1138"/>
      <point x="764" y="1147"/>
      <point x="755" y="1157" type="curve"/>
      <point x="755" y="1157"/>
      <point x="713" y="1140"/>
      <point x="641" y="1140" type="curve" smooth="yes"/>
      <point x="207" y="1140" type="line"/>
      <point x="200" y="1007"/>
      <point x="153" y="719"/>
      <point x="130" y="582" type="curve"/>
      <point x="174" y="551" type="line"/>
      <point x="240" y="601"/>
      <point x="323" y="628"/>
      <point x="388" y="628" type="curve" smooth="yes"/>
      <point x="555" y="628"/>
      <point x="639" y="519"/>
      <point x="639" y="347" type="curve" smooth="yes"/>
      <point x="639" y="203"/>
      <point x="557" y="73"/>
      <point x="402" y="73" type="curve" smooth="yes"/>
      <point x="330" y="73"/>
      <point x="243" y="91"/>
      <point x="110" y="183" type="curve"/>
      <point x="74" y="115" type="line"/>
      <point x="183" y="14"/>
      <point x="306" y="-28"/>
      <point x="423" y="-28" type="curve" smooth="yes"/>
      <point x="675" y="-28"/>
      <point x="810" y="168"/>
    </contour>
  </outline>
</glyph>
<glyph name="six" format="2">
  <advance width="927"/>
  <unicode hex="0036"/>
  <outline>
    <contour>
      <point x="854" y="390" type="curve" smooth="yes"/>
      <point x="854" y="597"/>
      <point x="734" y="731"/>
      <point x="528" y="731" type="curve" smooth="yes"/>
      <point x="467" y="731"/>
      <point x="371" y="702"/>
      <point x="285" y="622" type="curve"/>
      <point x="324" y="843"/>
      <point x="479" y="1050"/>
      <point x="779" y="1118" type="curve"/>
      <point x="759" y="1182" type="line"/>
      <point x="313" y="1117"/>
      <point x="100" y="804"/>
      <point x="100" y="447" type="curve" smooth="yes"/>
      <point x="100" y="163"/>
      <point x="274" y="-28"/>
      <point x="489" y="-28" type="curve" smooth="yes"/>
      <point x="729" y="-28"/>
      <point x="854" y="213"/>
    </contour>
    <contour>
      <point x="483" y="621" type="curve" smooth="yes"/>
      <point x="573" y="621"/>
      <point x="690" y="566"/>
      <point x="690" y="329" type="curve" smooth="yes"/>
      <point x="690" y="213"/>
      <point x="651" y="77"/>
      <point x="522" y="77" type="curve" smooth="yes"/>
      <point x="374" y="77"/>
      <point x="275" y="208"/>
      <point x="275" y="507" type="curve"/>
      <point x="343" y="585"/>
      <point x="422" y="621"/>
    </contour>
  </outline>
</glyph>
<glyph name="seven" format="2">
  <advance width="927"/>
  <unicode hex="0037"/>
  <outline>
    <contour>
      <point x="855" y="1104" type="curve"/>
      <point x="824" y="1140" type="line"/>
      <point x="139" y="1140" type="line"/>
      <point x="124" y="1084"/>
      <point x="105" y="941"/>
      <point x="96" y="882" type="curve"/>
      <point x="145" y="864" type="line"/>
      <point x="199" y="1011"/>
      <point x="233" y="1005"/>
      <point x="270" y="1005" type="curve" smooth="yes"/>
      <point x="699" y="1005" type="line"/>
      <point x="560" y="683"/>
      <point x="443" y="391"/>
      <point x="223" y="5" type="curve"/>
      <point x="237" y="-5"/>
      <point x="251" y="-17"/>
      <point x="264" y="-28" type="curve"/>
      <point x="327" y="-12"/>
      <point x="387" y="12"/>
      <point x="432" y="43" type="curve"/>
      <point x="498" y="245"/>
      <point x="680" y="697"/>
    </contour>
  </outline>
</glyph>
<glyph name="eight" format="2">
  <advance width="927"/>
  <unicode hex="0038"/>
  <outline>
    <contour>
      <point x="841" y="333" type="curve" smooth="yes"/>
      <point x="841" y="510"/>
      <point x="724" y="593"/>
      <point x="598" y="654" type="curve"/>
      <point x="710" y="731"/>
      <point x="794" y="813"/>
      <point x="794" y="917" type="curve" smooth="yes"/>
      <point x="794" y="1063"/>
      <point x="684" y="1168"/>
      <point x="481" y="1168" type="curve" smooth="yes"/>
      <point x="287" y="1168"/>
      <point x="133" y="1041"/>
      <point x="133" y="866" type="curve" smooth="yes"/>
      <point x="133" y="722"/>
      <point x="228" y="657"/>
      <point x="338" y="606" type="curve"/>
      <point x="186" y="523"/>
      <point x="85" y="405"/>
      <point x="85" y="270" type="curve" smooth="yes"/>
      <point x="85" y="114"/>
      <point x="211" y="-28"/>
      <point x="437" y="-28" type="curve" smooth="yes"/>
      <point x="659" y="-28"/>
      <point x="841" y="137"/>
    </contour>
    <contour>
      <point x="667" y="292" type="curve" smooth="yes"/>
      <point x="667" y="183"/>
      <point x="610" y="72"/>
      <point x="479" y="72" type="curve" smooth="yes"/>
      <point x="349" y="72"/>
      <point x="260" y="166"/>
      <point x="260" y="298" type="curve" smooth="yes"/>
      <point x="260" y="409"/>
      <point x="308" y="485"/>
      <point x="417" y="571" type="curve"/>
      <point x="544" y="515"/>
      <point x="667" y="454"/>
    </contour>
    <contour>
      <point x="280" y="899" type="curve" smooth="yes"/>
      <point x="280" y="984"/>
      <point x="332" y="1074"/>
      <point x="437" y="1074" type="curve" smooth="yes"/>
      <point x="550" y="1074"/>
      <point x="629" y="1019"/>
      <point x="629" y="887" type="curve" smooth="yes"/>
      <point x="629" y="822"/>
      <point x="596" y="756"/>
      <point x="514" y="691" type="curve"/>
      <point x="391" y="744"/>
      <point x="280" y="791"/>
    </contour>
  </outline>
</glyph>
<glyph name="nine" format="2">
  <advance width="927"/>
  <unicode hex="0039"/>
  <outline>
    <contour>
      <point x="844" y="692" type="curve" smooth="yes"/>
      <point x="844" y="1026"/>
      <point x="676" y="1168"/>
      <point x="485" y="1168" type="curve" smooth="yes"/>
      <point x="255" y="1168"/>
      <point x="91" y="943"/>
      <point x="91" y="752" type="curve" smooth="yes"/>
      <point x="91" y="564"/>
      <point x="209" y="415"/>
      <point x="416" y="415" type="curve" smooth="yes"/>
      <point x="504" y="415"/>
      <point x="597" y="463"/>
      <point x="665" y="535" type="curve"/>
      <point x="639" y="290"/>
      <point x="505" y="107"/>
      <point x="165" y="22" type="curve"/>
      <point x="183" y="-41" type="line"/>
      <point x="632" y="21"/>
      <point x="844" y="308"/>
    </contour>
    <contour>
      <point x="461" y="528" type="curve" smooth="yes"/>
      <point x="376" y="528"/>
      <point x="256" y="582"/>
      <point x="256" y="810" type="curve" smooth="yes"/>
      <point x="256" y="959"/>
      <point x="327" y="1063"/>
      <point x="450" y="1063" type="curve" smooth="yes"/>
      <point x="548" y="1063"/>
      <point x="664" y="974"/>
      <point x="670" y="651" type="curve"/>
      <point x="618" y="579"/>
      <point x="545" y="528"/>
    </contour>
  </outline>
</glyph>
<glyph name="semicolon" format="2">
  <advance width="463"/>
  <unicode hex="003B"/>
  <outline>
    <contour>
      <point x="390" y="66" type="curve" smooth="yes"/>
      <point x="390" y="144"/>
      <point x="371" y="195"/>
      <point x="310" y="223" type="curve"/>
      <point x="259" y="223"/>
      <point x="106" y="165"/>
      <point x="83" y="134" type="curve"/>
      <point x="98" y="83" type="line"/>
      <point x="103" y="83"/>
      <point x="108" y="83"/>
      <point x="113" y="83" type="curve" smooth="yes"/>
      <point x="185" y="83"/>
      <point x="217" y="43"/>
      <point x="217" y="-9" type="curve" smooth="yes"/>
      <point x="217" y="-118"/>
      <point x="184" y="-188"/>
      <point x="114" y="-269" type="curve"/>
      <point x="163" y="-306" type="line"/>
      <point x="299" y="-208"/>
      <point x="390" y="-42"/>
    </contour>
    <contour>
      <point x="370" y="795" type="curve" smooth="yes"/>
      <point x="370" y="868"/>
      <point x="330" y="907"/>
      <point x="266" y="907" type="curve" smooth="yes"/>
      <point x="190" y="907"/>
      <point x="124" y="839"/>
      <point x="124" y="751" type="curve" smooth="yes"/>
      <point x="124" y="677"/>
      <point x="160" y="639"/>
      <point x="229" y="639" type="curve" smooth="yes"/>
      <point x="308" y="639"/>
      <point x="370" y="704"/>
    </contour>
  </outline>
</glyph>
<glyph name="less" format="2">
  <advance width="857"/>
  <unicode hex="003C"/>
  <outline>
    <contour>
      <point x="802" y="307" type="curve"/>
      <point x="784" y="342" type="line"/>
      <point x="253" y="537" type="line"/>
      <point x="427" y="600"/>
      <point x="599" y="664"/>
      <point x="773" y="728" type="curve"/>
      <point x="780" y="752"/>
      <point x="795" y="803"/>
      <point x="802" y="830" type="curve"/>
      <point x="777" y="855" type="line"/>
      <point x="87" y="599" type="line"/>
      <point x="83" y="590"/>
      <point x="79" y="583"/>
      <point x="77" y="574" type="curve" smooth="yes"/>
      <point x="75" y="569" type="line" smooth="yes"/>
      <point x="71" y="555"/>
      <point x="65" y="540"/>
      <point x="63" y="529" type="curve"/>
      <point x="60" y="520" type="line" smooth="yes"/>
      <point x="59" y="517"/>
      <point x="58" y="515"/>
      <point x="58" y="513" type="curve" smooth="yes"/>
      <point x="56" y="506" type="line" smooth="yes"/>
      <point x="56" y="504"/>
      <point x="55" y="502"/>
      <point x="55" y="500" type="curve"/>
      <point x="81" y="474" type="line"/>
      <point x="717" y="238" type="line"/>
      <point x="756" y="262"/>
      <point x="774" y="282"/>
    </contour>
  </outline>
</glyph>
<glyph name="equal" format="2">
  <advance width="857"/>
  <unicode hex="003D"/>
  <outline>
    <contour>
      <point x="802" y="703" type="curve"/>
      <point x="777" y="727" type="line"/>
      <point x="88" y="727" type="line"/>
      <point x="77" y="704"/>
      <point x="61" y="667"/>
      <point x="55" y="640" type="curve"/>
      <point x="81" y="616" type="line"/>
      <point x="771" y="616" type="line"/>
      <point x="778" y="638"/>
      <point x="795" y="677"/>
    </contour>
    <contour>
      <point x="802" y="419" type="curve"/>
      <point x="794" y="427"/>
      <point x="785" y="435"/>
      <point x="777" y="444" type="curve"/>
      <point x="88" y="444" type="line"/>
      <point x="77" y="419"/>
      <point x="61" y="384"/>
      <point x="55" y="359" type="curve"/>
      <point x="81" y="332" type="line"/>
      <point x="771" y="332" type="line"/>
      <point x="778" y="355"/>
      <point x="795" y="393"/>
    </contour>
  </outline>
</glyph>
<glyph name="greater" format="2">
  <advance width="857"/>
  <unicode hex="003E"/>
  <outline>
    <contour>
      <point x="777" y="620" type="line"/>
      <point x="565" y="698"/>
      <point x="353" y="777"/>
      <point x="140" y="855" type="curve"/>
      <point x="114" y="835"/>
      <point x="84" y="811"/>
      <point x="55" y="787" type="curve"/>
      <point x="74" y="749" type="line"/>
      <point x="602" y="554" type="line"/>
      <point x="86" y="364" type="line"/>
      <point x="78" y="341"/>
      <point x="63" y="289"/>
      <point x="55" y="264" type="curve"/>
      <point x="81" y="238" type="line"/>
      <point x="771" y="493" type="line"/>
      <point x="782" y="521"/>
      <point x="795" y="568"/>
      <point x="802" y="593" type="curve"/>
    </contour>
  </outline>
</glyph>
<glyph name="question" format="2">
  <advance width="849"/>
  <unicode hex="003F"/>
  <outline>
    <contour>
      <point x="776" y="1102" type="curve" smooth="yes"/>
      <point x="776" y="1279"/>
      <point x="671" y="1400"/>
      <point x="480" y="1400" type="curve" smooth="yes"/>
      <point x="264" y="1400"/>
      <point x="72" y="1267"/>
      <point x="72" y="1089" type="curve" smooth="yes"/>
      <point x="72" y="1079"/>
      <point x="72" y="1063"/>
      <point x="74" y="1054" type="curve"/>
      <point x="101" y="1024" type="line"/>
      <point x="157" y="1029"/>
      <point x="221" y="1044"/>
      <point x="262" y="1065" type="curve"/>
      <point x="256" y="1083"/>
      <point x="250" y="1104"/>
      <point x="250" y="1122" type="curve" smooth="yes"/>
      <point x="250" y="1220"/>
      <point x="324" y="1304"/>
      <point x="408" y="1304" type="curve" smooth="yes"/>
      <point x="529" y="1304"/>
      <point x="598" y="1215"/>
      <point x="598" y="1060" type="curve" smooth="yes"/>
      <point x="598" y="884"/>
      <point x="336" y="690"/>
      <point x="336" y="478" type="curve" smooth="yes"/>
      <point x="336" y="473"/>
      <point x="337" y="469"/>
      <point x="337" y="464" type="curve" smooth="yes"/>
      <point x="344" y="356" type="line"/>
      <point x="369" y="335" type="line"/>
      <point x="404" y="344"/>
      <point x="423" y="357"/>
      <point x="447" y="374" type="curve"/>
      <point x="453" y="464" type="line" smooth="yes"/>
      <point x="470" y="721"/>
      <point x="776" y="817"/>
    </contour>
    <contour>
      <point x="526" y="118" type="curve" smooth="yes"/>
      <point x="526" y="191"/>
      <point x="486" y="230"/>
      <point x="422" y="230" type="curve" smooth="yes"/>
      <point x="345" y="230"/>
      <point x="279" y="162"/>
      <point x="279" y="74" type="curve" smooth="yes"/>
      <point x="279" y="0"/>
      <point x="316" y="-38"/>
      <point x="385" y="-38" type="curve" smooth="yes"/>
      <point x="464" y="-38"/>
      <point x="526" y="27"/>
    </contour>
  </outline>
</glyph>
<glyph name="at" format="2">
  <advance width="1598"/>
  <unicode hex="0040"/>
  <outline>
    <contour>
      <point x="1528" y="525" type="curve" smooth="yes"/>
      <point x="1528" y="1014"/>
      <point x="1271" y="1267"/>
      <point x="886" y="1267" type="curve" smooth="yes"/>
      <point x="436" y="1267"/>
      <point x="69" y="875"/>
      <point x="69" y="440" type="curve" smooth="yes"/>
      <point x="69" y="-53"/>
      <point x="383" y="-364"/>
      <point x="826" y="-364" type="curve" smooth="yes"/>
      <point x="1106" y="-364"/>
      <point x="1307" y="-231"/>
      <point x="1398" y="-133" type="curve"/>
      <point x="1367" y="-74" type="line"/>
      <point x="1291" y="-138"/>
      <point x="1091" y="-238"/>
      <point x="872" y="-238" type="curve" smooth="yes"/>
      <point x="528" y="-238"/>
      <point x="229" y="33"/>
      <point x="229" y="496" type="curve" smooth="yes"/>
      <point x="229" y="837"/>
      <point x="463" y="1142"/>
      <point x="849" y="1142" type="curve" smooth="yes"/>
      <point x="1171" y="1142"/>
      <point x="1396" y="911"/>
      <point x="1396" y="484" type="curve" smooth="yes"/>
      <point x="1396" y="272"/>
      <point x="1286" y="115"/>
      <point x="1223" y="115" type="curve" smooth="yes"/>
      <point x="1164" y="115"/>
      <point x="1129" y="166"/>
      <point x="1129" y="270" type="curve" smooth="yes"/>
      <point x="1129" y="678" type="line" smooth="yes"/>
      <point x="1129" y="783"/>
      <point x="1157" y="880"/>
      <point x="1157" y="880" type="curve"/>
      <point x="1128" y="908" type="line"/>
      <point x="1088" y="869"/>
      <point x="1052" y="842"/>
      <point x="1009" y="821" type="curve"/>
      <point x="944" y="895"/>
      <point x="909" y="908"/>
      <point x="851" y="908" type="curve" smooth="yes"/>
      <point x="601" y="908"/>
      <point x="444" y="641"/>
      <point x="444" y="418" type="curve" smooth="yes"/>
      <point x="444" y="132"/>
      <point x="594" y="-28"/>
      <point x="722" y="-28" type="curve" smooth="yes"/>
      <point x="823" y="-28"/>
      <point x="868" y="8"/>
      <point x="971" y="146" type="curve"/>
      <point x="991" y="18"/>
      <point x="1043" y="-28"/>
      <point x="1108" y="-28" type="curve" smooth="yes"/>
      <point x="1285" y="-28"/>
      <point x="1528" y="198"/>
    </contour>
    <contour>
      <point x="966" y="243" type="line"/>
      <point x="878" y="136"/>
      <point x="845" y="109"/>
      <point x="796" y="109" type="curve" smooth="yes"/>
      <point x="713" y="109"/>
      <point x="607" y="233"/>
      <point x="607" y="447" type="curve" smooth="yes"/>
      <point x="607" y="684"/>
      <point x="694" y="798"/>
      <point x="826" y="798" type="curve" smooth="yes"/>
      <point x="898" y="798"/>
      <point x="933" y="758"/>
      <point x="966" y="692" type="curve"/>
    </contour>
  </outline>
</glyph>
<glyph name="J" format="2">
  <advance width="605"/>
  <unicode hex="004A"/>
  <outline>
    <contour>
      <point x="541" y="1144" type="curve"/>
      <point x="541" y="1192" type="line"/>
      <point x="50" y="1192" type="line"/>
      <point x="50" y="1144" type="line"/>
      <point x="201" y="1122"/>
      <point x="233" y="1100"/>
      <point x="233" y="1085" type="curve" smooth="yes"/>
      <point x="233" y="120" type="line" smooth="yes"/>
      <point x="233" y="-176"/>
      <point x="148" y="-241"/>
      <point x="81" y="-241" type="curve" smooth="yes"/>
      <point x="33" y="-241"/>
      <point x="-6" y="-230"/>
      <point x="-76" y="-180" type="curve"/>
      <point x="-111" y="-193"/>
      <point x="-197" y="-266"/>
      <point x="-197" y="-289" type="curve" smooth="yes"/>
      <point x="-197" y="-312"/>
      <point x="-109" y="-368"/>
      <point x="-24" y="-368" type="curve" smooth="yes"/>
      <point x="35" y="-368"/>
      <point x="141" y="-333"/>
      <point x="209" y="-278" type="curve" smooth="yes"/>
      <point x="308" y="-198"/>
      <point x="406" y="-105"/>
      <point x="406" y="188" type="curve" smooth="yes"/>
      <point x="406" y="1085" type="line" smooth="yes"/>
      <point x="406" y="1103"/>
      <point x="456" y="1126"/>
    </contour>
  </outline>
</glyph>
<glyph name="L" format="2">
  <advance width="938"/>
  <unicode hex="004C"/>
  <outline>
    <contour>
      <point x="911" y="245" type="curve"/>
      <point x="894" y="252"/>
      <point x="879" y="257"/>
      <point x="863" y="264" type="curve"/>
      <point x="809" y="116"/>
      <point x="774" y="92"/>
      <point x="657" y="92" type="curve" smooth="yes"/>
      <point x="529" y="92" type="line" smooth="yes"/>
      <point x="391" y="92"/>
      <point x="353" y="117"/>
      <point x="353" y="162" type="curve" smooth="yes"/>
      <point x="353" y="1085" type="line" smooth="yes"/>
      <point x="353" y="1103"/>
      <point x="404" y="1126"/>
      <point x="489" y="1144" type="curve"/>
      <point x="489" y="1192" type="line"/>
      <point x="45" y="1192" type="line"/>
      <point x="45" y="1144" type="line"/>
      <point x="136" y="1126"/>
      <point x="181" y="1100"/>
      <point x="181" y="1085" type="curve" smooth="yes"/>
      <point x="181" y="105" type="line" smooth="yes"/>
      <point x="181" y="88"/>
      <point x="131" y="64"/>
      <point x="45" y="47" type="curve"/>
      <point x="45" y="0" type="line"/>
      <point x="872" y="0" type="line"/>
      <point x="881" y="37"/>
      <point x="901" y="136"/>
    </contour>
  </outline>
</glyph>
<glyph name="Q" format="2">
  <advance width="1173"/>
  <unicode hex="0051"/>
  <outline>
    <contour>
      <point x="1244" y="-113" type="curve"/>
      <point x="1214" y="-72" type="line"/>
      <point x="1139" y="-128"/>
      <point x="1107" y="-144"/>
      <point x="1076" y="-144" type="curve" smooth="yes"/>
      <point x="979" y="-144"/>
      <point x="861" y="-43"/>
      <point x="739" y="14" type="curve"/>
      <point x="941" y="109"/>
      <point x="1090" y="347"/>
      <point x="1090" y="612" type="curve" smooth="yes"/>
      <point x="1090" y="920"/>
      <point x="921" y="1220"/>
      <point x="604" y="1220" type="curve" smooth="yes"/>
      <point x="298" y="1220"/>
      <point x="62" y="922"/>
      <point x="62" y="579" type="curve" smooth="yes"/>
      <point x="62" y="249"/>
      <point x="263" y="-28"/>
      <point x="550" y="-28" type="curve" smooth="yes"/>
      <point x="564" y="-28"/>
      <point x="580" y="-27"/>
      <point x="595" y="-26" type="curve"/>
      <point x="753" y="-114"/>
      <point x="909" y="-294"/>
      <point x="1070" y="-294" type="curve" smooth="yes"/>
      <point x="1109" y="-294"/>
      <point x="1185" y="-222"/>
    </contour>
    <contour>
      <point x="921" y="595" type="curve" smooth="yes"/>
      <point x="921" y="261"/>
      <point x="779" y="88"/>
      <point x="580" y="88" type="curve" smooth="yes"/>
      <point x="391" y="88"/>
      <point x="232" y="324"/>
      <point x="232" y="606" type="curve" smooth="yes"/>
      <point x="232" y="915"/>
      <point x="357" y="1108"/>
      <point x="571" y="1108" type="curve" smooth="yes"/>
      <point x="781" y="1108"/>
      <point x="921" y="856"/>
    </contour>
  </outline>
</glyph>
<glyph name="R" format="2">
  <advance width="1108"/>
  <unicode hex="0052"/>
  <outline>
    <contour>
      <point x="489" y="0" type="line"/>
      <point x="489" y="47" type="line"/>
      <point x="397" y="64"/>
      <point x="353" y="90"/>
      <point x="353" y="105" type="curve" smooth="yes"/>
      <point x="353" y="574" type="line"/>
      <point x="388" y="567"/>
      <point x="422" y="564"/>
      <point x="454" y="564" type="curve" smooth="yes"/>
      <point x="469" y="564"/>
      <point x="485" y="565"/>
      <point x="501" y="566" type="curve"/>
      <point x="783" y="39" type="line"/>
      <point x="800" y="10"/>
      <point x="840" y="-13"/>
      <point x="876" y="-13" type="curve" smooth="yes"/>
      <point x="925" y="-13"/>
      <point x="1018" y="11"/>
      <point x="1102" y="38" type="curve"/>
      <point x="1098" y="55"/>
      <point x="1094" y="70"/>
      <point x="1091" y="86" type="curve"/>
      <point x="1074" y="84"/>
      <point x="1059" y="83"/>
      <point x="1046" y="83" type="curve" smooth="yes"/>
      <point x="989" y="83"/>
      <point x="955" y="98"/>
      <point x="925" y="142" type="curve"/>
      <point x="635" y="589" type="line"/>
      <point x="792" y="639"/>
      <point x="901" y="755"/>
      <point x="901" y="934" type="curve" smooth="yes"/>
      <point x="901" y="1096"/>
      <point x="763" y="1220"/>
      <point x="458" y="1220" type="curve" smooth="yes"/>
      <point x="287" y="1220"/>
      <point x="157" y="1193"/>
      <point x="36" y="1164" type="curve"/>
      <point x="45" y="1097" type="line"/>
      <point x="90" y="1104"/>
      <point x="135" y="1111"/>
      <point x="181" y="1116" type="curve"/>
      <point x="181" y="105" type="line" smooth="yes"/>
      <point x="181" y="88"/>
      <point x="131" y="64"/>
      <point x="45" y="47" type="curve"/>
      <point x="45" y="0" type="line"/>
    </contour>
    <contour>
      <point x="421" y="1135" type="curve" smooth="yes"/>
      <point x="644" y="1135"/>
      <point x="732" y="1037"/>
      <point x="732" y="904" type="curve" smooth="yes"/>
      <point x="732" y="741"/>
      <point x="629" y="650"/>
      <point x="438" y="650" type="curve" smooth="yes"/>
      <point x="410" y="650"/>
      <point x="388" y="651"/>
      <point x="353" y="657" type="curve"/>
      <point x="353" y="1133" type="line"/>
      <point x="376" y="1134"/>
      <point x="399" y="1135"/>
    </contour>
  </outline>
</glyph>
<glyph name="S" format="2">
  <advance width="940"/>
  <unicode hex="0053"/>
  <outline>
    <contour>
      <point x="857" y="357" type="curve" smooth="yes"/>
      <point x="857" y="730"/>
      <point x="261" y="723"/>
      <point x="261" y="961" type="curve" smooth="yes"/>
      <point x="261" y="1033"/>
      <point x="318" y="1122"/>
      <point x="454" y="1122" type="curve" smooth="yes"/>
      <point x="526" y="1122"/>
      <point x="615" y="1090"/>
      <point x="681" y="998" type="curve"/>
      <point x="722" y="993" type="line"/>
      <point x="750" y="1017"/>
      <point x="801" y="1095"/>
      <point x="801" y="1124" type="curve" smooth="yes"/>
      <point x="801" y="1128"/>
      <point x="800" y="1131"/>
      <point x="798" y="1133" type="curve" smooth="yes"/>
      <point x="752" y="1183"/>
      <point x="628" y="1220"/>
      <point x="508" y="1220" type="curve" smooth="yes"/>
      <point x="223" y="1220"/>
      <point x="116" y="1031"/>
      <point x="116" y="913" type="curve" smooth="yes"/>
      <point x="116" y="547"/>
      <point x="708" y="610"/>
      <point x="708" y="303" type="curve" smooth="yes"/>
      <point x="708" y="183"/>
      <point x="586" y="91"/>
      <point x="472" y="91" type="curve" smooth="yes"/>
      <point x="344" y="91"/>
      <point x="226" y="167"/>
      <point x="168" y="316" type="curve"/>
      <point x="122" y="320" type="line"/>
      <point x="111" y="282"/>
      <point x="107" y="221"/>
      <point x="107" y="167" type="curve" smooth="yes"/>
      <point x="107" y="114"/>
      <point x="111" y="69"/>
      <point x="120" y="64" type="curve" smooth="yes"/>
      <point x="209" y="8"/>
      <point x="339" y="-28"/>
      <point x="423" y="-28" type="curve" smooth="yes"/>
      <point x="717" y="-28"/>
      <point x="857" y="188"/>
    </contour>
  </outline>
</glyph>
<glyph name="U" format="2">
  <advance width="1274"/>
  <unicode hex="0055"/>
  <outline>
    <contour>
      <point x="1215" y="1144" type="curve"/>
      <point x="1215" y="1192" type="line"/>
      <point x="811" y="1192" type="line"/>
      <point x="811" y="1144" type="line"/>
      <point x="901" y="1126"/>
      <point x="946" y="1100"/>
      <point x="946" y="1085" type="curve" smooth="yes"/>
      <point x="946" y="460" type="line" smooth="yes"/>
      <point x="946" y="273"/>
      <point x="856" y="87"/>
      <point x="676" y="87" type="curve" smooth="yes"/>
      <point x="460" y="87"/>
      <point x="353" y="228"/>
      <point x="353" y="470" type="curve" smooth="yes"/>
      <point x="353" y="1085" type="line" smooth="yes"/>
      <point x="353" y="1103"/>
      <point x="404" y="1126"/>
      <point x="489" y="1144" type="curve"/>
      <point x="489" y="1192" type="line"/>
      <point x="45" y="1192" type="line"/>
      <point x="45" y="1144" type="line"/>
      <point x="136" y="1126"/>
      <point x="181" y="1100"/>
      <point x="181" y="1085" type="curve" smooth="yes"/>
      <point x="181" y="420" type="line" smooth="yes"/>
      <point x="181" y="113"/>
      <point x="373" y="-28"/>
      <point x="633" y="-28" type="curve" smooth="yes"/>
      <point x="905" y="-28"/>
      <point x="1079" y="165"/>
      <point x="1079" y="496" type="curve" smooth="yes"/>
      <point x="1079" y="1085" type="line" smooth="yes"/>
      <point x="1079" y="1103"/>
      <point x="1130" y="1126"/>
    </contour>
  </outline>
</glyph>
<glyph name="X" format="2">
  <advance width="1199"/>
  <unicode hex="0058"/>
  <outline>
    <contour>
      <point x="1172" y="0" type="line"/>
      <point x="1172" y="47" type="line"/>
      <point x="1098" y="57"/>
      <point x="1060" y="73"/>
      <point x="1023" y="127" type="curve" smooth="yes"/>
      <point x="909" y="295"/>
      <point x="795" y="462"/>
      <point x="680" y="629" type="curve"/>
      <point x="952" y="1064" type="line" smooth="yes"/>
      <point x="985" y="1118"/>
      <point x="1033" y="1133"/>
      <point x="1125" y="1144" type="curve"/>
      <point x="1125" y="1192" type="line"/>
      <point x="697" y="1192" type="line"/>
      <point x="697" y="1144" type="line"/>
      <point x="783" y="1137"/>
      <point x="826" y="1128"/>
      <point x="826" y="1098" type="curve" smooth="yes"/>
      <point x="826" y="1089"/>
      <point x="822" y="1077"/>
      <point x="814" y="1064" type="curve" smooth="yes"/>
      <point x="608" y="735" type="line"/>
      <point x="384" y="1064" type="line" smooth="yes"/>
      <point x="374" y="1079"/>
      <point x="369" y="1091"/>
      <point x="369" y="1100" type="curve" smooth="yes"/>
      <point x="369" y="1126"/>
      <point x="407" y="1136"/>
      <point x="485" y="1144" type="curve"/>
      <point x="485" y="1192" type="line"/>
      <point x="37" y="1192" type="line"/>
      <point x="37" y="1144" type="line"/>
      <point x="120" y="1132"/>
      <point x="146" y="1120"/>
      <point x="184" y="1064" type="curve" smooth="yes"/>
      <point x="288" y="911"/>
      <point x="393" y="758"/>
      <point x="498" y="605" type="curve"/>
      <point x="398" y="446"/>
      <point x="300" y="285"/>
      <point x="200" y="127" type="curve" smooth="yes"/>
      <point x="168" y="75"/>
      <point x="108" y="53"/>
      <point x="27" y="47" type="curve"/>
      <point x="27" y="0" type="line"/>
      <point x="453" y="0" type="line"/>
      <point x="453" y="47" type="line"/>
      <point x="366" y="53"/>
      <point x="325" y="63"/>
      <point x="325" y="92" type="curve" smooth="yes"/>
      <point x="325" y="101"/>
      <point x="330" y="113"/>
      <point x="339" y="127" type="curve" smooth="yes"/>
      <point x="416" y="251"/>
      <point x="493" y="374"/>
      <point x="571" y="497" type="curve"/>
      <point x="655" y="374"/>
      <point x="740" y="251"/>
      <point x="824" y="127" type="curve" smooth="yes"/>
      <point x="834" y="113"/>
      <point x="839" y="101"/>
      <point x="839" y="91" type="curve" smooth="yes"/>
      <point x="839" y="66"/>
      <point x="804" y="55"/>
      <point x="725" y="47" type="curve"/>
      <point x="725" y="0" type="line"/>
    </contour>
  </outline>
</glyph>
<glyph name="Y" format="2">
  <advance width="1161"/>
  <unicode hex="0059"/>
  <outline>
    <contour>
      <point x="818" y="0" type="line"/>
      <point x="818" y="47" type="line"/>
      <point x="700" y="71"/>
      <point x="663" y="99"/>
      <point x="663" y="115" type="curve" smooth="yes"/>
      <point x="663" y="508" type="line"/>
      <point x="768" y="699"/>
      <point x="873" y="890"/>
      <point x="977" y="1081" type="curve" smooth="yes"/>
      <point x="995" y="1114"/>
      <point x="1037" y="1128"/>
      <point x="1123" y="1144" type="curve"/>
      <point x="1123" y="1192" type="line"/>
      <point x="743" y="1192" type="line"/>
      <point x="743" y="1144" type="line"/>
      <point x="821" y="1134"/>
      <point x="854" y="1121"/>
      <point x="854" y="1099" type="curve" smooth="yes"/>
      <point x="854" y="1093"/>
      <point x="852" y="1087"/>
      <point x="848" y="1081" type="curve" smooth="yes"/>
      <point x="602" y="643" type="line"/>
      <point x="514" y="824"/>
      <point x="392" y="1041"/>
      <point x="297" y="1163" type="curve" smooth="yes"/>
      <point x="277" y="1188"/>
      <point x="246" y="1201"/>
      <point x="217" y="1201" type="curve" smooth="yes"/>
      <point x="165" y="1201"/>
      <point x="74" y="1190"/>
      <point x="0" y="1180" type="curve"/>
      <point x="4" y="1132" type="line"/>
      <point x="109" y="1132"/>
      <point x="133" y="1109"/>
      <point x="157" y="1081" type="curve"/>
      <point x="245" y="961"/>
      <point x="397" y="709"/>
      <point x="490" y="506" type="curve"/>
      <point x="490" y="115" type="line" smooth="yes"/>
      <point x="490" y="97"/>
      <point x="451" y="71"/>
      <point x="337" y="47" type="curve"/>
      <point x="337" y="0" type="line"/>
    </contour>
  </outline>
</glyph>
<glyph name="bracketleft" format="2">
  <advance width="611"/>
  <unicode hex="005B"/>
  <outline>
    <contour>
      <point x="576" y="-230" type="curve"/>
      <point x="564" y="-221"/>
      <point x="553" y="-211"/>
      <point x="541" y="-201" type="curve"/>
      <point x="283" y="-201" type="line"/>
      <point x="283" y="1397" type="line"/>
      <point x="546" y="1397" type="line"/>
      <point x="554" y="1412"/>
      <point x="568" y="1456"/>
      <point x="574" y="1487" type="curve"/>
      <point x="541" y="1514" type="line"/>
      <point x="129" y="1514" type="line"/>
      <point x="129" y="-317" type="line"/>
      <point x="546" y="-317" type="line"/>
      <point x="556" y="-295"/>
      <point x="570" y="-255"/>
    </contour>
  </outline>
</glyph>
<glyph name="backslash" format="2">
  <advance width="909"/>
  <unicode hex="005C"/>
  <outline>
    <contour>
      <point x="859" y="-291" type="line"/>
      <point x="640" y="294"/>
      <point x="420" y="880"/>
      <point x="200" y="1465" type="curve"/>
      <point x="165" y="1487"/>
      <point x="122" y="1504"/>
      <point x="85" y="1514" type="curve"/>
      <point x="48" y="1491" type="line"/>
      <point x="708" y="-267" type="line"/>
      <point x="730" y="-284"/>
      <point x="795" y="-307"/>
      <point x="825" y="-317" type="curve"/>
    </contour>
  </outline>
</glyph>
<glyph name="bracketright" format="2">
  <advance width="611"/>
  <unicode hex="005D"/>
  <outline>
    <contour>
      <point x="481" y="-317" type="line"/>
      <point x="481" y="1514" type="line"/>
      <point x="62" y="1514" type="line"/>
      <point x="54" y="1493"/>
      <point x="39" y="1451"/>
      <point x="35" y="1424" type="curve"/>
      <point x="69" y="1397" type="line"/>
      <point x="327" y="1397" type="line"/>
      <point x="327" y="-201" type="line"/>
      <point x="62" y="-201" type="line"/>
      <point x="54" y="-217"/>
      <point x="41" y="-258"/>
      <point x="37" y="-288" type="curve"/>
      <point x="47" y="-298"/>
      <point x="58" y="-307"/>
      <point x="69" y="-317" type="curve"/>
    </contour>
  </outline>
</glyph>
<glyph name="asciicircum" format="2">
  <advance width="954"/>
  <unicode hex="005E"/>
  <outline>
    <contour>
      <point x="858" y="601" type="curve"/>
      <point x="525" y="1466" type="line"/>
      <point x="490" y="1449"/>
      <point x="430" y="1412"/>
      <point x="399" y="1383" type="curve"/>
      <point x="95" y="560" type="line"/>
      <point x="116" y="534" type="line"/>
      <point x="142" y="547"/>
      <point x="192" y="575"/>
      <point x="219" y="601" type="curve"/>
      <point x="455" y="1244" type="line"/>
      <point x="723" y="560" type="line"/>
      <point x="758" y="534" type="line"/>
      <point x="800" y="554"/>
      <point x="827" y="571"/>
    </contour>
  </outline>
</glyph>
<glyph name="underscore" format="2">
  <advance width="879"/>
  <unicode hex="005F"/>
  <outline>
    <contour>
      <point x="842" y="-148" type="curve"/>
      <point x="834" y="-140"/>
      <point x="825" y="-132"/>
      <point x="818" y="-124" type="curve"/>
      <point x="68" y="-124" type="line"/>
      <point x="57" y="-149"/>
      <point x="41" y="-187"/>
      <point x="35" y="-213" type="curve"/>
      <point x="60" y="-239" type="line"/>
      <point x="811" y="-239" type="line"/>
      <point x="821" y="-216"/>
      <point x="836" y="-175"/>
    </contour>
  </outline>
</glyph>
<glyph name="grave" format="2">
  <advance width="618"/>
  <unicode hex="0060"/>
  <outline>
    <contour>
      <point x="417" y="1022" type="curve"/>
      <point x="344" y="1153"/>
      <point x="269" y="1283"/>
      <point x="196" y="1414" type="curve"/>
      <point x="164" y="1411"/>
      <point x="64" y="1393"/>
      <point x="40" y="1388" type="curve"/>
      <point x="17" y="1345" type="line"/>
      <point x="130" y="1226"/>
      <point x="244" y="1108"/>
      <point x="358" y="989" type="curve"/>
      <point x="379" y="995"/>
      <point x="405" y="1010"/>
    </contour>
  </outline>
</glyph>
<glyph name="b" format="2">
  <advance width="998"/>
  <unicode hex="0062"/>
  <outline>
    <contour>
      <point x="916" y="468" type="curve" smooth="yes"/>
      <point x="916" y="742"/>
      <point x="794" y="908"/>
      <point x="618" y="908" type="curve" smooth="yes"/>
      <point x="546" y="908"/>
      <point x="418" y="846"/>
      <point x="292" y="705" type="curve"/>
      <point x="292" y="1432" type="line"/>
      <point x="292" y="1432"/>
      <point x="265" y="1457"/>
      <point x="255" y="1466" type="curve"/>
      <point x="178" y="1428"/>
      <point x="99" y="1410"/>
      <point x="8" y="1391" type="curve"/>
      <point x="8" y="1345" type="line"/>
      <point x="111" y="1333"/>
      <point x="129" y="1335"/>
      <point x="129" y="1219" type="curve" smooth="yes"/>
      <point x="129" y="91" type="line"/>
      <point x="265" y="17"/>
      <point x="397" y="-28"/>
      <point x="450" y="-28" type="curve" smooth="yes"/>
      <point x="721" y="-28"/>
      <point x="916" y="249"/>
    </contour>
    <contour>
      <point x="768" y="388" type="curve" smooth="yes"/>
      <point x="768" y="242"/>
      <point x="691" y="104"/>
      <point x="543" y="104" type="curve" smooth="yes"/>
      <point x="501" y="104"/>
      <point x="392" y="125"/>
      <point x="292" y="195" type="curve"/>
      <point x="292" y="593" type="line"/>
      <point x="394" y="730"/>
      <point x="495" y="771"/>
      <point x="539" y="771" type="curve" smooth="yes"/>
      <point x="660" y="771"/>
      <point x="768" y="639"/>
    </contour>
  </outline>
</glyph>
<glyph name="i" format="2">
  <advance width="539"/>
  <unicode hex="0069"/>
  <outline>
    <contour>
      <point x="388" y="1193" type="curve" smooth="yes"/>
      <point x="388" y="1255"/>
      <point x="353" y="1286"/>
      <point x="295" y="1286" type="curve" smooth="yes"/>
      <point x="229" y="1286"/>
      <point x="174" y="1229"/>
      <point x="174" y="1154" type="curve" smooth="yes"/>
      <point x="174" y="1093"/>
      <point x="206" y="1060"/>
      <point x="266" y="1060" type="curve" smooth="yes"/>
      <point x="336" y="1060"/>
      <point x="388" y="1118"/>
    </contour>
    <contour>
      <point x="489" y="0" type="line"/>
      <point x="489" y="47" type="line"/>
      <point x="397" y="64"/>
      <point x="358" y="90"/>
      <point x="358" y="105" type="curve" smooth="yes"/>
      <point x="358" y="908" type="line"/>
      <point x="319" y="908" type="line"/>
      <point x="250" y="877"/>
      <point x="151" y="849"/>
      <point x="64" y="834" type="curve"/>
      <point x="64" y="789" type="line"/>
      <point x="198" y="777"/>
      <point x="195" y="758"/>
      <point x="195" y="628" type="curve" smooth="yes"/>
      <point x="195" y="105" type="line" smooth="yes"/>
      <point x="195" y="88"/>
      <point x="149" y="64"/>
      <point x="64" y="47" type="curve"/>
      <point x="64" y="0" type="line"/>
    </contour>
  </outline>
</glyph>
<glyph name="j" format="2">
  <advance width="515"/>
  <unicode hex="006A"/>
  <outline>
    <contour>
      <point x="385" y="1193" type="curve" smooth="yes"/>
      <point x="385" y="1255"/>
      <point x="349" y="1286"/>
      <point x="291" y="1286" type="curve" smooth="yes"/>
      <point x="224" y="1286"/>
      <point x="170" y="1229"/>
      <point x="170" y="1154" type="curve" smooth="yes"/>
      <point x="170" y="1093"/>
      <point x="203" y="1060"/>
      <point x="263" y="1060" type="curve" smooth="yes"/>
      <point x="332" y="1060"/>
      <point x="385" y="1118"/>
    </contour>
    <contour>
      <point x="353" y="908" type="line"/>
      <point x="311" y="908" type="line"/>
      <point x="227" y="875"/>
      <point x="172" y="853"/>
      <point x="60" y="834" type="curve"/>
      <point x="60" y="789" type="line"/>
      <point x="191" y="775"/>
      <point x="190" y="758"/>
      <point x="190" y="628" type="curve" smooth="yes"/>
      <point x="190" y="41" type="line" smooth="yes"/>
      <point x="190" y="-259"/>
      <point x="117" y="-334"/>
      <point x="46" y="-334" type="curve" smooth="yes"/>
      <point x="-1" y="-334"/>
      <point x="-52" y="-322"/>
      <point x="-94" y="-283" type="curve"/>
      <point x="-130" y="-300"/>
      <point x="-224" y="-375"/>
      <point x="-224" y="-400" type="curve" smooth="yes"/>
      <point x="-224" y="-423"/>
      <point x="-134" y="-471"/>
      <point x="-51" y="-471" type="curve" smooth="yes"/>
      <point x="3" y="-471"/>
      <point x="98" y="-429"/>
      <point x="165" y="-375" type="curve" smooth="yes"/>
      <point x="266" y="-293"/>
      <point x="353" y="-195"/>
      <point x="353" y="95" type="curve" smooth="yes"/>
    </contour>
  </outline>
</glyph>
<glyph name="l" format="2">
  <advance width="539"/>
  <unicode hex="006C"/>
  <outline>
    <contour>
      <point x="498" y="0" type="line"/>
      <point x="498" y="47" type="line"/>
      <point x="395" y="64"/>
      <point x="358" y="86"/>
      <point x="358" y="105" type="curve" smooth="yes"/>
      <point x="358" y="1432" type="line"/>
      <point x="322" y="1466" type="line"/>
      <point x="239" y="1426"/>
      <point x="163" y="1409"/>
      <point x="64" y="1391" type="curve"/>
      <point x="64" y="1345" type="line"/>
      <point x="170" y="1333"/>
      <point x="195" y="1333"/>
      <point x="195" y="1219" type="curve" smooth="yes"/>
      <point x="195" y="105" type="line" smooth="yes"/>
      <point x="195" y="84"/>
      <point x="164" y="66"/>
      <point x="55" y="47" type="curve"/>
      <point x="55" y="0" type="line"/>
    </contour>
  </outline>
</glyph>
<glyph name="o" format="2">
  <advance width="985"/>
  <unicode hex="006F"/>
  <outline>
    <contour>
      <point x="913" y="459" type="curve" smooth="yes"/>
      <point x="913" y="717"/>
      <point x="754" y="908"/>
      <point x="512" y="908" type="curve" smooth="yes"/>
      <point x="266" y="908"/>
      <point x="72" y="671"/>
      <point x="72" y="420" type="curve" smooth="yes"/>
      <point x="72" y="163"/>
      <point x="231" y="-28"/>
      <point x="475" y="-28" type="curve" smooth="yes"/>
      <point x="709" y="-28"/>
      <point x="913" y="207"/>
    </contour>
    <contour>
      <point x="743" y="427" type="curve" smooth="yes"/>
      <point x="743" y="213"/>
      <point x="673" y="79"/>
      <point x="501" y="79" type="curve" smooth="yes"/>
      <point x="385" y="79"/>
      <point x="242" y="248"/>
      <point x="242" y="447" type="curve" smooth="yes"/>
      <point x="242" y="647"/>
      <point x="301" y="800"/>
      <point x="484" y="800" type="curve" smooth="yes"/>
      <point x="614" y="800"/>
      <point x="743" y="626"/>
    </contour>
  </outline>
</glyph>
<glyph name="p" format="2">
  <advance width="1040"/>
  <unicode hex="0070"/>
  <outline>
    <contour>
      <point x="968" y="467" type="curve" smooth="yes"/>
      <point x="968" y="748"/>
      <point x="837" y="908"/>
      <point x="665" y="908" type="curve" smooth="yes"/>
      <point x="593" y="908"/>
      <point x="468" y="848"/>
      <point x="338" y="703" type="curve"/>
      <point x="330" y="873" type="line"/>
      <point x="295" y="908" type="line"/>
      <point x="215" y="873"/>
      <point x="151" y="853"/>
      <point x="50" y="834" type="curve"/>
      <point x="50" y="789" type="line"/>
      <point x="170" y="783"/>
      <point x="181" y="762"/>
      <point x="181" y="667" type="curve" smooth="yes"/>
      <point x="181" y="-347" type="line" smooth="yes"/>
      <point x="181" y="-369"/>
      <point x="133" y="-386"/>
      <point x="50" y="-406" type="curve"/>
      <point x="50" y="-454" type="line"/>
      <point x="504" y="-454" type="line"/>
      <point x="504" y="-406" type="line"/>
      <point x="386" y="-388"/>
      <point x="344" y="-367"/>
      <point x="344" y="-347" type="curve" smooth="yes"/>
      <point x="344" y="89" type="line"/>
      <point x="439" y="11"/>
      <point x="531" y="-28"/>
      <point x="605" y="-28" type="curve" smooth="yes"/>
      <point x="783" y="-28"/>
      <point x="968" y="240"/>
    </contour>
    <contour>
      <point x="819" y="403" type="curve" smooth="yes"/>
      <point x="819" y="202"/>
      <point x="725" y="104"/>
      <point x="596" y="104" type="curve" smooth="yes"/>
      <point x="531" y="104"/>
      <point x="459" y="124"/>
      <point x="344" y="204" type="curve"/>
      <point x="344" y="593" type="line"/>
      <point x="455" y="738"/>
      <point x="544" y="779"/>
      <point x="589" y="779" type="curve" smooth="yes"/>
      <point x="708" y="779"/>
      <point x="819" y="629"/>
    </contour>
  </outline>
</glyph>
<glyph name="q" format="2">
  <advance width="1014"/>
  <unicode hex="0071"/>
  <outline>
    <contour>
      <point x="996" y="-454" type="line"/>
      <point x="996" y="-406" type="line"/>
      <point x="899" y="-388"/>
      <point x="866" y="-367"/>
      <point x="866" y="-347" type="curve" smooth="yes"/>
      <point x="866" y="673" type="line" smooth="yes"/>
      <point x="866" y="787"/>
      <point x="895" y="878"/>
      <point x="895" y="878" type="curve"/>
      <point x="864" y="908" type="line"/>
      <point x="841" y="885"/>
      <point x="786" y="842"/>
      <point x="743" y="816" type="curve"/>
      <point x="656" y="895"/>
      <point x="590" y="908"/>
      <point x="521" y="908" type="curve" smooth="yes"/>
      <point x="466" y="908"/>
      <point x="384" y="882"/>
      <point x="313" y="841" type="curve" smooth="yes"/>
      <point x="224" y="789"/>
      <point x="72" y="641"/>
      <point x="72" y="420" type="curve" smooth="yes"/>
      <point x="72" y="139"/>
      <point x="250" y="-28"/>
      <point x="392" y="-28" type="curve" smooth="yes"/>
      <point x="518" y="-28"/>
      <point x="603" y="36"/>
      <point x="703" y="151" type="curve"/>
      <point x="703" y="-347" type="line" smooth="yes"/>
      <point x="703" y="-369"/>
      <point x="660" y="-388"/>
      <point x="542" y="-406" type="curve"/>
      <point x="542" y="-454" type="line"/>
    </contour>
    <contour>
      <point x="470" y="109" type="curve" smooth="yes"/>
      <point x="366" y="109"/>
      <point x="235" y="241"/>
      <point x="235" y="456" type="curve" smooth="yes"/>
      <point x="235" y="688"/>
      <point x="357" y="798"/>
      <point x="494" y="798" type="curve" smooth="yes"/>
      <point x="579" y="798"/>
      <point x="661" y="755"/>
      <point x="703" y="683" type="curve"/>
      <point x="703" y="249" type="line"/>
      <point x="626" y="175"/>
      <point x="551" y="109"/>
    </contour>
  </outline>
</glyph>
<glyph name="s" format="2">
  <advance width="764"/>
  <unicode hex="0073"/>
  <outline>
    <contour>
      <point x="681" y="268" type="curve" smooth="yes"/>
      <point x="681" y="534"/>
      <point x="239" y="542"/>
      <point x="239" y="711" type="curve" smooth="yes"/>
      <point x="239" y="763"/>
      <point x="287" y="819"/>
      <point x="369" y="819" type="curve" smooth="yes"/>
      <point x="435" y="819"/>
      <point x="502" y="780"/>
      <point x="554" y="685" type="curve"/>
      <point x="598" y="678" type="line"/>
      <point x="615" y="698"/>
      <point x="650" y="788"/>
      <point x="650" y="823" type="curve" smooth="yes"/>
      <point x="650" y="829"/>
      <point x="649" y="833"/>
      <point x="647" y="835" type="curve" smooth="yes"/>
      <point x="595" y="880"/>
      <point x="476" y="908"/>
      <point x="390" y="908" type="curve" smooth="yes"/>
      <point x="239" y="908"/>
      <point x="95" y="817"/>
      <point x="95" y="660" type="curve" smooth="yes"/>
      <point x="95" y="411"/>
      <point x="536" y="405"/>
      <point x="536" y="209" type="curve" smooth="yes"/>
      <point x="536" y="124"/>
      <point x="478" y="72"/>
      <point x="387" y="72" type="curve" smooth="yes"/>
      <point x="262" y="72"/>
      <point x="163" y="157"/>
      <point x="152" y="269" type="curve"/>
      <point x="103" y="280" type="line"/>
      <point x="92" y="243"/>
      <point x="86" y="175"/>
      <point x="86" y="120" type="curve" smooth="yes"/>
      <point x="86" y="78"/>
      <point x="89" y="44"/>
      <point x="97" y="41" type="curve"/>
      <point x="181" y="-6"/>
      <point x="278" y="-28"/>
      <point x="343" y="-28" type="curve" smooth="yes"/>
      <point x="426" y="-28"/>
      <point x="681" y="0"/>
    </contour>
  </outline>
</glyph>
<glyph name="v" format="2">
  <advance width="962"/>
  <unicode hex="0076"/>
  <outline>
    <contour>
      <point x="945" y="832" type="curve"/>
      <point x="945" y="880" type="line"/>
      <point x="639" y="880" type="line"/>
      <point x="639" y="832" type="line"/>
      <point x="711" y="820"/>
      <point x="735" y="810"/>
      <point x="735" y="787" type="curve" smooth="yes"/>
      <point x="735" y="781"/>
      <point x="734" y="775"/>
      <point x="731" y="767" type="curve" smooth="yes"/>
      <point x="520" y="193" type="line"/>
      <point x="295" y="767" type="line" smooth="yes"/>
      <point x="292" y="775"/>
      <point x="290" y="781"/>
      <point x="290" y="787" type="curve" smooth="yes"/>
      <point x="290" y="812"/>
      <point x="320" y="821"/>
      <point x="398" y="832" type="curve"/>
      <point x="398" y="880" type="line"/>
      <point x="17" y="880" type="line"/>
      <point x="17" y="832" type="line"/>
      <point x="79" y="817"/>
      <point x="108" y="802"/>
      <point x="120" y="767" type="curve"/>
      <point x="438" y="-28" type="line"/>
      <point x="478" y="-19"/>
      <point x="552" y="6"/>
      <point x="574" y="61" type="curve"/>
      <point x="842" y="767" type="line" smooth="yes"/>
      <point x="856" y="804"/>
      <point x="869" y="814"/>
    </contour>
  </outline>
</glyph>
<glyph name="z" format="2">
  <advance width="860"/>
  <unicode hex="007A"/>
  <outline>
    <contour>
      <point x="796" y="254" type="curve"/>
      <point x="746" y="265" type="line"/>
      <point x="717" y="145"/>
      <point x="692" y="92"/>
      <point x="658" y="92" type="curve" smooth="yes"/>
      <point x="277" y="92" type="line"/>
      <point x="798" y="839" type="line"/>
      <point x="777" y="880" type="line"/>
      <point x="296" y="880" type="line" smooth="yes"/>
      <point x="215" y="880"/>
      <point x="184" y="880"/>
      <point x="130" y="895" type="curve"/>
      <point x="111" y="645" type="line"/>
      <point x="162" y="631" type="line"/>
      <point x="190" y="753"/>
      <point x="235" y="787"/>
      <point x="280" y="787" type="curve" smooth="yes"/>
      <point x="587" y="787" type="line"/>
      <point x="68" y="43" type="line"/>
      <point x="93" y="0" type="line"/>
      <point x="785" y="0" type="line"/>
      <point x="792" y="44"/>
      <point x="796" y="175"/>
    </contour>
  </outline>
</glyph>
<glyph name="braceleft" format="2">
  <advance width="658"/>
  <unicode hex="007B"/>
  <outline>
    <contour>
      <point x="624" y="1462" type="curve"/>
      <point x="596" y="1514" type="line"/>
      <point x="402" y="1428"/>
      <point x="274" y="1304"/>
      <point x="274" y="1133" type="curve" smooth="yes"/>
      <point x="274" y="982"/>
      <point x="312" y="966"/>
      <point x="312" y="816" type="curve" smooth="yes"/>
      <point x="312" y="722"/>
      <point x="238" y="641"/>
      <point x="93" y="602" type="curve"/>
      <point x="109" y="545" type="line"/>
      <point x="146" y="551"/>
      <point x="135" y="551"/>
      <point x="170" y="551" type="curve" smooth="yes"/>
      <point x="260" y="551"/>
      <point x="312" y="501"/>
      <point x="312" y="399" type="curve" smooth="yes"/>
      <point x="312" y="245"/>
      <point x="274" y="209"/>
      <point x="274" y="64" type="curve" smooth="yes"/>
      <point x="274" y="-117"/>
      <point x="373" y="-213"/>
      <point x="589" y="-298" type="curve"/>
      <point x="598" y="-276"/>
      <point x="606" y="-254"/>
      <point x="615" y="-233" type="curve"/>
      <point x="481" y="-159"/>
      <point x="452" y="-93"/>
      <point x="452" y="37" type="curve" smooth="yes"/>
      <point x="452" y="159"/>
      <point x="491" y="216"/>
      <point x="491" y="364" type="curve" smooth="yes"/>
      <point x="491" y="503"/>
      <point x="443" y="595"/>
      <point x="317" y="618" type="curve"/>
      <point x="423" y="664"/>
      <point x="491" y="768"/>
      <point x="491" y="873" type="curve" smooth="yes"/>
      <point x="491" y="1016"/>
      <point x="452" y="1044"/>
      <point x="452" y="1187" type="curve" smooth="yes"/>
      <point x="452" y="1309"/>
      <point x="526" y="1400"/>
    </contour>
  </outline>
</glyph>
<glyph name="bar" format="2">
  <advance width="451"/>
  <unicode hex="007C"/>
  <outline>
    <contour>
      <point x="306" y="-355" type="curve"/>
      <point x="306" y="1557" type="line"/>
      <point x="271" y="1580" type="line"/>
      <point x="234" y="1570"/>
      <point x="202" y="1552"/>
      <point x="167" y="1532" type="curve"/>
      <point x="167" y="-382" type="line"/>
      <point x="201" y="-405" type="line"/>
      <point x="233" y="-395"/>
      <point x="283" y="-375"/>
    </contour>
  </outline>
</glyph>
<glyph name="braceright" format="2">
  <advance width="658"/>
  <unicode hex="007D"/>
  <outline>
    <contour>
      <point x="566" y="612" type="curve"/>
      <point x="561" y="632"/>
      <point x="555" y="651"/>
      <point x="550" y="672" type="curve"/>
      <point x="524" y="666"/>
      <point x="520" y="665"/>
      <point x="510" y="665" type="curve" smooth="yes"/>
      <point x="406" y="665"/>
      <point x="346" y="702"/>
      <point x="346" y="817" type="curve" smooth="yes"/>
      <point x="346" y="970"/>
      <point x="384" y="1007"/>
      <point x="384" y="1152" type="curve" smooth="yes"/>
      <point x="384" y="1333"/>
      <point x="286" y="1429"/>
      <point x="68" y="1514" type="curve"/>
      <point x="59" y="1492"/>
      <point x="51" y="1470"/>
      <point x="43" y="1448" type="curve"/>
      <point x="175" y="1376"/>
      <point x="205" y="1311"/>
      <point x="205" y="1178" type="curve" smooth="yes"/>
      <point x="205" y="1057"/>
      <point x="168" y="999"/>
      <point x="168" y="852" type="curve" smooth="yes"/>
      <point x="168" y="712"/>
      <point x="215" y="622"/>
      <point x="342" y="597" type="curve"/>
      <point x="235" y="551"/>
      <point x="168" y="448"/>
      <point x="168" y="344" type="curve" smooth="yes"/>
      <point x="168" y="199"/>
      <point x="205" y="171"/>
      <point x="205" y="28" type="curve" smooth="yes"/>
      <point x="205" y="-93"/>
      <point x="132" y="-184"/>
      <point x="33" y="-245" type="curve"/>
      <point x="62" y="-298" type="line"/>
      <point x="255" y="-213"/>
      <point x="384" y="-87"/>
      <point x="384" y="82" type="curve" smooth="yes"/>
      <point x="384" y="234"/>
      <point x="346" y="249"/>
      <point x="346" y="399" type="curve" smooth="yes"/>
      <point x="346" y="495"/>
      <point x="419" y="573"/>
    </contour>
  </outline>
</glyph>
<glyph name="asciitilde" format="2">
  <advance width="945"/>
  <unicode hex="007E"/>
  <outline>
    <contour>
      <point x="899" y="732" type="curve"/>
      <point x="849" y="756" type="line"/>
      <point x="797" y="653"/>
      <point x="742" y="604"/>
      <point x="682" y="604" type="curve" smooth="yes"/>
      <point x="581" y="604"/>
      <point x="449" y="756"/>
      <point x="333" y="756" type="curve" smooth="yes"/>
      <point x="213" y="756"/>
      <point x="100" y="599"/>
      <point x="46" y="475" type="curve"/>
      <point x="96" y="449" type="line"/>
      <point x="149" y="554"/>
      <point x="200" y="603"/>
      <point x="261" y="603" type="curve" smooth="yes"/>
      <point x="370" y="603"/>
      <point x="506" y="451"/>
      <point x="612" y="451" type="curve" smooth="yes"/>
      <point x="732" y="451"/>
      <point x="847" y="608"/>
    </contour>
  </outline>
</glyph>
<glyph name="copyright" format="2">
  <advance width="1390"/>
  <unicode hex="00A9"/>
  <outline>
    <contour>
      <point x="1299" y="605" type="curve" smooth="yes"/>
      <point x="1299" y="953"/>
      <point x="1043" y="1236"/>
      <point x="693" y="1236" type="curve" smooth="yes"/>
      <point x="345" y="1236"/>
      <point x="91" y="953"/>
      <point x="91" y="605" type="curve" smooth="yes"/>
      <point x="91" y="255"/>
      <point x="345" y="-28"/>
      <point x="693" y="-28" type="curve" smooth="yes"/>
      <point x="1043" y="-28"/>
      <point x="1299" y="255"/>
    </contour>
    <contour>
      <point x="1209" y="605" type="curve" smooth="yes"/>
      <point x="1209" y="304"/>
      <point x="994" y="61"/>
      <point x="693" y="61" type="curve" smooth="yes"/>
      <point x="395" y="61"/>
      <point x="180" y="304"/>
      <point x="180" y="605" type="curve" smooth="yes"/>
      <point x="180" y="903"/>
      <point x="395" y="1147"/>
      <point x="693" y="1147" type="curve" smooth="yes"/>
      <point x="994" y="1147"/>
      <point x="1209" y="903"/>
    </contour>
    <contour>
      <point x="975" y="358" type="curve"/>
      <point x="969" y="362"/>
      <point x="953" y="388"/>
      <point x="945" y="391" type="curve"/>
      <point x="846" y="319"/>
      <point x="799" y="304"/>
      <point x="743" y="304" type="curve" smooth="yes"/>
      <point x="636" y="304"/>
      <point x="479" y="408"/>
      <point x="479" y="602" type="curve" smooth="yes"/>
      <point x="479" y="841"/>
      <point x="613" y="917"/>
      <point x="700" y="917" type="curve" smooth="yes"/>
      <point x="780" y="917"/>
      <point x="830" y="868"/>
      <point x="871" y="821" type="curve"/>
      <point x="900" y="817" type="line"/>
      <point x="920" y="835"/>
      <point x="964" y="912"/>
      <point x="964" y="932" type="curve" smooth="yes"/>
      <point x="964" y="934"/>
      <point x="963" y="935"/>
      <point x="963" y="936" type="curve"/>
      <point x="917" y="970"/>
      <point x="840" y="999"/>
      <point x="748" y="999" type="curve" smooth="yes"/>
      <point x="522" y="999"/>
      <point x="339" y="827"/>
      <point x="339" y="578" type="curve" smooth="yes"/>
      <point x="339" y="347"/>
      <point x="506" y="209"/>
      <point x="672" y="209" type="curve" smooth="yes"/>
      <point x="766" y="209"/>
      <point x="856" y="241"/>
    </contour>
  </outline>
</glyph>
<glyph name="micro" format="2">
  <advance width="1059"/>
  <unicode hex="00B5"/>
  <outline>
    <contour>
      <point x="1031" y="130" type="curve"/>
      <point x="989" y="113"/>
      <point x="960" y="104"/>
      <point x="932" y="104" type="curve" smooth="yes"/>
      <point x="907" y="104"/>
      <point x="896" y="142"/>
      <point x="896" y="260" type="curve" smooth="yes"/>
      <point x="896" y="718" type="line"/>
      <point x="897" y="797"/>
      <point x="906" y="837"/>
      <point x="911" y="869" type="curve"/>
      <point x="882" y="908" type="line"/>
      <point x="826" y="886"/>
      <point x="755" y="866"/>
      <point x="696" y="851" type="curve"/>
      <point x="713" y="828"/>
      <point x="732" y="748"/>
      <point x="732" y="708" type="curve" smooth="yes"/>
      <point x="732" y="275" type="line"/>
      <point x="635" y="149"/>
      <point x="566" y="133"/>
      <point x="504" y="133" type="curve" smooth="yes"/>
      <point x="409" y="133"/>
      <point x="337" y="256"/>
      <point x="337" y="349" type="curve" smooth="yes"/>
      <point x="337" y="866" type="line"/>
      <point x="327" y="879"/>
      <point x="301" y="908"/>
      <point x="300" y="908" type="curve" smooth="yes"/>
      <point x="226" y="874"/>
      <point x="156" y="861"/>
      <point x="54" y="846" type="curve"/>
      <point x="54" y="800" type="line"/>
      <point x="173" y="788"/>
      <point x="174" y="780"/>
      <point x="174" y="683" type="curve" smooth="yes"/>
      <point x="174" y="-444" type="line"/>
      <point x="213" y="-473" type="line"/>
      <point x="243" y="-458"/>
      <point x="364" y="-411"/>
      <point x="401" y="-398" type="curve"/>
      <point x="331" y="-318"/>
      <point x="264" y="-166"/>
      <point x="264" y="102" type="curve" smooth="yes"/>
      <point x="264" y="109" type="line"/>
      <point x="264" y="110"/>
      <point x="264" y="110"/>
      <point x="264" y="110" type="curve"/>
      <point x="321" y="23"/>
      <point x="397" y="-29"/>
      <point x="465" y="-29" type="curve" smooth="yes"/>
      <point x="539" y="-29"/>
      <point x="633" y="35"/>
      <point x="733" y="165" type="curve"/>
      <point x="738" y="59"/>
      <point x="764" y="-29"/>
      <point x="819" y="-29" type="curve" smooth="yes"/>
      <point x="868" y="-29"/>
      <point x="969" y="32"/>
      <point x="1044" y="81" type="curve"/>
      <point x="1039" y="97"/>
      <point x="1035" y="114"/>
    </contour>
  </outline>
</glyph>
<glyph name="Agrave" format="2">
  <advance width="1169"/>
  <unicode hex="00C0"/>
  <outline>
    <contour>
      <point x="746" y="417" type="line"/>
      <point x="781" y="315"/>
      <point x="815" y="213"/>
      <point x="851" y="111" type="curve" smooth="yes"/>
      <point x="853" y="105"/>
      <point x="854" y="100"/>
      <point x="854" y="95" type="curve" smooth="yes"/>
      <point x="854" y="65"/>
      <point x="816" y="52"/>
      <point x="732" y="47" type="curve"/>
      <point x="732" y="0" type="line"/>
      <point x="1149" y="0" type="line"/>
      <point x="1149" y="47" type="line"/>
      <point x="1068" y="57"/>
      <point x="1039" y="76"/>
      <point x="1027" y="111" type="curve" smooth="yes"/>
      <point x="630" y="1246" type="line"/>
      <point x="588" y="1228"/>
      <point x="531" y="1199"/>
      <point x="494" y="1163" type="curve"/>
      <point x="378" y="812"/>
      <point x="264" y="462"/>
      <point x="148" y="111" type="curve" smooth="yes"/>
      <point x="136" y="74"/>
      <point x="84" y="62"/>
      <point x="0" y="47" type="curve"/>
      <point x="0" y="0" type="line"/>
      <point x="398" y="0" type="line"/>
      <point x="398" y="47" type="line"/>
      <point x="306" y="57"/>
      <point x="259" y="70"/>
      <point x="259" y="100" type="curve" smooth="yes"/>
      <point x="259" y="103"/>
      <point x="260" y="107"/>
      <point x="261" y="111" type="curve" smooth="yes"/>
      <point x="363" y="417" type="line"/>
    </contour>
    <contour>
      <point x="393" y="509" type="line"/>
      <point x="551" y="984" type="line"/>
      <point x="714" y="509" type="line"/>
    </contour>
    <contour>
      <point x="746" y="1338" type="curve"/>
      <point x="626" y="1440"/>
      <point x="505" y="1542"/>
      <point x="385" y="1645" type="curve"/>
      <point x="357" y="1630"/>
      <point x="280" y="1586"/>
      <point x="261" y="1566" type="curve"/>
      <point x="254" y="1520" type="line"/>
      <point x="403" y="1443"/>
      <point x="551" y="1368"/>
      <point x="699" y="1292" type="curve"/>
      <point x="720" y="1301"/>
      <point x="728" y="1314"/>
    </contour>
  </outline>
</glyph>
<glyph name="Aacute" format="2">
  <advance width="1169"/>
  <unicode hex="00C1"/>
  <outline>
    <contour>
      <point x="746" y="417" type="line"/>
      <point x="781" y="315"/>
      <point x="815" y="213"/>
      <point x="851" y="111" type="curve" smooth="yes"/>
      <point x="853" y="105"/>
      <point x="854" y="100"/>
      <point x="854" y="95" type="curve" smooth="yes"/>
      <point x="854" y="65"/>
      <point x="816" y="52"/>
      <point x="732" y="47" type="curve"/>
      <point x="732" y="0" type="line"/>
      <point x="1149" y="0" type="line"/>
      <point x="1149" y="47" type="line"/>
      <point x="1068" y="57"/>
      <point x="1039" y="76"/>
      <point x="1027" y="111" type="curve" smooth="yes"/>
      <point x="630" y="1246" type="line"/>
      <point x="588" y="1228"/>
      <point x="531" y="1199"/>
      <point x="494" y="1163" type="curve"/>
      <point x="378" y="812"/>
      <point x="264" y="462"/>
      <point x="148" y="111" type="curve" smooth="yes"/>
      <point x="136" y="74"/>
      <point x="84" y="62"/>
      <point x="0" y="47" type="curve"/>
      <point x="0" y="0" type="line"/>
      <point x="398" y="0" type="line"/>
      <point x="398" y="47" type="line"/>
      <point x="306" y="57"/>
      <point x="259" y="70"/>
      <point x="259" y="100" type="curve" smooth="yes"/>
      <point x="259" y="103"/>
      <point x="260" y="107"/>
      <point x="261" y="111" type="curve" smooth="yes"/>
      <point x="363" y="417" type="line"/>
    </contour>
    <contour>
      <point x="393" y="509" type="line"/>
      <point x="551" y="984" type="line"/>
      <point x="714" y="509" type="line"/>
    </contour>
    <contour>
      <point x="897" y="1521" type="curve"/>
      <point x="888" y="1566" type="line"/>
      <point x="869" y="1586"/>
      <point x="797" y="1625"/>
      <point x="763" y="1645" type="curve"/>
      <point x="401" y="1339" type="line"/>
      <point x="418" y="1315"/>
      <point x="428" y="1301"/>
      <point x="449" y="1292" type="curve"/>
      <point x="599" y="1368"/>
      <point x="748" y="1445"/>
    </contour>
  </outline>
</glyph>
<glyph name="Atilde" format="2">
  <advance width="1169"/>
  <unicode hex="00C3"/>
  <outline>
    <contour>
      <point x="746" y="417" type="line"/>
      <point x="781" y="315"/>
      <point x="815" y="213"/>
      <point x="851" y="111" type="curve" smooth="yes"/>
      <point x="853" y="105"/>
      <point x="854" y="100"/>
      <point x="854" y="95" type="curve" smooth="yes"/>
      <point x="854" y="65"/>
      <point x="816" y="52"/>
      <point x="732" y="47" type="curve"/>
      <point x="732" y="0" type="line"/>
      <point x="1149" y="0" type="line"/>
      <point x="1149" y="47" type="line"/>
      <point x="1068" y="57"/>
      <point x="1039" y="76"/>
      <point x="1027" y="111" type="curve" smooth="yes"/>
      <point x="630" y="1246" type="line"/>
      <point x="588" y="1228"/>
      <point x="531" y="1199"/>
      <point x="494" y="1163" type="curve"/>
      <point x="378" y="812"/>
      <point x="264" y="462"/>
      <point x="148" y="111" type="curve" smooth="yes"/>
      <point x="136" y="74"/>
      <point x="84" y="62"/>
      <point x="0" y="47" type="curve"/>
      <point x="0" y="0" type="line"/>
      <point x="398" y="0" type="line"/>
      <point x="398" y="47" type="line"/>
      <point x="306" y="57"/>
      <point x="259" y="70"/>
      <point x="259" y="100" type="curve" smooth="yes"/>
      <point x="259" y="103"/>
      <point x="260" y="107"/>
      <point x="261" y="111" type="curve" smooth="yes"/>
      <point x="363" y="417" type="line"/>
    </contour>
    <contour>
      <point x="393" y="509" type="line"/>
      <point x="551" y="984" type="line"/>
      <point x="714" y="509" type="line"/>
    </contour>
    <contour>
      <point x="910" y="1545" type="curve"/>
      <point x="891" y="1553"/>
      <point x="872" y="1562"/>
      <point x="853" y="1569" type="curve"/>
      <point x="811" y="1495"/>
      <point x="766" y="1454"/>
      <point x="716" y="1454" type="curve" smooth="yes"/>
      <point x="651" y="1454"/>
      <point x="572" y="1560"/>
      <point x="471" y="1560" type="curve" smooth="yes"/>
      <point x="368" y="1560"/>
      <point x="284" y="1435"/>
      <point x="240" y="1332" type="curve"/>
      <point x="259" y="1325"/>
      <point x="276" y="1318"/>
      <point x="295" y="1312" type="curve"/>
      <point x="342" y="1382"/>
      <point x="379" y="1425"/>
      <point x="431" y="1425" type="curve" smooth="yes"/>
      <point x="510" y="1425"/>
      <point x="585" y="1320"/>
      <point x="677" y="1320" type="curve" smooth="yes"/>
      <point x="780" y="1320"/>
      <point x="865" y="1443"/>
    </contour>
  </outline>
</glyph>
<glyph name="Aring" format="2">
  <advance width="1169"/>
  <unicode hex="00C5"/>
  <outline>
    <contour>
      <point x="746" y="417" type="line"/>
      <point x="781" y="315"/>
      <point x="815" y="213"/>
      <point x="851" y="111" type="curve" smooth="yes"/>
      <point x="853" y="105"/>
      <point x="854" y="100"/>
      <point x="854" y="95" type="curve" smooth="yes"/>
      <point x="854" y="65"/>
      <point x="816" y="52"/>
      <point x="732" y="47" type="curve"/>
      <point x="732" y="0" type="line"/>
      <point x="1149" y="0" type="line"/>
      <point x="1149" y="47" type="line"/>
      <point x="1068" y="57"/>
      <point x="1039" y="76"/>
      <point x="1027" y="111" type="curve" smooth="yes"/>
      <point x="630" y="1246" type="line"/>
      <point x="588" y="1228"/>
      <point x="531" y="1199"/>
      <point x="494" y="1163" type="curve"/>
      <point x="378" y="812"/>
      <point x="264" y="462"/>
      <point x="148" y="111" type="curve" smooth="yes"/>
      <point x="136" y="74"/>
      <point x="84" y="62"/>
      <point x="0" y="47" type="curve"/>
      <point x="0" y="0" type="line"/>
      <point x="398" y="0" type="line"/>
      <point x="398" y="47" type="line"/>
      <point x="306" y="57"/>
      <point x="259" y="70"/>
      <point x="259" y="100" type="curve" smooth="yes"/>
      <point x="259" y="103"/>
      <point x="260" y="107"/>
      <point x="261" y="111" type="curve" smooth="yes"/>
      <point x="363" y="417" type="line"/>
    </contour>
    <contour>
      <point x="393" y="509" type="line"/>
      <point x="551" y="984" type="line"/>
      <point x="714" y="509" type="line"/>
    </contour>
    <contour>
      <point x="755" y="1518" type="curve" smooth="yes"/>
      <point x="755" y="1602"/>
      <point x="690" y="1671"/>
      <point x="603" y="1671" type="curve" smooth="yes"/>
      <point x="500" y="1671"/>
      <point x="392" y="1572"/>
      <point x="392" y="1442" type="curve" smooth="yes"/>
      <point x="392" y="1357"/>
      <point x="456" y="1291"/>
      <point x="544" y="1291" type="curve" smooth="yes"/>
      <point x="646" y="1291"/>
      <point x="755" y="1388"/>
    </contour>
    <contour>
      <point x="659" y="1479" type="curve" smooth="yes"/>
      <point x="659" y="1413"/>
      <point x="614" y="1374"/>
      <point x="564" y="1374" type="curve" smooth="yes"/>
      <point x="520" y="1374"/>
      <point x="489" y="1423"/>
      <point x="489" y="1481" type="curve" smooth="yes"/>
      <point x="489" y="1543"/>
      <point x="531" y="1588"/>
      <point x="583" y="1588" type="curve" smooth="yes"/>
      <point x="628" y="1588"/>
      <point x="659" y="1539"/>
    </contour>
  </outline>
</glyph>
<glyph name="AE" format="2">
  <advance width="1523"/>
  <unicode hex="00C6"/>
  <outline>
    <contour>
      <point x="1470" y="245" type="curve"/>
      <point x="1454" y="252"/>
      <point x="1437" y="257"/>
      <point x="1421" y="264" type="curve"/>
      <point x="1367" y="116"/>
      <point x="1327" y="92"/>
      <point x="1211" y="92" type="curve" smooth="yes"/>
      <point x="1097" y="92" type="line" smooth="yes"/>
      <point x="931" y="92"/>
      <point x="901" y="115"/>
      <point x="901" y="152" type="curve" smooth="yes"/>
      <point x="901" y="609" type="line"/>
      <point x="1052" y="609" type="line" smooth="yes"/>
      <point x="1134" y="609"/>
      <point x="1186" y="594"/>
      <point x="1223" y="557" type="curve"/>
      <point x="1249" y="578"/>
      <point x="1288" y="632"/>
      <point x="1310" y="667" type="curve"/>
      <point x="1282" y="695" type="line"/>
      <point x="901" y="695" type="line"/>
      <point x="901" y="1099" type="line"/>
      <point x="1240" y="1099" type="line" smooth="yes"/>
      <point x="1289" y="1099"/>
      <point x="1312" y="1057"/>
      <point x="1318" y="941" type="curve"/>
      <point x="1368" y="941" type="line"/>
      <point x="1386" y="989"/>
      <point x="1403" y="1102"/>
      <point x="1406" y="1166" type="curve"/>
      <point x="1376" y="1192" type="line"/>
      <point x="360" y="1192" type="line"/>
      <point x="360" y="1144" type="line"/>
      <point x="470" y="1123"/>
      <point x="534" y="1110"/>
      <point x="534" y="1077" type="curve" smooth="yes"/>
      <point x="534" y="1073"/>
      <point x="533" y="1069"/>
      <point x="531" y="1064" type="curve" smooth="yes"/>
      <point x="146" y="111" type="line"/>
      <point x="130" y="75"/>
      <point x="82" y="62"/>
      <point x="0" y="47" type="curve"/>
      <point x="0" y="0" type="line"/>
      <point x="394" y="0" type="line"/>
      <point x="394" y="47" type="line"/>
      <point x="309" y="56"/>
      <point x="271" y="70"/>
      <point x="271" y="95" type="curve" smooth="yes"/>
      <point x="271" y="100"/>
      <point x="272" y="105"/>
      <point x="275" y="111" type="curve" smooth="yes"/>
      <point x="342" y="277"/>
      <point x="410" y="443"/>
      <point x="478" y="609" type="curve"/>
      <point x="728" y="609" type="line"/>
      <point x="728" y="105" type="line" smooth="yes"/>
      <point x="728" y="88"/>
      <point x="680" y="64"/>
      <point x="595" y="47" type="curve"/>
      <point x="595" y="0" type="line"/>
      <point x="1430" y="0" type="line"/>
      <point x="1439" y="37"/>
      <point x="1458" y="136"/>
    </contour>
    <contour>
      <point x="728" y="695" type="line"/>
      <point x="512" y="695" type="line"/>
      <point x="658" y="1062" type="line" smooth="yes"/>
      <point x="668" y="1087"/>
      <point x="689" y="1097"/>
      <point x="705" y="1097" type="curve" smooth="yes"/>
      <point x="718" y="1097"/>
      <point x="728" y="1091"/>
      <point x="728" y="1079" type="curve" smooth="yes"/>
    </contour>
  </outline>
</glyph>
<glyph name="Eacute" format="2">
  <advance width="975"/>
  <unicode hex="00C9"/>
  <outline>
    <contour>
      <point x="920" y="245" type="curve"/>
      <point x="904" y="252"/>
      <point x="888" y="257"/>
      <point x="872" y="264" type="curve"/>
      <point x="818" y="116"/>
      <point x="777" y="92"/>
      <point x="661" y="92" type="curve" smooth="yes"/>
      <point x="546" y="92" type="line" smooth="yes"/>
      <point x="380" y="92"/>
      <point x="353" y="115"/>
      <point x="353" y="152" type="curve" smooth="yes"/>
      <point x="353" y="610" type="line"/>
      <point x="487" y="610" type="line" smooth="yes"/>
      <point x="593" y="610"/>
      <point x="635" y="595"/>
      <point x="674" y="558" type="curve"/>
      <point x="702" y="578"/>
      <point x="740" y="632"/>
      <point x="761" y="667" type="curve"/>
      <point x="735" y="695" type="line"/>
      <point x="353" y="695" type="line"/>
      <point x="353" y="1099" type="line"/>
      <point x="692" y="1099" type="line" smooth="yes"/>
      <point x="739" y="1099"/>
      <point x="764" y="1057"/>
      <point x="770" y="941" type="curve"/>
      <point x="820" y="941" type="line"/>
      <point x="835" y="989"/>
      <point x="855" y="1102"/>
      <point x="859" y="1166" type="curve"/>
      <point x="826" y="1192" type="line"/>
      <point x="45" y="1192" type="line"/>
      <point x="45" y="1144" type="line"/>
      <point x="136" y="1126"/>
      <point x="181" y="1100"/>
      <point x="181" y="1085" type="curve" smooth="yes"/>
      <point x="181" y="105" type="line" smooth="yes"/>
      <point x="181" y="88"/>
      <point x="131" y="64"/>
      <point x="45" y="47" type="curve"/>
      <point x="45" y="0" type="line"/>
      <point x="881" y="0" type="line"/>
      <point x="892" y="37"/>
      <point x="911" y="136"/>
    </contour>
    <contour>
      <point x="805" y="1521" type="curve"/>
      <point x="796" y="1566" type="line"/>
      <point x="777" y="1586"/>
      <point x="705" y="1625"/>
      <point x="671" y="1645" type="curve"/>
      <point x="309" y="1339" type="line"/>
      <point x="326" y="1315"/>
      <point x="336" y="1301"/>
      <point x="357" y="1292" type="curve"/>
      <point x="507" y="1368"/>
      <point x="656" y="1445"/>
    </contour>
  </outline>
</glyph>
<glyph name="Edieresis" format="2">
  <advance width="975"/>
  <unicode hex="00CB"/>
  <outline>
    <contour>
      <point x="920" y="245" type="curve"/>
      <point x="904" y="252"/>
      <point x="888" y="257"/>
      <point x="872" y="264" type="curve"/>
      <point x="818" y="116"/>
      <point x="777" y="92"/>
      <point x="661" y="92" type="curve" smooth="yes"/>
      <point x="546" y="92" type="line" smooth="yes"/>
      <point x="380" y="92"/>
      <point x="353" y="115"/>
      <point x="353" y="152" type="curve" smooth="yes"/>
      <point x="353" y="610" type="line"/>
      <point x="487" y="610" type="line" smooth="yes"/>
      <point x="593" y="610"/>
      <point x="635" y="595"/>
      <point x="674" y="558" type="curve"/>
      <point x="702" y="578"/>
      <point x="740" y="632"/>
      <point x="761" y="667" type="curve"/>
      <point x="735" y="695" type="line"/>
      <point x="353" y="695" type="line"/>
      <point x="353" y="1099" type="line"/>
      <point x="692" y="1099" type="line" smooth="yes"/>
      <point x="739" y="1099"/>
      <point x="764" y="1057"/>
      <point x="770" y="941" type="curve"/>
      <point x="820" y="941" type="line"/>
      <point x="835" y="989"/>
      <point x="855" y="1102"/>
      <point x="859" y="1166" type="curve"/>
      <point x="826" y="1192" type="line"/>
      <point x="45" y="1192" type="line"/>
      <point x="45" y="1144" type="line"/>
      <point x="136" y="1126"/>
      <point x="181" y="1100"/>
      <point x="181" y="1085" type="curve" smooth="yes"/>
      <point x="181" y="105" type="line" smooth="yes"/>
      <point x="181" y="88"/>
      <point x="131" y="64"/>
      <point x="45" y="47" type="curve"/>
      <point x="45" y="0" type="line"/>
      <point x="881" y="0" type="line"/>
      <point x="892" y="37"/>
      <point x="911" y="136"/>
    </contour>
    <contour>
      <point x="394" y="1459" type="curve" smooth="yes"/>
      <point x="394" y="1523"/>
      <point x="364" y="1555"/>
      <point x="305" y="1555" type="curve" smooth="yes"/>
      <point x="241" y="1555"/>
      <point x="187" y="1494"/>
      <point x="187" y="1417" type="curve" smooth="yes"/>
      <point x="187" y="1356"/>
      <point x="214" y="1320"/>
      <point x="274" y="1320" type="curve" smooth="yes"/>
      <point x="342" y="1320"/>
      <point x="394" y="1383"/>
    </contour>
    <contour>
      <point x="778" y="1459" type="curve" smooth="yes"/>
      <point x="778" y="1523"/>
      <point x="748" y="1555"/>
      <point x="689" y="1555" type="curve" smooth="yes"/>
      <point x="626" y="1555"/>
      <point x="570" y="1494"/>
      <point x="570" y="1417" type="curve" smooth="yes"/>
      <point x="570" y="1356"/>
      <point x="598" y="1320"/>
      <point x="659" y="1320" type="curve" smooth="yes"/>
      <point x="725" y="1320"/>
      <point x="778" y="1383"/>
    </contour>
  </outline>
</glyph>
<glyph name="Igrave" format="2">
  <advance width="591"/>
  <unicode hex="00CC"/>
  <outline>
    <contour>
      <point x="508" y="0" type="line"/>
      <point x="508" y="47" type="line"/>
      <point x="417" y="64"/>
      <point x="372" y="90"/>
      <point x="372" y="105" type="curve" smooth="yes"/>
      <point x="372" y="1085" type="line" smooth="yes"/>
      <point x="372" y="1103"/>
      <point x="423" y="1126"/>
      <point x="508" y="1144" type="curve"/>
      <point x="508" y="1192" type="line"/>
      <point x="64" y="1192" type="line"/>
      <point x="64" y="1144" type="line"/>
      <point x="155" y="1126"/>
      <point x="200" y="1100"/>
      <point x="200" y="1085" type="curve" smooth="yes"/>
      <point x="200" y="105" type="line" smooth="yes"/>
      <point x="200" y="88"/>
      <point x="149" y="64"/>
      <point x="64" y="47" type="curve"/>
      <point x="64" y="0" type="line"/>
    </contour>
    <contour>
      <point x="457" y="1338" type="curve"/>
      <point x="337" y="1440"/>
      <point x="216" y="1542"/>
      <point x="96" y="1645" type="curve"/>
      <point x="68" y="1630"/>
      <point x="-9" y="1586"/>
      <point x="-28" y="1566" type="curve"/>
      <point x="-35" y="1520" type="line"/>
      <point x="114" y="1443"/>
      <point x="262" y="1368"/>
      <point x="410" y="1292" type="curve"/>
      <point x="431" y="1301"/>
      <point x="439" y="1314"/>
    </contour>
  </outline>
</glyph>
<glyph name="Iacute" format="2">
  <advance width="591"/>
  <unicode hex="00CD"/>
  <outline>
    <contour>
      <point x="508" y="0" type="line"/>
      <point x="508" y="47" type="line"/>
      <point x="417" y="64"/>
      <point x="372" y="90"/>
      <point x="372" y="105" type="curve" smooth="yes"/>
      <point x="372" y="1085" type="line" smooth="yes"/>
      <point x="372" y="1103"/>
      <point x="423" y="1126"/>
      <point x="508" y="1144" type="curve"/>
      <point x="508" y="1192" type="line"/>
      <point x="64" y="1192" type="line"/>
      <point x="64" y="1144" type="line"/>
      <point x="155" y="1126"/>
      <point x="200" y="1100"/>
      <point x="200" y="1085" type="curve" smooth="yes"/>
      <point x="200" y="105" type="line" smooth="yes"/>
      <point x="200" y="88"/>
      <point x="149" y="64"/>
      <point x="64" y="47" type="curve"/>
      <point x="64" y="0" type="line"/>
    </contour>
    <contour>
      <point x="608" y="1521" type="curve"/>
      <point x="599" y="1566" type="line"/>
      <point x="580" y="1586"/>
      <point x="508" y="1625"/>
      <point x="474" y="1645" type="curve"/>
      <point x="112" y="1339" type="line"/>
      <point x="129" y="1315"/>
      <point x="139" y="1301"/>
      <point x="160" y="1292" type="curve"/>
      <point x="310" y="1368"/>
      <point x="459" y="1445"/>
    </contour>
  </outline>
</glyph>
<glyph name="Icircumflex" format="2">
  <advance width="591"/>
  <unicode hex="00CE"/>
  <outline>
    <contour>
      <point x="508" y="0" type="line"/>
      <point x="508" y="47" type="line"/>
      <point x="417" y="64"/>
      <point x="372" y="90"/>
      <point x="372" y="105" type="curve" smooth="yes"/>
      <point x="372" y="1085" type="line" smooth="yes"/>
      <point x="372" y="1103"/>
      <point x="423" y="1126"/>
      <point x="508" y="1144" type="curve"/>
      <point x="508" y="1192" type="line"/>
      <point x="64" y="1192" type="line"/>
      <point x="64" y="1144" type="line"/>
      <point x="155" y="1126"/>
      <point x="200" y="1100"/>
      <point x="200" y="1085" type="curve" smooth="yes"/>
      <point x="200" y="105" type="line" smooth="yes"/>
      <point x="200" y="88"/>
      <point x="149" y="64"/>
      <point x="64" y="47" type="curve"/>
      <point x="64" y="0" type="line"/>
    </contour>
    <contour>
      <point x="590" y="1338" type="curve"/>
      <point x="506" y="1436"/>
      <point x="423" y="1535"/>
      <point x="339" y="1634" type="curve"/>
      <point x="234" y="1634" type="line"/>
      <point x="150" y="1535"/>
      <point x="65" y="1436"/>
      <point x="-20" y="1338" type="curve"/>
      <point x="-2" y="1314"/>
      <point x="6" y="1301"/>
      <point x="27" y="1292" type="curve"/>
      <point x="113" y="1354"/>
      <point x="199" y="1415"/>
      <point x="285" y="1478" type="curve"/>
      <point x="372" y="1415"/>
      <point x="459" y="1354"/>
      <point x="546" y="1292" type="curve"/>
      <point x="568" y="1301"/>
      <point x="575" y="1314"/>
    </contour>
  </outline>
</glyph>
<glyph name="Idieresis" format="2">
  <advance width="591"/>
  <unicode hex="00CF"/>
  <outline>
    <contour>
      <point x="508" y="0" type="line"/>
      <point x="508" y="47" type="line"/>
      <point x="417" y="64"/>
      <point x="372" y="90"/>
      <point x="372" y="105" type="curve" smooth="yes"/>
      <point x="372" y="1085" type="line" smooth="yes"/>
      <point x="372" y="1103"/>
      <point x="423" y="1126"/>
      <point x="508" y="1144" type="curve"/>
      <point x="508" y="1192" type="line"/>
      <point x="64" y="1192" type="line"/>
      <point x="64" y="1144" type="line"/>
      <point x="155" y="1126"/>
      <point x="200" y="1100"/>
      <point x="200" y="1085" type="curve" smooth="yes"/>
      <point x="200" y="105" type="line" smooth="yes"/>
      <point x="200" y="88"/>
      <point x="149" y="64"/>
      <point x="64" y="47" type="curve"/>
      <point x="64" y="0" type="line"/>
    </contour>
    <contour>
      <point x="198" y="1459" type="curve" smooth="yes"/>
      <point x="198" y="1523"/>
      <point x="168" y="1555"/>
      <point x="109" y="1555" type="curve" smooth="yes"/>
      <point x="45" y="1555"/>
      <point x="-9" y="1494"/>
      <point x="-9" y="1417" type="curve" smooth="yes"/>
      <point x="-9" y="1356"/>
      <point x="18" y="1320"/>
      <point x="78" y="1320" type="curve" smooth="yes"/>
      <point x="146" y="1320"/>
      <point x="198" y="1383"/>
    </contour>
    <contour>
      <point x="582" y="1459" type="curve" smooth="yes"/>
      <point x="582" y="1523"/>
      <point x="552" y="1555"/>
      <point x="493" y="1555" type="curve" smooth="yes"/>
      <point x="430" y="1555"/>
      <point x="374" y="1494"/>
      <point x="374" y="1417" type="curve" smooth="yes"/>
      <point x="374" y="1356"/>
      <point x="402" y="1320"/>
      <point x="463" y="1320" type="curve" smooth="yes"/>
      <point x="529" y="1320"/>
      <point x="582" y="1383"/>
    </contour>
  </outline>
</glyph>
<glyph name="Eth" format="2">
  <advance width="1170"/>
  <unicode hex="00D0"/>
  <outline>
    <contour>
      <point x="617" y="652" type="line"/>
      <point x="594" y="673" type="line"/>
      <point x="49" y="673" type="line"/>
      <point x="42" y="654"/>
      <point x="31" y="624"/>
      <point x="26" y="605" type="curve"/>
      <point x="46" y="582" type="line"/>
      <point x="591" y="582" type="line"/>
    </contour>
    <contour>
      <point x="1086" y="639" type="curve" smooth="yes"/>
      <point x="1086" y="1006"/>
      <point x="864" y="1220"/>
      <point x="504" y="1220" type="curve" smooth="yes"/>
      <point x="351" y="1220"/>
      <point x="149" y="1195"/>
      <point x="36" y="1164" type="curve"/>
      <point x="45" y="1097" type="line"/>
      <point x="85" y="1103"/>
      <point x="131" y="1111"/>
      <point x="181" y="1116" type="curve"/>
      <point x="181" y="105" type="line" smooth="yes"/>
      <point x="181" y="88"/>
      <point x="131" y="64"/>
      <point x="45" y="47" type="curve"/>
      <point x="45" y="0" type="line"/>
      <point x="543" y="0" type="line" smooth="yes"/>
      <point x="775" y="0"/>
      <point x="1086" y="166"/>
    </contour>
    <contour>
      <point x="441" y="1135" type="curve" smooth="yes"/>
      <point x="738" y="1135"/>
      <point x="902" y="937"/>
      <point x="902" y="603" type="curve" smooth="yes"/>
      <point x="902" y="248"/>
      <point x="685" y="85"/>
      <point x="518" y="85" type="curve" smooth="yes"/>
      <point x="384" y="85"/>
      <point x="353" y="103"/>
      <point x="353" y="152" type="curve" smooth="yes"/>
      <point x="353" y="1132" type="line"/>
      <point x="382" y="1134"/>
      <point x="412" y="1135"/>
    </contour>
  </outline>
</glyph>
<glyph name="Ograve" format="2">
  <advance width="1173"/>
  <unicode hex="00D2"/>
  <outline>
    <contour>
      <point x="1090" y="612" type="curve" smooth="yes"/>
      <point x="1090" y="920"/>
      <point x="922" y="1220"/>
      <point x="604" y="1220" type="curve" smooth="yes"/>
      <point x="298" y="1220"/>
      <point x="62" y="922"/>
      <point x="62" y="579" type="curve" smooth="yes"/>
      <point x="62" y="261"/>
      <point x="242" y="-28"/>
      <point x="550" y="-28" type="curve" smooth="yes"/>
      <point x="842" y="-28"/>
      <point x="1090" y="270"/>
    </contour>
    <contour>
      <point x="922" y="595" type="curve" smooth="yes"/>
      <point x="922" y="261"/>
      <point x="779" y="88"/>
      <point x="581" y="88" type="curve" smooth="yes"/>
      <point x="391" y="88"/>
      <point x="233" y="324"/>
      <point x="233" y="606" type="curve" smooth="yes"/>
      <point x="233" y="915"/>
      <point x="358" y="1108"/>
      <point x="571" y="1108" type="curve" smooth="yes"/>
      <point x="782" y="1108"/>
      <point x="922" y="856"/>
    </contour>
    <contour>
      <point x="759" y="1338" type="curve"/>
      <point x="639" y="1440"/>
      <point x="518" y="1542"/>
      <point x="398" y="1645" type="curve"/>
      <point x="370" y="1630"/>
      <point x="293" y="1586"/>
      <point x="274" y="1566" type="curve"/>
      <point x="267" y="1520" type="line"/>
      <point x="416" y="1443"/>
      <point x="564" y="1368"/>
      <point x="712" y="1292" type="curve"/>
      <point x="733" y="1301"/>
      <point x="741" y="1314"/>
    </contour>
  </outline>
</glyph>
<glyph name="Oacute" format="2">
  <advance width="1173"/>
  <unicode hex="00D3"/>
  <outline>
    <contour>
      <point x="1090" y="612" type="curve" smooth="yes"/>
      <point x="1090" y="920"/>
      <point x="922" y="1220"/>
      <point x="604" y="1220" type="curve" smooth="yes"/>
      <point x="298" y="1220"/>
      <point x="62" y="922"/>
      <point x="62" y="579" type="curve" smooth="yes"/>
      <point x="62" y="261"/>
      <point x="242" y="-28"/>
      <point x="550" y="-28" type="curve" smooth="yes"/>
      <point x="842" y="-28"/>
      <point x="1090" y="270"/>
    </contour>
    <contour>
      <point x="922" y="595" type="curve" smooth="yes"/>
      <point x="922" y="261"/>
      <point x="779" y="88"/>
      <point x="581" y="88" type="curve" smooth="yes"/>
      <point x="391" y="88"/>
      <point x="233" y="324"/>
      <point x="233" y="606" type="curve" smooth="yes"/>
      <point x="233" y="915"/>
      <point x="358" y="1108"/>
      <point x="571" y="1108" type="curve" smooth="yes"/>
      <point x="782" y="1108"/>
      <point x="922" y="856"/>
    </contour>
    <contour>
      <point x="910" y="1521" type="curve"/>
      <point x="901" y="1566" type="line"/>
      <point x="882" y="1586"/>
      <point x="810" y="1625"/>
      <point x="776" y="1645" type="curve"/>
      <point x="414" y="1339" type="line"/>
      <point x="431" y="1315"/>
      <point x="441" y="1301"/>
      <point x="462" y="1292" type="curve"/>
      <point x="612" y="1368"/>
      <point x="761" y="1445"/>
    </contour>
  </outline>
</glyph>
<glyph name="multiply" format="2">
  <advance width="800"/>
  <unicode hex="00D7"/>
  <outline>
    <contour>
      <point x="85" y="265" type="line"/>
      <point x="111" y="254"/>
      <point x="156" y="237"/>
      <point x="180" y="232" type="curve"/>
      <point x="399" y="451" type="line"/>
      <point x="619" y="232" type="line"/>
      <point x="641" y="237"/>
      <point x="688" y="254"/>
      <point x="713" y="265" type="curve"/>
      <point x="713" y="297" type="line"/>
      <point x="479" y="531" type="line"/>
      <point x="712" y="764" type="line"/>
      <point x="712" y="797" type="line"/>
      <point x="688" y="808"/>
      <point x="644" y="823"/>
      <point x="617" y="830" type="curve"/>
      <point x="399" y="611" type="line"/>
      <point x="181" y="830" type="line"/>
      <point x="153" y="823"/>
      <point x="111" y="808"/>
      <point x="86" y="797" type="curve"/>
      <point x="86" y="786"/>
      <point x="87" y="775"/>
      <point x="87" y="764" type="curve"/>
      <point x="320" y="532" type="line"/>
      <point x="85" y="297" type="line"/>
    </contour>
  </outline>
</glyph>
<glyph name="Ugrave" format="2">
  <advance width="1274"/>
  <unicode hex="00D9"/>
  <outline>
    <contour>
      <point x="1215" y="1144" type="curve"/>
      <point x="1215" y="1192" type="line"/>
      <point x="811" y="1192" type="line"/>
      <point x="811" y="1144" type="line"/>
      <point x="901" y="1126"/>
      <point x="946" y="1100"/>
      <point x="946" y="1085" type="curve" smooth="yes"/>
      <point x="946" y="460" type="line" smooth="yes"/>
      <point x="946" y="273"/>
      <point x="856" y="87"/>
      <point x="676" y="87" type="curve" smooth="yes"/>
      <point x="460" y="87"/>
      <point x="353" y="228"/>
      <point x="353" y="470" type="curve" smooth="yes"/>
      <point x="353" y="1085" type="line" smooth="yes"/>
      <point x="353" y="1103"/>
      <point x="404" y="1126"/>
      <point x="489" y="1144" type="curve"/>
      <point x="489" y="1192" type="line"/>
      <point x="45" y="1192" type="line"/>
      <point x="45" y="1144" type="line"/>
      <point x="136" y="1126"/>
      <point x="181" y="1100"/>
      <point x="181" y="1085" type="curve" smooth="yes"/>
      <point x="181" y="420" type="line" smooth="yes"/>
      <point x="181" y="113"/>
      <point x="373" y="-28"/>
      <point x="633" y="-28" type="curve" smooth="yes"/>
      <point x="905" y="-28"/>
      <point x="1079" y="165"/>
      <point x="1079" y="496" type="curve" smooth="yes"/>
      <point x="1079" y="1085" type="line" smooth="yes"/>
      <point x="1079" y="1103"/>
      <point x="1130" y="1126"/>
    </contour>
    <contour>
      <point x="815" y="1338" type="curve"/>
      <point x="695" y="1440"/>
      <point x="574" y="1542"/>
      <point x="454" y="1645" type="curve"/>
      <point x="426" y="1630"/>
      <point x="349" y="1586"/>
      <point x="330" y="1566" type="curve"/>
      <point x="323" y="1520" type="line"/>
      <point x="472" y="1443"/>
      <point x="620" y="1368"/>
      <point x="768" y="1292" type="curve"/>
      <point x="789" y="1301"/>
      <point x="797" y="1314"/>
    </contour>
  </outline>
</glyph>
<glyph name="Uacute" format="2">
  <advance width="1274"/>
  <unicode hex="00DA"/>
  <outline>
    <contour>
      <point x="1215" y="1144" type="curve"/>
      <point x="1215" y="1192" type="line"/>
      <point x="811" y="1192" type="line"/>
      <point x="811" y="1144" type="line"/>
      <point x="901" y="1126"/>
      <point x="946" y="1100"/>
      <point x="946" y="1085" type="curve" smooth="yes"/>
      <point x="946" y="460" type="line" smooth="yes"/>
      <point x="946" y="273"/>
      <point x="856" y="87"/>
      <point x="676" y="87" type="curve" smooth="yes"/>
      <point x="460" y="87"/>
      <point x="353" y="228"/>
      <point x="353" y="470" type="curve" smooth="yes"/>
      <point x="353" y="1085" type="line" smooth="yes"/>
      <point x="353" y="1103"/>
      <point x="404" y="1126"/>
      <point x="489" y="1144" type="curve"/>
      <point x="489" y="1192" type="line"/>
      <point x="45" y="1192" type="line"/>
      <point x="45" y="1144" type="line"/>
      <point x="136" y="1126"/>
      <point x="181" y="1100"/>
      <point x="181" y="1085" type="curve" smooth="yes"/>
      <point x="181" y="420" type="line" smooth="yes"/>
      <point x="181" y="113"/>
      <point x="373" y="-28"/>
      <point x="633" y="-28" type="curve" smooth="yes"/>
      <point x="905" y="-28"/>
      <point x="1079" y="165"/>
      <point x="1079" y="496" type="curve" smooth="yes"/>
      <point x="1079" y="1085" type="line" smooth="yes"/>
      <point x="1079" y="1103"/>
      <point x="1130" y="1126"/>
    </contour>
    <contour>
      <point x="966" y="1521" type="curve"/>
      <point x="957" y="1566" type="line"/>
      <point x="938" y="1586"/>
      <point x="866" y="1625"/>
      <point x="832" y="1645" type="curve"/>
      <point x="470" y="1339" type="line"/>
      <point x="487" y="1315"/>
      <point x="497" y="1301"/>
      <point x="518" y="1292" type="curve"/>
      <point x="668" y="1368"/>
      <point x="817" y="1445"/>
    </contour>
  </outline>
</glyph>
<glyph name="Ucircumflex" format="2">
  <advance width="1274"/>
  <unicode hex="00DB"/>
  <outline>
    <contour>
      <point x="1215" y="1144" type="curve"/>
      <point x="1215" y="1192" type="line"/>
      <point x="811" y="1192" type="line"/>
      <point x="811" y="1144" type="line"/>
      <point x="901" y="1126"/>
      <point x="946" y="1100"/>
      <point x="946" y="1085" type="curve" smooth="yes"/>
      <point x="946" y="460" type="line" smooth="yes"/>
      <point x="946" y="273"/>
      <point x="856" y="87"/>
      <point x="676" y="87" type="curve" smooth="yes"/>
      <point x="460" y="87"/>
      <point x="353" y="228"/>
      <point x="353" y="470" type="curve" smooth="yes"/>
      <point x="353" y="1085" type="line" smooth="yes"/>
      <point x="353" y="1103"/>
      <point x="404" y="1126"/>
      <point x="489" y="1144" type="curve"/>
      <point x="489" y="1192" type="line"/>
      <point x="45" y="1192" type="line"/>
      <point x="45" y="1144" type="line"/>
      <point x="136" y="1126"/>
      <point x="181" y="1100"/>
      <point x="181" y="1085" type="curve" smooth="yes"/>
      <point x="181" y="420" type="line" smooth="yes"/>
      <point x="181" y="113"/>
      <point x="373" y="-28"/>
      <point x="633" y="-28" type="curve" smooth="yes"/>
      <point x="905" y="-28"/>
      <point x="1079" y="165"/>
      <point x="1079" y="496" type="curve" smooth="yes"/>
      <point x="1079" y="1085" type="line" smooth="yes"/>
      <point x="1079" y="1103"/>
      <point x="1130" y="1126"/>
    </contour>
    <contour>
      <point x="948" y="1338" type="curve"/>
      <point x="864" y="1436"/>
      <point x="781" y="1535"/>
      <point x="697" y="1634" type="curve"/>
      <point x="592" y="1634" type="line"/>
      <point x="508" y="1535"/>
      <point x="423" y="1436"/>
      <point x="338" y="1338" type="curve"/>
      <point x="356" y="1314"/>
      <point x="364" y="1301"/>
      <point x="385" y="1292" type="curve"/>
      <point x="471" y="1354"/>
      <point x="557" y="1415"/>
      <point x="643" y="1478" type="curve"/>
      <point x="730" y="1415"/>
      <point x="817" y="1354"/>
      <point x="904" y="1292" type="curve"/>
      <point x="926" y="1301"/>
      <point x="933" y="1314"/>
    </contour>
  </outline>
</glyph>
<glyph name="Thorn" format="2">
  <advance width="1035"/>
  <unicode hex="00DE"/>
  <outline>
    <contour>
      <point x="517" y="0" type="line"/>
      <point x="517" y="47" type="line"/>
      <point x="386" y="69"/>
      <point x="353" y="90"/>
      <point x="353" y="105" type="curve" smooth="yes"/>
      <point x="353" y="879" type="line"/>
      <point x="383" y="881"/>
      <point x="413" y="882"/>
      <point x="442" y="882" type="curve" smooth="yes"/>
      <point x="634" y="882"/>
      <point x="784" y="794"/>
      <point x="784" y="593" type="curve" smooth="yes"/>
      <point x="784" y="414"/>
      <point x="642" y="327"/>
      <point x="528" y="327" type="curve" smooth="yes"/>
      <point x="483" y="327"/>
      <point x="438" y="331"/>
      <point x="386" y="355" type="curve"/>
      <point x="393" y="330"/>
      <point x="401" y="304"/>
      <point x="409" y="279" type="curve"/>
      <point x="452" y="258"/>
      <point x="506" y="249"/>
      <point x="565" y="249" type="curve" smooth="yes"/>
      <point x="718" y="249"/>
      <point x="953" y="371"/>
      <point x="953" y="632" type="curve" smooth="yes"/>
      <point x="953" y="849"/>
      <point x="773" y="967"/>
      <point x="496" y="967" type="curve" smooth="yes"/>
      <point x="441" y="967"/>
      <point x="394" y="965"/>
      <point x="353" y="962" type="curve"/>
      <point x="353" y="1085" type="line" smooth="yes"/>
      <point x="353" y="1103"/>
      <point x="388" y="1122"/>
      <point x="517" y="1144" type="curve"/>
      <point x="517" y="1192" type="line"/>
      <point x="44" y="1192" type="line"/>
      <point x="44" y="1144" type="line"/>
      <point x="135" y="1126"/>
      <point x="181" y="1100"/>
      <point x="181" y="1085" type="curve" smooth="yes"/>
      <point x="181" y="105" type="line" smooth="yes"/>
      <point x="181" y="88"/>
      <point x="130" y="64"/>
      <point x="44" y="47" type="curve"/>
      <point x="44" y="0" type="line"/>
    </contour>
  </outline>
</glyph>
<glyph name="egrave" format="2">
  <advance width="905"/>
  <unicode hex="00E8"/>
  <outline>
    <contour>
      <point x="833" y="525" type="curve"/>
      <point x="833" y="697"/>
      <point x="749" y="908"/>
      <point x="501" y="908" type="curve" smooth="yes"/>
      <point x="427" y="908"/>
      <point x="336" y="871"/>
      <point x="277" y="830" type="curve" smooth="yes"/>
      <point x="147" y="739"/>
      <point x="72" y="583"/>
      <point x="72" y="412" type="curve" smooth="yes"/>
      <point x="72" y="146"/>
      <point x="244" y="-28"/>
      <point x="443" y="-28" type="curve" smooth="yes"/>
      <point x="578" y="-28"/>
      <point x="657" y="2"/>
      <point x="827" y="184" type="curve"/>
      <point x="822" y="194"/>
      <point x="805" y="220"/>
      <point x="789" y="229" type="curve"/>
      <point x="647" y="116"/>
      <point x="586" y="104"/>
      <point x="507" y="104" type="curve" smooth="yes"/>
      <point x="340" y="104"/>
      <point x="240" y="265"/>
      <point x="237" y="458" type="curve"/>
      <point x="722" y="458" type="line"/>
      <point x="762" y="474"/>
      <point x="810" y="499"/>
    </contour>
    <contour>
      <point x="472" y="805" type="curve" smooth="yes"/>
      <point x="628" y="805"/>
      <point x="660" y="653"/>
      <point x="660" y="583" type="curve" smooth="yes"/>
      <point x="660" y="556"/>
      <point x="653" y="549"/>
      <point x="624" y="549" type="curve" smooth="yes"/>
      <point x="242" y="549" type="line"/>
      <point x="263" y="701"/>
      <point x="345" y="805"/>
    </contour>
    <contour>
      <point x="608" y="1022" type="curve"/>
      <point x="386" y="1414" type="line"/>
      <point x="355" y="1412"/>
      <point x="255" y="1394"/>
      <point x="230" y="1388" type="curve"/>
      <point x="223" y="1373"/>
      <point x="215" y="1360"/>
      <point x="208" y="1345" type="curve"/>
      <point x="548" y="989" type="line"/>
      <point x="570" y="995"/>
      <point x="592" y="1006"/>
    </contour>
  </outline>
</glyph>
<glyph name="edieresis" format="2">
  <advance width="905"/>
  <unicode hex="00EB"/>
  <outline>
    <contour>
      <point x="833" y="525" type="curve"/>
      <point x="833" y="697"/>
      <point x="749" y="908"/>
      <point x="501" y="908" type="curve" smooth="yes"/>
      <point x="427" y="908"/>
      <point x="336" y="871"/>
      <point x="277" y="830" type="curve" smooth="yes"/>
      <point x="147" y="739"/>
      <point x="72" y="583"/>
      <point x="72" y="412" type="curve" smooth="yes"/>
      <point x="72" y="146"/>
      <point x="244" y="-28"/>
      <point x="443" y="-28" type="curve" smooth="yes"/>
      <point x="578" y="-28"/>
      <point x="657" y="2"/>
      <point x="827" y="184" type="curve"/>
      <point x="822" y="194"/>
      <point x="805" y="220"/>
      <point x="789" y="229" type="curve"/>
      <point x="647" y="116"/>
      <point x="586" y="104"/>
      <point x="507" y="104" type="curve" smooth="yes"/>
      <point x="340" y="104"/>
      <point x="240" y="265"/>
      <point x="237" y="458" type="curve"/>
      <point x="722" y="458" type="line"/>
      <point x="762" y="474"/>
      <point x="810" y="499"/>
    </contour>
    <contour>
      <point x="472" y="805" type="curve" smooth="yes"/>
      <point x="628" y="805"/>
      <point x="660" y="653"/>
      <point x="660" y="583" type="curve" smooth="yes"/>
      <point x="660" y="556"/>
      <point x="653" y="549"/>
      <point x="624" y="549" type="curve" smooth="yes"/>
      <point x="242" y="549" type="line"/>
      <point x="263" y="701"/>
      <point x="345" y="805"/>
    </contour>
    <contour>
      <point x="401" y="1194" type="curve" smooth="yes"/>
      <point x="401" y="1258"/>
      <point x="371" y="1290"/>
      <point x="312" y="1290" type="curve" smooth="yes"/>
      <point x="248" y="1290"/>
      <point x="194" y="1229"/>
      <point x="194" y="1152" type="curve" smooth="yes"/>
      <point x="194" y="1090"/>
      <point x="221" y="1055"/>
      <point x="281" y="1055" type="curve" smooth="yes"/>
      <point x="349" y="1055"/>
      <point x="401" y="1118"/>
    </contour>
    <contour>
      <point x="785" y="1194" type="curve" smooth="yes"/>
      <point x="785" y="1258"/>
      <point x="755" y="1290"/>
      <point x="696" y="1290" type="curve" smooth="yes"/>
      <point x="633" y="1290"/>
      <point x="577" y="1229"/>
      <point x="577" y="1152" type="curve" smooth="yes"/>
      <point x="577" y="1090"/>
      <point x="605" y="1055"/>
      <point x="666" y="1055" type="curve" smooth="yes"/>
      <point x="732" y="1055"/>
      <point x="785" y="1118"/>
    </contour>
  </outline>
</glyph>
<glyph name="odieresis" format="2">
  <advance width="985"/>
  <unicode hex="00F6"/>
  <outline>
    <contour>
      <point x="913" y="459" type="curve" smooth="yes"/>
      <point x="913" y="717"/>
      <point x="754" y="908"/>
      <point x="512" y="908" type="curve" smooth="yes"/>
      <point x="266" y="908"/>
      <point x="72" y="671"/>
      <point x="72" y="420" type="curve" smooth="yes"/>
      <point x="72" y="163"/>
      <point x="231" y="-28"/>
      <point x="475" y="-28" type="curve" smooth="yes"/>
      <point x="709" y="-28"/>
      <point x="913" y="207"/>
    </contour>
    <contour>
      <point x="743" y="427" type="curve" smooth="yes"/>
      <point x="743" y="213"/>
      <point x="673" y="79"/>
      <point x="501" y="79" type="curve" smooth="yes"/>
      <point x="385" y="79"/>
      <point x="242" y="248"/>
      <point x="242" y="447" type="curve" smooth="yes"/>
      <point x="242" y="647"/>
      <point x="301" y="800"/>
      <point x="484" y="800" type="curve" smooth="yes"/>
      <point x="614" y="800"/>
      <point x="743" y="626"/>
    </contour>
    <contour>
      <point x="424" y="1194" type="curve" smooth="yes"/>
      <point x="424" y="1258"/>
      <point x="394" y="1290"/>
      <point x="335" y="1290" type="curve" smooth="yes"/>
      <point x="271" y="1290"/>
      <point x="217" y="1229"/>
      <point x="217" y="1152" type="curve" smooth="yes"/>
      <point x="217" y="1090"/>
      <point x="244" y="1055"/>
      <point x="304" y="1055" type="curve" smooth="yes"/>
      <point x="372" y="1055"/>
      <point x="424" y="1118"/>
    </contour>
    <contour>
      <point x="808" y="1194" type="curve" smooth="yes"/>
      <point x="808" y="1258"/>
      <point x="778" y="1290"/>
      <point x="719" y="1290" type="curve" smooth="yes"/>
      <point x="656" y="1290"/>
      <point x="600" y="1229"/>
      <point x="600" y="1152" type="curve" smooth="yes"/>
      <point x="600" y="1090"/>
      <point x="628" y="1055"/>
      <point x="689" y="1055" type="curve" smooth="yes"/>
      <point x="755" y="1055"/>
      <point x="808" y="1118"/>
    </contour>
  </outline>
</glyph>
<glyph name="cacute" format="2">
  <advance width="856"/>
  <unicode hex="0107"/>
  <outline>
    <contour>
      <point x="807" y="180" type="curve"/>
      <point x="767" y="224" type="line"/>
      <point x="628" y="109"/>
      <point x="585" y="104"/>
      <point x="514" y="104" type="curve" smooth="yes"/>
      <point x="367" y="104"/>
      <point x="235" y="238"/>
      <point x="235" y="449" type="curve" smooth="yes"/>
      <point x="235" y="688"/>
      <point x="353" y="800"/>
      <point x="479" y="800" type="curve" smooth="yes"/>
      <point x="603" y="800"/>
      <point x="667" y="729"/>
      <point x="693" y="664" type="curve"/>
      <point x="736" y="655" type="line"/>
      <point x="757" y="688"/>
      <point x="794" y="787"/>
      <point x="794" y="826" type="curve"/>
      <point x="794" y="828"/>
      <point x="794" y="831"/>
      <point x="794" y="833" type="curve"/>
      <point x="752" y="878"/>
      <point x="644" y="908"/>
      <point x="561" y="908" type="curve" smooth="yes"/>
      <point x="283" y="908"/>
      <point x="72" y="692"/>
      <point x="72" y="420" type="curve" smooth="yes"/>
      <point x="72" y="139"/>
      <point x="254" y="-28"/>
      <point x="443" y="-28" type="curve" smooth="yes"/>
      <point x="561" y="-28"/>
      <point x="642" y="-11"/>
    </contour>
    <contour>
      <point x="759" y="1348" type="line"/>
      <point x="735" y="1389" type="line"/>
      <point x="707" y="1397"/>
      <point x="608" y="1412"/>
      <point x="578" y="1414" type="curve"/>
      <point x="363" y="1019" type="line"/>
      <point x="377" y="1007"/>
      <point x="401" y="992"/>
      <point x="424" y="989" type="curve"/>
    </contour>
  </outline>
</glyph>
<glyph name="Ccircumflex" format="2">
  <advance width="1049"/>
  <unicode hex="0108"/>
  <outline>
    <contour>
      <point x="975" y="200" type="curve"/>
      <point x="967" y="207"/>
      <point x="950" y="240"/>
      <point x="937" y="248" type="curve"/>
      <point x="799" y="132"/>
      <point x="685" y="95"/>
      <point x="617" y="95" type="curve" smooth="yes"/>
      <point x="441" y="95"/>
      <point x="232" y="257"/>
      <point x="232" y="589" type="curve" smooth="yes"/>
      <point x="232" y="981"/>
      <point x="437" y="1111"/>
      <point x="566" y="1111" type="curve" smooth="yes"/>
      <point x="677" y="1111"/>
      <point x="765" y="1067"/>
      <point x="829" y="996" type="curve"/>
      <point x="842" y="993"/>
      <point x="855" y="990"/>
      <point x="869" y="988" type="curve"/>
      <point x="895" y="1014"/>
      <point x="959" y="1098"/>
      <point x="959" y="1121" type="curve"/>
      <point x="959" y="1123"/>
      <point x="958" y="1125"/>
      <point x="957" y="1126" type="curve"/>
      <point x="892" y="1178"/>
      <point x="778" y="1220"/>
      <point x="642" y="1220" type="curve" smooth="yes"/>
      <point x="325" y="1220"/>
      <point x="62" y="957"/>
      <point x="62" y="554" type="curve" smooth="yes"/>
      <point x="62" y="188"/>
      <point x="305" y="-28"/>
      <point x="543" y="-28" type="curve" smooth="yes"/>
      <point x="677" y="-28"/>
      <point x="814" y="29"/>
    </contour>
    <contour>
      <point x="891" y="1338" type="curve"/>
      <point x="807" y="1436"/>
      <point x="724" y="1535"/>
      <point x="640" y="1634" type="curve"/>
      <point x="535" y="1634" type="line"/>
      <point x="451" y="1535"/>
      <point x="366" y="1436"/>
      <point x="281" y="1338" type="curve"/>
      <point x="299" y="1314"/>
      <point x="307" y="1301"/>
      <point x="328" y="1292" type="curve"/>
      <point x="414" y="1354"/>
      <point x="500" y="1415"/>
      <point x="586" y="1478" type="curve"/>
      <point x="673" y="1415"/>
      <point x="760" y="1354"/>
      <point x="847" y="1292" type="curve"/>
      <point x="869" y="1301"/>
      <point x="876" y="1314"/>
    </contour>
  </outline>
</glyph>
<glyph name="ccircumflex" format="2">
  <advance width="856"/>
  <unicode hex="0109"/>
  <outline>
    <contour>
      <point x="807" y="180" type="curve"/>
      <point x="767" y="224" type="line"/>
      <point x="628" y="109"/>
      <point x="585" y="104"/>
      <point x="514" y="104" type="curve" smooth="yes"/>
      <point x="367" y="104"/>
      <point x="235" y="238"/>
      <point x="235" y="449" type="curve" smooth="yes"/>
      <point x="235" y="688"/>
      <point x="353" y="800"/>
      <point x="479" y="800" type="curve" smooth="yes"/>
      <point x="603" y="800"/>
      <point x="667" y="729"/>
      <point x="693" y="664" type="curve"/>
      <point x="736" y="655" type="line"/>
      <point x="757" y="688"/>
      <point x="794" y="787"/>
      <point x="794" y="826" type="curve"/>
      <point x="794" y="828"/>
      <point x="794" y="831"/>
      <point x="794" y="833" type="curve"/>
      <point x="752" y="878"/>
      <point x="644" y="908"/>
      <point x="561" y="908" type="curve" smooth="yes"/>
      <point x="283" y="908"/>
      <point x="72" y="692"/>
      <point x="72" y="420" type="curve" smooth="yes"/>
      <point x="72" y="139"/>
      <point x="254" y="-28"/>
      <point x="443" y="-28" type="curve" smooth="yes"/>
      <point x="561" y="-28"/>
      <point x="642" y="-11"/>
    </contour>
    <contour>
      <point x="772" y="1036" type="curve"/>
      <point x="523" y="1397" type="line"/>
      <point x="415" y="1397" type="line"/>
      <point x="161" y="1036" type="line"/>
      <point x="179" y="1012"/>
      <point x="188" y="998"/>
      <point x="209" y="989" type="curve"/>
      <point x="295" y="1070"/>
      <point x="381" y="1150"/>
      <point x="467" y="1232" type="curve"/>
      <point x="554" y="1150"/>
      <point x="641" y="1070"/>
      <point x="728" y="989" type="curve"/>
      <point x="750" y="998"/>
      <point x="757" y="1012"/>
    </contour>
  </outline>
</glyph>
<glyph name="cdotaccent" format="2">
  <advance width="856"/>
  <unicode hex="010B"/>
  <outline>
    <contour>
      <point x="807" y="180" type="curve"/>
      <point x="767" y="224" type="line"/>
      <point x="628" y="109"/>
      <point x="585" y="104"/>
      <point x="514" y="104" type="curve" smooth="yes"/>
      <point x="367" y="104"/>
      <point x="235" y="238"/>
      <point x="235" y="449" type="curve" smooth="yes"/>
      <point x="235" y="688"/>
      <point x="353" y="800"/>
      <point x="479" y="800" type="curve" smooth="yes"/>
      <point x="603" y="800"/>
      <point x="667" y="729"/>
      <point x="693" y="664" type="curve"/>
      <point x="736" y="655" type="line"/>
      <point x="757" y="688"/>
      <point x="794" y="787"/>
      <point x="794" y="826" type="curve"/>
      <point x="794" y="828"/>
      <point x="794" y="831"/>
      <point x="794" y="833" type="curve"/>
      <point x="752" y="878"/>
      <point x="644" y="908"/>
      <point x="561" y="908" type="curve" smooth="yes"/>
      <point x="283" y="908"/>
      <point x="72" y="692"/>
      <point x="72" y="420" type="curve" smooth="yes"/>
      <point x="72" y="139"/>
      <point x="254" y="-28"/>
      <point x="443" y="-28" type="curve" smooth="yes"/>
      <point x="561" y="-28"/>
      <point x="642" y="-11"/>
    </contour>
    <contour>
      <point x="571" y="1194" type="curve" smooth="yes"/>
      <point x="571" y="1258"/>
      <point x="542" y="1290"/>
      <point x="483" y="1290" type="curve" smooth="yes"/>
      <point x="419" y="1290"/>
      <point x="364" y="1229"/>
      <point x="364" y="1152" type="curve" smooth="yes"/>
      <point x="364" y="1090"/>
      <point x="392" y="1055"/>
      <point x="453" y="1055" type="curve" smooth="yes"/>
      <point x="519" y="1055"/>
      <point x="571" y="1118"/>
    </contour>
  </outline>
</glyph>
<glyph name="ccaron" format="2">
  <advance width="856"/>
  <unicode hex="010D"/>
  <outline>
    <contour>
      <point x="807" y="180" type="curve"/>
      <point x="767" y="224" type="line"/>
      <point x="628" y="109"/>
      <point x="585" y="104"/>
      <point x="514" y="104" type="curve" smooth="yes"/>
      <point x="367" y="104"/>
      <point x="235" y="238"/>
      <point x="235" y="449" type="curve" smooth="yes"/>
      <point x="235" y="688"/>
      <point x="353" y="800"/>
      <point x="479" y="800" type="curve" smooth="yes"/>
      <point x="603" y="800"/>
      <point x="667" y="729"/>
      <point x="693" y="664" type="curve"/>
      <point x="736" y="655" type="line"/>
      <point x="757" y="688"/>
      <point x="794" y="787"/>
      <point x="794" y="826" type="curve"/>
      <point x="794" y="828"/>
      <point x="794" y="831"/>
      <point x="794" y="833" type="curve"/>
      <point x="752" y="878"/>
      <point x="644" y="908"/>
      <point x="561" y="908" type="curve" smooth="yes"/>
      <point x="283" y="908"/>
      <point x="72" y="692"/>
      <point x="72" y="420" type="curve" smooth="yes"/>
      <point x="72" y="139"/>
      <point x="254" y="-28"/>
      <point x="443" y="-28" type="curve" smooth="yes"/>
      <point x="561" y="-28"/>
      <point x="642" y="-11"/>
    </contour>
    <contour>
      <point x="774" y="1355" type="line"/>
      <point x="758" y="1379"/>
      <point x="749" y="1393"/>
      <point x="728" y="1404" type="curve"/>
      <point x="470" y="1175" type="line"/>
      <point x="383" y="1252"/>
      <point x="296" y="1328"/>
      <point x="209" y="1404" type="curve"/>
      <point x="187" y="1393"/>
      <point x="179" y="1379"/>
      <point x="162" y="1355" type="curve"/>
      <point x="414" y="1011" type="line"/>
      <point x="522" y="1011" type="line"/>
    </contour>
  </outline>
</glyph>
<glyph name="Dcaron" format="2">
  <advance width="1170"/>
  <unicode hex="010E"/>
  <unicode hex="010F"/>
  <outline>
    <contour>
      <point x="1086" y="639" type="curve" smooth="yes"/>
      <point x="1086" y="1006"/>
      <point x="864" y="1220"/>
      <point x="504" y="1220" type="curve" smooth="yes"/>
      <point x="351" y="1220"/>
      <point x="149" y="1195"/>
      <point x="36" y="1164" type="curve"/>
      <point x="45" y="1097" type="line"/>
      <point x="85" y="1103"/>
      <point x="131" y="1111"/>
      <point x="181" y="1116" type="curve"/>
      <point x="181" y="105" type="line" smooth="yes"/>
      <point x="181" y="88"/>
      <point x="131" y="64"/>
      <point x="45" y="47" type="curve"/>
      <point x="45" y="0" type="line"/>
      <point x="543" y="0" type="line" smooth="yes"/>
      <point x="775" y="0"/>
      <point x="1086" y="166"/>
    </contour>
    <contour>
      <point x="441" y="1135" type="curve" smooth="yes"/>
      <point x="738" y="1135"/>
      <point x="902" y="937"/>
      <point x="902" y="603" type="curve" smooth="yes"/>
      <point x="902" y="248"/>
      <point x="685" y="85"/>
      <point x="518" y="85" type="curve" smooth="yes"/>
      <point x="384" y="85"/>
      <point x="353" y="103"/>
      <point x="353" y="152" type="curve" smooth="yes"/>
      <point x="353" y="1132" type="line"/>
      <point x="382" y="1134"/>
      <point x="412" y="1135"/>
    </contour>
    <contour>
      <point x="834" y="1610" type="line"/>
      <point x="819" y="1635"/>
      <point x="812" y="1646"/>
      <point x="790" y="1658" type="curve"/>
      <point x="533" y="1463" type="line"/>
      <point x="271" y="1658" type="line"/>
      <point x="250" y="1646"/>
      <point x="242" y="1635"/>
      <point x="224" y="1610" type="curve"/>
      <point x="477" y="1314" type="line"/>
      <point x="585" y="1314" type="line"/>
    </contour>
  </outline>
</glyph>
<glyph name="dcroat" format="2">
  <advance width="1027"/>
  <unicode hex="0111"/>
  <outline>
    <contour>
      <point x="1015" y="86" type="curve"/>
      <point x="1000" y="134" type="line"/>
      <point x="952" y="115"/>
      <point x="925" y="107"/>
      <point x="908" y="107" type="curve" smooth="yes"/>
      <point x="879" y="107"/>
      <point x="868" y="134"/>
      <point x="868" y="250" type="curve" smooth="yes"/>
      <point x="868" y="1072" type="line"/>
      <point x="1001" y="1072" type="line"/>
      <point x="1009" y="1095"/>
      <point x="1017" y="1117"/>
      <point x="1026" y="1140" type="curve"/>
      <point x="1005" y="1164" type="line"/>
      <point x="868" y="1164" type="line"/>
      <point x="868" y="1436" type="line"/>
      <point x="837" y="1466" type="line"/>
      <point x="772" y="1445"/>
      <point x="681" y="1418"/>
      <point x="569" y="1405" type="curve"/>
      <point x="569" y="1360" type="line"/>
      <point x="701" y="1351"/>
      <point x="705" y="1337"/>
      <point x="705" y="1201" type="curve" smooth="yes"/>
      <point x="705" y="1164" type="line"/>
      <point x="440" y="1164" type="line"/>
      <point x="430" y="1144"/>
      <point x="422" y="1113"/>
      <point x="415" y="1093" type="curve"/>
      <point x="437" y="1072" type="line"/>
      <point x="705" y="1072" type="line"/>
      <point x="705" y="849" type="line"/>
      <point x="637" y="899"/>
      <point x="580" y="908"/>
      <point x="521" y="908" type="curve" smooth="yes"/>
      <point x="255" y="908"/>
      <point x="72" y="647"/>
      <point x="72" y="420" type="curve" smooth="yes"/>
      <point x="72" y="139"/>
      <point x="250" y="-28"/>
      <point x="397" y="-28" type="curve" smooth="yes"/>
      <point x="523" y="-28"/>
      <point x="606" y="38"/>
      <point x="707" y="154" type="curve"/>
      <point x="716" y="25"/>
      <point x="744" y="-29"/>
      <point x="787" y="-29" type="curve" smooth="yes"/>
      <point x="822" y="-29"/>
      <point x="899" y="8"/>
    </contour>
    <contour>
      <point x="705" y="248" type="line"/>
      <point x="627" y="174"/>
      <point x="553" y="109"/>
      <point x="471" y="109" type="curve" smooth="yes"/>
      <point x="367" y="109"/>
      <point x="235" y="244"/>
      <point x="235" y="455" type="curve" smooth="yes"/>
      <point x="235" y="686"/>
      <point x="343" y="798"/>
      <point x="495" y="798" type="curve" smooth="yes"/>
      <point x="585" y="798"/>
      <point x="662" y="757"/>
      <point x="705" y="685" type="curve"/>
      <point x="705" y="264" type="line"/>
    </contour>
  </outline>
</glyph>
<glyph name="emacron" format="2">
  <advance width="905"/>
  <unicode hex="0113"/>
  <outline>
    <contour>
      <point x="833" y="525" type="curve"/>
      <point x="833" y="697"/>
      <point x="749" y="908"/>
      <point x="501" y="908" type="curve" smooth="yes"/>
      <point x="427" y="908"/>
      <point x="336" y="871"/>
      <point x="277" y="830" type="curve" smooth="yes"/>
      <point x="147" y="739"/>
      <point x="72" y="583"/>
      <point x="72" y="412" type="curve" smooth="yes"/>
      <point x="72" y="146"/>
      <point x="244" y="-28"/>
      <point x="443" y="-28" type="curve" smooth="yes"/>
      <point x="578" y="-28"/>
      <point x="657" y="2"/>
      <point x="827" y="184" type="curve"/>
      <point x="822" y="194"/>
      <point x="805" y="220"/>
      <point x="789" y="229" type="curve"/>
      <point x="647" y="116"/>
      <point x="586" y="104"/>
      <point x="507" y="104" type="curve" smooth="yes"/>
      <point x="340" y="104"/>
      <point x="240" y="265"/>
      <point x="237" y="458" type="curve"/>
      <point x="722" y="458" type="line"/>
      <point x="762" y="474"/>
      <point x="810" y="499"/>
    </contour>
    <contour>
      <point x="472" y="805" type="curve" smooth="yes"/>
      <point x="628" y="805"/>
      <point x="660" y="653"/>
      <point x="660" y="583" type="curve" smooth="yes"/>
      <point x="660" y="556"/>
      <point x="653" y="549"/>
      <point x="624" y="549" type="curve" smooth="yes"/>
      <point x="242" y="549" type="line"/>
      <point x="263" y="701"/>
      <point x="345" y="805"/>
    </contour>
    <contour>
      <point x="839" y="1218" type="curve"/>
      <point x="815" y="1242" type="line"/>
      <point x="200" y="1242" type="line"/>
      <point x="188" y="1217"/>
      <point x="163" y="1164"/>
      <point x="158" y="1136" type="curve"/>
      <point x="181" y="1112" type="line"/>
      <point x="798" y="1112" type="line"/>
      <point x="808" y="1134"/>
      <point x="833" y="1190"/>
    </contour>
  </outline>
</glyph>
<glyph name="Ebreve" format="2">
  <advance width="975"/>
  <unicode hex="0114"/>
  <outline>
    <contour>
      <point x="920" y="245" type="curve"/>
      <point x="904" y="252"/>
      <point x="888" y="257"/>
      <point x="872" y="264" type="curve"/>
      <point x="818" y="116"/>
      <point x="777" y="92"/>
      <point x="661" y="92" type="curve" smooth="yes"/>
      <point x="546" y="92" type="line" smooth="yes"/>
      <point x="380" y="92"/>
      <point x="353" y="115"/>
      <point x="353" y="152" type="curve" smooth="yes"/>
      <point x="353" y="610" type="line"/>
      <point x="487" y="610" type="line" smooth="yes"/>
      <point x="593" y="610"/>
      <point x="635" y="595"/>
      <point x="674" y="558" type="curve"/>
      <point x="702" y="578"/>
      <point x="740" y="632"/>
      <point x="761" y="667" type="curve"/>
      <point x="735" y="695" type="line"/>
      <point x="353" y="695" type="line"/>
      <point x="353" y="1099" type="line"/>
      <point x="692" y="1099" type="line" smooth="yes"/>
      <point x="739" y="1099"/>
      <point x="764" y="1057"/>
      <point x="770" y="941" type="curve"/>
      <point x="820" y="941" type="line"/>
      <point x="835" y="989"/>
      <point x="855" y="1102"/>
      <point x="859" y="1166" type="curve"/>
      <point x="826" y="1192" type="line"/>
      <point x="45" y="1192" type="line"/>
      <point x="45" y="1144" type="line"/>
      <point x="136" y="1126"/>
      <point x="181" y="1100"/>
      <point x="181" y="1085" type="curve" smooth="yes"/>
      <point x="181" y="105" type="line" smooth="yes"/>
      <point x="181" y="88"/>
      <point x="131" y="64"/>
      <point x="45" y="47" type="curve"/>
      <point x="45" y="0" type="line"/>
      <point x="881" y="0" type="line"/>
      <point x="892" y="37"/>
      <point x="911" y="136"/>
    </contour>
    <contour>
      <point x="797" y="1591" type="curve"/>
      <point x="782" y="1614"/>
      <point x="763" y="1629"/>
      <point x="741" y="1639" type="curve"/>
      <point x="680" y="1502"/>
      <point x="569" y="1452"/>
      <point x="480" y="1452" type="curve" smooth="yes"/>
      <point x="396" y="1452"/>
      <point x="285" y="1502"/>
      <point x="223" y="1639" type="curve"/>
      <point x="202" y="1629"/>
      <point x="183" y="1614"/>
      <point x="168" y="1591" type="curve"/>
      <point x="244" y="1388"/>
      <point x="357" y="1313"/>
      <point x="484" y="1313" type="curve" smooth="yes"/>
      <point x="601" y="1313"/>
      <point x="721" y="1388"/>
    </contour>
  </outline>
</glyph>
<glyph name="ebreve" format="2">
  <advance width="905"/>
  <unicode hex="0115"/>
  <outline>
    <contour>
      <point x="833" y="525" type="curve"/>
      <point x="833" y="697"/>
      <point x="749" y="908"/>
      <point x="501" y="908" type="curve" smooth="yes"/>
      <point x="427" y="908"/>
      <point x="336" y="871"/>
      <point x="277" y="830" type="curve" smooth="yes"/>
      <point x="147" y="739"/>
      <point x="72" y="583"/>
      <point x="72" y="412" type="curve" smooth="yes"/>
      <point x="72" y="146"/>
      <point x="244" y="-28"/>
      <point x="443" y="-28" type="curve" smooth="yes"/>
      <point x="578" y="-28"/>
      <point x="657" y="2"/>
      <point x="827" y="184" type="curve"/>
      <point x="822" y="194"/>
      <point x="805" y="220"/>
      <point x="789" y="229" type="curve"/>
      <point x="647" y="116"/>
      <point x="586" y="104"/>
      <point x="507" y="104" type="curve" smooth="yes"/>
      <point x="340" y="104"/>
      <point x="240" y="265"/>
      <point x="237" y="458" type="curve"/>
      <point x="722" y="458" type="line"/>
      <point x="762" y="474"/>
      <point x="810" y="499"/>
    </contour>
    <contour>
      <point x="472" y="805" type="curve" smooth="yes"/>
      <point x="628" y="805"/>
      <point x="660" y="653"/>
      <point x="660" y="583" type="curve" smooth="yes"/>
      <point x="660" y="556"/>
      <point x="653" y="549"/>
      <point x="624" y="549" type="curve" smooth="yes"/>
      <point x="242" y="549" type="line"/>
      <point x="263" y="701"/>
      <point x="345" y="805"/>
    </contour>
    <contour>
      <point x="804" y="1288" type="curve"/>
      <point x="789" y="1311"/>
      <point x="770" y="1326"/>
      <point x="748" y="1336" type="curve"/>
      <point x="687" y="1199"/>
      <point x="576" y="1149"/>
      <point x="487" y="1149" type="curve" smooth="yes"/>
      <point x="403" y="1149"/>
      <point x="292" y="1199"/>
      <point x="230" y="1336" type="curve"/>
      <point x="209" y="1326"/>
      <point x="190" y="1311"/>
      <point x="175" y="1288" type="curve"/>
      <point x="251" y="1085"/>
      <point x="364" y="1010"/>
      <point x="491" y="1010" type="curve" smooth="yes"/>
      <point x="608" y="1010"/>
      <point x="728" y="1085"/>
    </contour>
  </outline>
</glyph>
<glyph name="Gcircumflex" format="2">
  <advance width="1139"/>
  <unicode hex="011C"/>
  <outline>
    <contour>
      <point x="998" y="1124" type="curve" smooth="yes"/>
      <point x="916" y="1185"/>
      <point x="783" y="1220"/>
      <point x="700" y="1220" type="curve" smooth="yes"/>
      <point x="347" y="1220"/>
      <point x="62" y="971"/>
      <point x="62" y="551" type="curve" smooth="yes"/>
      <point x="62" y="161"/>
      <point x="329" y="-28"/>
      <point x="588" y="-28" type="curve" smooth="yes"/>
      <point x="702" y="-28"/>
      <point x="809" y="-4"/>
      <point x="996" y="149" type="curve"/>
      <point x="996" y="455" type="line" smooth="yes"/>
      <point x="996" y="484"/>
      <point x="1021" y="516"/>
      <point x="1093" y="533" type="curve"/>
      <point x="1093" y="580" type="line"/>
      <point x="649" y="580" type="line"/>
      <point x="649" y="533" type="line"/>
      <point x="799" y="508"/>
      <point x="833" y="483"/>
      <point x="833" y="455" type="curve" smooth="yes"/>
      <point x="833" y="143" type="line"/>
      <point x="775" y="111"/>
      <point x="704" y="94"/>
      <point x="617" y="94" type="curve" smooth="yes"/>
      <point x="428" y="94"/>
      <point x="232" y="255"/>
      <point x="232" y="603" type="curve" smooth="yes"/>
      <point x="232" y="996"/>
      <point x="478" y="1113"/>
      <point x="572" y="1113" type="curve" smooth="yes"/>
      <point x="693" y="1113"/>
      <point x="782" y="1089"/>
      <point x="866" y="999" type="curve"/>
      <point x="878" y="996"/>
      <point x="891" y="994"/>
      <point x="904" y="992" type="curve"/>
      <point x="934" y="1018"/>
      <point x="1001" y="1094"/>
      <point x="1001" y="1118" type="curve" smooth="yes"/>
      <point x="1001" y="1121"/>
      <point x="1000" y="1123"/>
    </contour>
    <contour>
      <point x="913" y="1338" type="curve"/>
      <point x="829" y="1436"/>
      <point x="746" y="1535"/>
      <point x="662" y="1634" type="curve"/>
      <point x="557" y="1634" type="line"/>
      <point x="473" y="1535"/>
      <point x="388" y="1436"/>
      <point x="303" y="1338" type="curve"/>
      <point x="321" y="1314"/>
      <point x="329" y="1301"/>
      <point x="350" y="1292" type="curve"/>
      <point x="436" y="1354"/>
      <point x="522" y="1415"/>
      <point x="608" y="1478" type="curve"/>
      <point x="695" y="1415"/>
      <point x="782" y="1354"/>
      <point x="869" y="1292" type="curve"/>
      <point x="891" y="1301"/>
      <point x="898" y="1314"/>
    </contour>
  </outline>
</glyph>
<glyph name="gcircumflex" format="2">
  <advance width="959"/>
  <unicode hex="011D"/>
  <outline>
    <contour>
      <point x="801" y="606" type="curve" smooth="yes"/>
      <point x="801" y="663"/>
      <point x="783" y="718"/>
      <point x="751" y="763" type="curve"/>
      <point x="808" y="765"/>
      <point x="852" y="772"/>
      <point x="897" y="780" type="curve"/>
      <point x="925" y="811"/>
      <point x="938" y="845"/>
      <point x="951" y="878" type="curve"/>
      <point x="945" y="888"/>
      <point x="938" y="898"/>
      <point x="931" y="908" type="curve"/>
      <point x="879" y="888"/>
      <point x="797" y="859"/>
      <point x="671" y="846" type="curve"/>
      <point x="616" y="885"/>
      <point x="546" y="908"/>
      <point x="468" y="908" type="curve" smooth="yes"/>
      <point x="275" y="908"/>
      <point x="91" y="755"/>
      <point x="91" y="569" type="curve" smooth="yes"/>
      <point x="91" y="429"/>
      <point x="179" y="329"/>
      <point x="309" y="292" type="curve"/>
      <point x="191" y="211"/>
      <point x="165" y="160"/>
      <point x="165" y="137" type="curve" smooth="yes"/>
      <point x="165" y="101"/>
      <point x="195" y="64"/>
      <point x="274" y="35" type="curve"/>
      <point x="63" y="-78"/>
      <point x="25" y="-149"/>
      <point x="25" y="-215" type="curve" smooth="yes"/>
      <point x="25" y="-398"/>
      <point x="269" y="-471"/>
      <point x="451" y="-471" type="curve" smooth="yes"/>
      <point x="678" y="-471"/>
      <point x="933" y="-310"/>
      <point x="933" y="-110" type="curve" smooth="yes"/>
      <point x="933" y="-12"/>
      <point x="859" y="78"/>
      <point x="578" y="111" type="curve" smooth="yes"/>
      <point x="381" y="134"/>
      <point x="343" y="162"/>
      <point x="343" y="188" type="curve" smooth="yes"/>
      <point x="343" y="196"/>
      <point x="360" y="230"/>
      <point x="416" y="279" type="curve"/>
      <point x="420" y="279" type="line"/>
      <point x="612" y="278"/>
      <point x="801" y="412"/>
    </contour>
    <contour>
      <point x="499" y="-13" type="curve"/>
      <point x="721" y="-38"/>
      <point x="772" y="-88"/>
      <point x="772" y="-152" type="curve" smooth="yes"/>
      <point x="772" y="-272"/>
      <point x="671" y="-362"/>
      <point x="506" y="-362" type="curve" smooth="yes"/>
      <point x="334" y="-362"/>
      <point x="188" y="-278"/>
      <point x="188" y="-178" type="curve" smooth="yes"/>
      <point x="188" y="-138"/>
      <point x="202" y="-84"/>
      <point x="365" y="9" type="curve"/>
      <point x="404" y="0"/>
      <point x="447" y="-6"/>
    </contour>
    <contour>
      <point x="647" y="568" type="curve" smooth="yes"/>
      <point x="647" y="444"/>
      <point x="562" y="381"/>
      <point x="488" y="381" type="curve" smooth="yes"/>
      <point x="320" y="381"/>
      <point x="245" y="491"/>
      <point x="245" y="623" type="curve" smooth="yes"/>
      <point x="245" y="746"/>
      <point x="341" y="810"/>
      <point x="404" y="810" type="curve" smooth="yes"/>
      <point x="564" y="810"/>
      <point x="647" y="700"/>
    </contour>
    <contour>
      <point x="783" y="1036" type="curve"/>
      <point x="534" y="1397" type="line"/>
      <point x="426" y="1397" type="line"/>
      <point x="172" y="1036" type="line"/>
      <point x="190" y="1012"/>
      <point x="199" y="998"/>
      <point x="220" y="989" type="curve"/>
      <point x="306" y="1070"/>
      <point x="392" y="1150"/>
      <point x="478" y="1232" type="curve"/>
      <point x="565" y="1150"/>
      <point x="652" y="1070"/>
      <point x="739" y="989" type="curve"/>
      <point x="761" y="998"/>
      <point x="768" y="1012"/>
    </contour>
  </outline>
</glyph>
<glyph name="Gbreve" format="2">
  <advance width="1139"/>
  <unicode hex="011E"/>
  <outline>
    <contour>
      <point x="998" y="1124" type="curve" smooth="yes"/>
      <point x="916" y="1185"/>
      <point x="783" y="1220"/>
      <point x="700" y="1220" type="curve" smooth="yes"/>
      <point x="347" y="1220"/>
      <point x="62" y="971"/>
      <point x="62" y="551" type="curve" smooth="yes"/>
      <point x="62" y="161"/>
      <point x="329" y="-28"/>
      <point x="588" y="-28" type="curve" smooth="yes"/>
      <point x="702" y="-28"/>
      <point x="809" y="-4"/>
      <point x="996" y="149" type="curve"/>
      <point x="996" y="455" type="line" smooth="yes"/>
      <point x="996" y="484"/>
      <point x="1021" y="516"/>
      <point x="1093" y="533" type="curve"/>
      <point x="1093" y="580" type="line"/>
      <point x="649" y="580" type="line"/>
      <point x="649" y="533" type="line"/>
      <point x="799" y="508"/>
      <point x="833" y="483"/>
      <point x="833" y="455" type="curve" smooth="yes"/>
      <point x="833" y="143" type="line"/>
      <point x="775" y="111"/>
      <point x="704" y="94"/>
      <point x="617" y="94" type="curve" smooth="yes"/>
      <point x="428" y="94"/>
      <point x="232" y="255"/>
      <point x="232" y="603" type="curve" smooth="yes"/>
      <point x="232" y="996"/>
      <point x="478" y="1113"/>
      <point x="572" y="1113" type="curve" smooth="yes"/>
      <point x="693" y="1113"/>
      <point x="782" y="1089"/>
      <point x="866" y="999" type="curve"/>
      <point x="878" y="996"/>
      <point x="891" y="994"/>
      <point x="904" y="992" type="curve"/>
      <point x="934" y="1018"/>
      <point x="1001" y="1094"/>
      <point x="1001" y="1118" type="curve" smooth="yes"/>
      <point x="1001" y="1121"/>
      <point x="1000" y="1123"/>
    </contour>
    <contour>
      <point x="924" y="1591" type="curve"/>
      <point x="909" y="1614"/>
      <point x="890" y="1629"/>
      <point x="868" y="1639" type="curve"/>
      <point x="807" y="1502"/>
      <point x="696" y="1452"/>
      <point x="607" y="1452" type="curve" smooth="yes"/>
      <point x="523" y="1452"/>
      <point x="412" y="1502"/>
      <point x="350" y="1639" type="curve"/>
      <point x="329" y="1629"/>
      <point x="310" y="1614"/>
      <point x="295" y="1591" type="curve"/>
      <point x="371" y="1388"/>
      <point x="484" y="1313"/>
      <point x="611" y="1313" type="curve" smooth="yes"/>
      <point x="728" y="1313"/>
      <point x="848" y="1388"/>
    </contour>
  </outline>
</glyph>
<glyph name="Hcircumflex" format="2">
  <advance width="1281"/>
  <unicode hex="0124"/>
  <outline>
    <contour>
      <point x="489" y="0" type="line"/>
      <point x="489" y="47" type="line"/>
      <point x="397" y="64"/>
      <point x="353" y="90"/>
      <point x="353" y="105" type="curve" smooth="yes"/>
      <point x="353" y="578" type="line"/>
      <point x="909" y="578" type="line"/>
      <point x="909" y="105" type="line" smooth="yes"/>
      <point x="909" y="88"/>
      <point x="859" y="64"/>
      <point x="774" y="47" type="curve"/>
      <point x="774" y="0" type="line"/>
      <point x="1217" y="0" type="line"/>
      <point x="1217" y="47" type="line"/>
      <point x="1126" y="64"/>
      <point x="1082" y="90"/>
      <point x="1082" y="105" type="curve" smooth="yes"/>
      <point x="1082" y="1085" type="line" smooth="yes"/>
      <point x="1082" y="1103"/>
      <point x="1132" y="1126"/>
      <point x="1217" y="1144" type="curve"/>
      <point x="1217" y="1192" type="line"/>
      <point x="774" y="1192" type="line"/>
      <point x="774" y="1144" type="line"/>
      <point x="865" y="1126"/>
      <point x="909" y="1100"/>
      <point x="909" y="1085" type="curve" smooth="yes"/>
      <point x="909" y="670" type="line"/>
      <point x="353" y="670" type="line"/>
      <point x="353" y="1085" type="line" smooth="yes"/>
      <point x="353" y="1103"/>
      <point x="404" y="1126"/>
      <point x="489" y="1144" type="curve"/>
      <point x="489" y="1192" type="line"/>
      <point x="45" y="1192" type="line"/>
      <point x="45" y="1144" type="line"/>
      <point x="136" y="1126"/>
      <point x="181" y="1100"/>
      <point x="181" y="1085" type="curve" smooth="yes"/>
      <point x="181" y="105" type="line" smooth="yes"/>
      <point x="181" y="88"/>
      <point x="131" y="64"/>
      <point x="45" y="47" type="curve"/>
      <point x="45" y="0" type="line"/>
    </contour>
    <contour>
      <point x="935" y="1338" type="curve"/>
      <point x="851" y="1436"/>
      <point x="768" y="1535"/>
      <point x="684" y="1634" type="curve"/>
      <point x="579" y="1634" type="line"/>
      <point x="495" y="1535"/>
      <point x="410" y="1436"/>
      <point x="325" y="1338" type="curve"/>
      <point x="343" y="1314"/>
      <point x="351" y="1301"/>
      <point x="372" y="1292" type="curve"/>
      <point x="458" y="1354"/>
      <point x="544" y="1415"/>
      <point x="630" y="1478" type="curve"/>
      <point x="717" y="1415"/>
      <point x="804" y="1354"/>
      <point x="891" y="1292" type="curve"/>
      <point x="913" y="1301"/>
      <point x="920" y="1314"/>
    </contour>
  </outline>
</glyph>
<glyph name="Itilde" format="2">
  <advance width="591"/>
  <unicode hex="0128"/>
  <outline>
    <contour>
      <point x="508" y="0" type="line"/>
      <point x="508" y="47" type="line"/>
      <point x="417" y="64"/>
      <point x="372" y="90"/>
      <point x="372" y="105" type="curve" smooth="yes"/>
      <point x="372" y="1085" type="line" smooth="yes"/>
      <point x="372" y="1103"/>
      <point x="423" y="1126"/>
      <point x="508" y="1144" type="curve"/>
      <point x="508" y="1192" type="line"/>
      <point x="64" y="1192" type="line"/>
      <point x="64" y="1144" type="line"/>
      <point x="155" y="1126"/>
      <point x="200" y="1100"/>
      <point x="200" y="1085" type="curve" smooth="yes"/>
      <point x="200" y="105" type="line" smooth="yes"/>
      <point x="200" y="88"/>
      <point x="149" y="64"/>
      <point x="64" y="47" type="curve"/>
      <point x="64" y="0" type="line"/>
    </contour>
    <contour>
      <point x="621" y="1545" type="curve"/>
      <point x="602" y="1553"/>
      <point x="583" y="1562"/>
      <point x="564" y="1569" type="curve"/>
      <point x="522" y="1495"/>
      <point x="477" y="1454"/>
      <point x="427" y="1454" type="curve" smooth="yes"/>
      <point x="362" y="1454"/>
      <point x="283" y="1560"/>
      <point x="182" y="1560" type="curve" smooth="yes"/>
      <point x="79" y="1560"/>
      <point x="-5" y="1435"/>
      <point x="-49" y="1332" type="curve"/>
      <point x="-30" y="1325"/>
      <point x="-13" y="1318"/>
      <point x="6" y="1312" type="curve"/>
      <point x="53" y="1382"/>
      <point x="90" y="1425"/>
      <point x="142" y="1425" type="curve" smooth="yes"/>
      <point x="221" y="1425"/>
      <point x="296" y="1320"/>
      <point x="388" y="1320" type="curve" smooth="yes"/>
      <point x="491" y="1320"/>
      <point x="576" y="1443"/>
    </contour>
  </outline>
</glyph>
<glyph name="itilde" format="2">
  <advance width="539"/>
  <unicode hex="0129"/>
  <outline>
    <contour>
      <point x="612" y="1280" type="curve"/>
      <point x="555" y="1304" type="line"/>
      <point x="513" y="1230"/>
      <point x="468" y="1189"/>
      <point x="418" y="1189" type="curve" smooth="yes"/>
      <point x="353" y="1189"/>
      <point x="274" y="1295"/>
      <point x="173" y="1295" type="curve" smooth="yes"/>
      <point x="70" y="1295"/>
      <point x="-14" y="1170"/>
      <point x="-58" y="1067" type="curve"/>
      <point x="-39" y="1060"/>
      <point x="-22" y="1053"/>
      <point x="-3" y="1047" type="curve"/>
      <point x="44" y="1117"/>
      <point x="81" y="1160"/>
      <point x="133" y="1160" type="curve" smooth="yes"/>
      <point x="212" y="1160"/>
      <point x="287" y="1054"/>
      <point x="379" y="1054" type="curve" smooth="yes"/>
      <point x="482" y="1054"/>
      <point x="567" y="1178"/>
    </contour>
    <contour>
      <point x="489" y="0" type="line"/>
      <point x="489" y="47" type="line"/>
      <point x="397" y="64"/>
      <point x="358" y="90"/>
      <point x="358" y="105" type="curve" smooth="yes"/>
      <point x="358" y="908" type="line"/>
      <point x="319" y="908" type="line"/>
      <point x="250" y="877"/>
      <point x="151" y="849"/>
      <point x="64" y="834" type="curve"/>
      <point x="64" y="789" type="line"/>
      <point x="198" y="777"/>
      <point x="195" y="758"/>
      <point x="195" y="628" type="curve" smooth="yes"/>
      <point x="195" y="105" type="line" smooth="yes"/>
      <point x="195" y="88"/>
      <point x="149" y="64"/>
      <point x="64" y="47" type="curve"/>
      <point x="64" y="0" type="line"/>
    </contour>
  </outline>
</glyph>
<glyph name="Imacron" format="2">
  <advance width="591"/>
  <unicode hex="012A"/>
  <outline>
    <contour>
      <point x="508" y="0" type="line"/>
      <point x="508" y="47" type="line"/>
      <point x="417" y="64"/>
      <point x="372" y="90"/>
      <point x="372" y="105" type="curve" smooth="yes"/>
      <point x="372" y="1085" type="line" smooth="yes"/>
      <point x="372" y="1103"/>
      <point x="423" y="1126"/>
      <point x="508" y="1144" type="curve"/>
      <point x="508" y="1192" type="line"/>
      <point x="64" y="1192" type="line"/>
      <point x="64" y="1144" type="line"/>
      <point x="155" y="1126"/>
      <point x="200" y="1100"/>
      <point x="200" y="1085" type="curve" smooth="yes"/>
      <point x="200" y="105" type="line" smooth="yes"/>
      <point x="200" y="88"/>
      <point x="149" y="64"/>
      <point x="64" y="47" type="curve"/>
      <point x="64" y="0" type="line"/>
    </contour>
    <contour>
      <point x="553" y="1511" type="curve"/>
      <point x="530" y="1536" type="line"/>
      <point x="80" y="1536" type="line"/>
      <point x="68" y="1511"/>
      <point x="43" y="1458"/>
      <point x="38" y="1430" type="curve"/>
      <point x="46" y="1422"/>
      <point x="53" y="1413"/>
      <point x="60" y="1405" type="curve"/>
      <point x="512" y="1405" type="line"/>
      <point x="522" y="1427"/>
      <point x="547" y="1484"/>
    </contour>
  </outline>
</glyph>
<glyph name="imacron" format="2">
  <advance width="539"/>
  <unicode hex="012B"/>
  <outline>
    <contour>
      <point x="489" y="0" type="line"/>
      <point x="489" y="47" type="line"/>
      <point x="397" y="64"/>
      <point x="358" y="90"/>
      <point x="358" y="105" type="curve" smooth="yes"/>
      <point x="358" y="908" type="line"/>
      <point x="319" y="908" type="line"/>
      <point x="250" y="877"/>
      <point x="151" y="849"/>
      <point x="64" y="834" type="curve"/>
      <point x="64" y="789" type="line"/>
      <point x="198" y="777"/>
      <point x="195" y="758"/>
      <point x="195" y="628" type="curve" smooth="yes"/>
      <point x="195" y="105" type="line" smooth="yes"/>
      <point x="195" y="88"/>
      <point x="149" y="64"/>
      <point x="64" y="47" type="curve"/>
      <point x="64" y="0" type="line"/>
    </contour>
    <contour>
      <point x="544" y="1218" type="curve"/>
      <point x="521" y="1242" type="line"/>
      <point x="71" y="1242" type="line"/>
      <point x="59" y="1217"/>
      <point x="34" y="1164"/>
      <point x="29" y="1136" type="curve"/>
      <point x="51" y="1112" type="line"/>
      <point x="503" y="1112" type="line"/>
      <point x="513" y="1134"/>
      <point x="538" y="1190"/>
    </contour>
  </outline>
</glyph>
<glyph name="Ibreve" format="2">
  <advance width="591"/>
  <unicode hex="012C"/>
  <outline>
    <contour>
      <point x="508" y="0" type="line"/>
      <point x="508" y="47" type="line"/>
      <point x="417" y="64"/>
      <point x="372" y="90"/>
      <point x="372" y="105" type="curve" smooth="yes"/>
      <point x="372" y="1085" type="line" smooth="yes"/>
      <point x="372" y="1103"/>
      <point x="423" y="1126"/>
      <point x="508" y="1144" type="curve"/>
      <point x="508" y="1192" type="line"/>
      <point x="64" y="1192" type="line"/>
      <point x="64" y="1144" type="line"/>
      <point x="155" y="1126"/>
      <point x="200" y="1100"/>
      <point x="200" y="1085" type="curve" smooth="yes"/>
      <point x="200" y="105" type="line" smooth="yes"/>
      <point x="200" y="88"/>
      <point x="149" y="64"/>
      <point x="64" y="47" type="curve"/>
      <point x="64" y="0" type="line"/>
    </contour>
    <contour>
      <point x="601" y="1591" type="curve"/>
      <point x="586" y="1614"/>
      <point x="567" y="1629"/>
      <point x="545" y="1639" type="curve"/>
      <point x="484" y="1502"/>
      <point x="373" y="1452"/>
      <point x="284" y="1452" type="curve" smooth="yes"/>
      <point x="200" y="1452"/>
      <point x="89" y="1502"/>
      <point x="27" y="1639" type="curve"/>
      <point x="6" y="1629"/>
      <point x="-13" y="1614"/>
      <point x="-28" y="1591" type="curve"/>
      <point x="48" y="1388"/>
      <point x="161" y="1313"/>
      <point x="288" y="1313" type="curve" smooth="yes"/>
      <point x="405" y="1313"/>
      <point x="525" y="1388"/>
    </contour>
  </outline>
</glyph>
<glyph name="Idotaccent" format="2">
  <advance width="591"/>
  <unicode hex="0130"/>
  <outline>
    <contour>
      <point x="508" y="0" type="line"/>
      <point x="508" y="47" type="line"/>
      <point x="417" y="64"/>
      <point x="372" y="90"/>
      <point x="372" y="105" type="curve" smooth="yes"/>
      <point x="372" y="1085" type="line" smooth="yes"/>
      <point x="372" y="1103"/>
      <point x="423" y="1126"/>
      <point x="508" y="1144" type="curve"/>
      <point x="508" y="1192" type="line"/>
      <point x="64" y="1192" type="line"/>
      <point x="64" y="1144" type="line"/>
      <point x="155" y="1126"/>
      <point x="200" y="1100"/>
      <point x="200" y="1085" type="curve" smooth="yes"/>
      <point x="200" y="105" type="line" smooth="yes"/>
      <point x="200" y="88"/>
      <point x="149" y="64"/>
      <point x="64" y="47" type="curve"/>
      <point x="64" y="0" type="line"/>
    </contour>
    <contour>
      <point x="389" y="1459" type="curve" smooth="yes"/>
      <point x="389" y="1523"/>
      <point x="360" y="1555"/>
      <point x="301" y="1555" type="curve" smooth="yes"/>
      <point x="237" y="1555"/>
      <point x="182" y="1494"/>
      <point x="182" y="1417" type="curve" smooth="yes"/>
      <point x="182" y="1356"/>
      <point x="210" y="1320"/>
      <point x="271" y="1320" type="curve" smooth="yes"/>
      <point x="337" y="1320"/>
      <point x="389" y="1383"/>
    </contour>
  </outline>
</glyph>
<glyph name="idotless" format="2">
  <advance width="539"/>
  <unicode hex="0131"/>
  <outline>
    <contour>
      <point x="489" y="0" type="line"/>
      <point x="489" y="47" type="line"/>
      <point x="397" y="64"/>
      <point x="358" y="90"/>
      <point x="358" y="105" type="curve" smooth="yes"/>
      <point x="358" y="908" type="line"/>
      <point x="319" y="908" type="line"/>
      <point x="250" y="877"/>
      <point x="151" y="849"/>
      <point x="64" y="834" type="curve"/>
      <point x="64" y="789" type="line"/>
      <point x="198" y="777"/>
      <point x="195" y="758"/>
      <point x="195" y="628" type="curve" smooth="yes"/>
      <point x="195" y="105" type="line" smooth="yes"/>
      <point x="195" y="88"/>
      <point x="149" y="64"/>
      <point x="64" y="47" type="curve"/>
      <point x="64" y="0" type="line"/>
    </contour>
  </outline>
</glyph>
<glyph name="IJ" format="2">
  <advance width="1196"/>
  <unicode hex="0132"/>
  <outline>
    <contour>
      <point x="508" y="0" type="line"/>
      <point x="508" y="47" type="line"/>
      <point x="417" y="64"/>
      <point x="372" y="90"/>
      <point x="372" y="105" type="curve" smooth="yes"/>
      <point x="372" y="1085" type="line" smooth="yes"/>
      <point x="372" y="1103"/>
      <point x="423" y="1126"/>
      <point x="508" y="1144" type="curve"/>
      <point x="508" y="1192" type="line"/>
      <point x="64" y="1192" type="line"/>
      <point x="64" y="1144" type="line"/>
      <point x="155" y="1126"/>
      <point x="200" y="1100"/>
      <point x="200" y="1085" type="curve" smooth="yes"/>
      <point x="200" y="105" type="line" smooth="yes"/>
      <point x="200" y="88"/>
      <point x="149" y="64"/>
      <point x="64" y="47" type="curve"/>
      <point x="64" y="0" type="line"/>
    </contour>
    <contour>
      <point x="1132" y="1144" type="curve"/>
      <point x="1132" y="1192" type="line"/>
      <point x="641" y="1192" type="line"/>
      <point x="641" y="1144" type="line"/>
      <point x="792" y="1122"/>
      <point x="824" y="1100"/>
      <point x="824" y="1085" type="curve" smooth="yes"/>
      <point x="824" y="120" type="line" smooth="yes"/>
      <point x="824" y="-176"/>
      <point x="739" y="-241"/>
      <point x="672" y="-241" type="curve" smooth="yes"/>
      <point x="624" y="-241"/>
      <point x="585" y="-230"/>
      <point x="515" y="-180" type="curve"/>
      <point x="480" y="-193"/>
      <point x="394" y="-266"/>
      <point x="394" y="-289" type="curve" smooth="yes"/>
      <point x="394" y="-312"/>
      <point x="482" y="-368"/>
      <point x="567" y="-368" type="curve" smooth="yes"/>
      <point x="626" y="-368"/>
      <point x="732" y="-333"/>
      <point x="800" y="-278" type="curve" smooth="yes"/>
      <point x="899" y="-198"/>
      <point x="997" y="-105"/>
      <point x="997" y="188" type="curve" smooth="yes"/>
      <point x="997" y="1085" type="line" smooth="yes"/>
      <point x="997" y="1103"/>
      <point x="1047" y="1126"/>
    </contour>
  </outline>
</glyph>
<glyph name="ij" format="2">
  <advance width="1054"/>
  <unicode hex="0133"/>
  <outline>
    <contour>
      <point x="388" y="1193" type="curve" smooth="yes"/>
      <point x="388" y="1255"/>
      <point x="353" y="1286"/>
      <point x="295" y="1286" type="curve" smooth="yes"/>
      <point x="229" y="1286"/>
      <point x="174" y="1229"/>
      <point x="174" y="1154" type="curve" smooth="yes"/>
      <point x="174" y="1093"/>
      <point x="206" y="1060"/>
      <point x="266" y="1060" type="curve" smooth="yes"/>
      <point x="336" y="1060"/>
      <point x="388" y="1118"/>
    </contour>
    <contour>
      <point x="489" y="0" type="line"/>
      <point x="489" y="47" type="line"/>
      <point x="397" y="64"/>
      <point x="358" y="90"/>
      <point x="358" y="105" type="curve" smooth="yes"/>
      <point x="358" y="908" type="line"/>
      <point x="319" y="908" type="line"/>
      <point x="250" y="877"/>
      <point x="151" y="849"/>
      <point x="64" y="834" type="curve"/>
      <point x="64" y="789" type="line"/>
      <point x="198" y="777"/>
      <point x="195" y="758"/>
      <point x="195" y="628" type="curve" smooth="yes"/>
      <point x="195" y="105" type="line" smooth="yes"/>
      <point x="195" y="88"/>
      <point x="149" y="64"/>
      <point x="64" y="47" type="curve"/>
      <point x="64" y="0" type="line"/>
    </contour>
    <contour>
      <point x="924" y="1193" type="curve" smooth="yes"/>
      <point x="924" y="1255"/>
      <point x="888" y="1286"/>
      <point x="830" y="1286" type="curve" smooth="yes"/>
      <point x="763" y="1286"/>
      <point x="709" y="1229"/>
      <point x="709" y="1154" type="curve" smooth="yes"/>
      <point x="709" y="1093"/>
      <point x="742" y="1060"/>
      <point x="802" y="1060" type="curve" smooth="yes"/>
      <point x="871" y="1060"/>
      <point x="924" y="1118"/>
    </contour>
    <contour>
      <point x="892" y="908" type="line"/>
      <point x="850" y="908" type="line"/>
      <point x="766" y="875"/>
      <point x="711" y="853"/>
      <point x="599" y="834" type="curve"/>
      <point x="599" y="789" type="line"/>
      <point x="730" y="775"/>
      <point x="729" y="758"/>
      <point x="729" y="628" type="curve" smooth="yes"/>
      <point x="729" y="41" type="line" smooth="yes"/>
      <point x="729" y="-259"/>
      <point x="656" y="-334"/>
      <point x="585" y="-334" type="curve" smooth="yes"/>
      <point x="538" y="-334"/>
      <point x="487" y="-322"/>
      <point x="445" y="-283" type="curve"/>
      <point x="409" y="-300"/>
      <point x="315" y="-375"/>
      <point x="315" y="-400" type="curve" smooth="yes"/>
      <point x="315" y="-423"/>
      <point x="405" y="-471"/>
      <point x="488" y="-471" type="curve" smooth="yes"/>
      <point x="542" y="-471"/>
      <point x="637" y="-429"/>
      <point x="704" y="-375" type="curve" smooth="yes"/>
      <point x="805" y="-293"/>
      <point x="892" y="-195"/>
      <point x="892" y="95" type="curve" smooth="yes"/>
    </contour>
  </outline>
</glyph>
<glyph name="Lacute" format="2">
  <advance width="938"/>
  <unicode hex="0139"/>
  <outline>
    <contour>
      <point x="911" y="245" type="curve"/>
      <point x="894" y="252"/>
      <point x="879" y="257"/>
      <point x="863" y="264" type="curve"/>
      <point x="809" y="116"/>
      <point x="774" y="92"/>
      <point x="657" y="92" type="curve" smooth="yes"/>
      <point x="529" y="92" type="line" smooth="yes"/>
      <point x="391" y="92"/>
      <point x="353" y="117"/>
      <point x="353" y="162" type="curve" smooth="yes"/>
      <point x="353" y="1085" type="line" smooth="yes"/>
      <point x="353" y="1103"/>
      <point x="404" y="1126"/>
      <point x="489" y="1144" type="curve"/>
      <point x="489" y="1192" type="line"/>
      <point x="45" y="1192" type="line"/>
      <point x="45" y="1144" type="line"/>
      <point x="136" y="1126"/>
      <point x="181" y="1100"/>
      <point x="181" y="1085" type="curve" smooth="yes"/>
      <point x="181" y="105" type="line" smooth="yes"/>
      <point x="181" y="88"/>
      <point x="131" y="64"/>
      <point x="45" y="47" type="curve"/>
      <point x="45" y="0" type="line"/>
      <point x="872" y="0" type="line"/>
      <point x="881" y="37"/>
      <point x="901" y="136"/>
    </contour>
    <contour>
      <point x="771" y="1521" type="curve"/>
      <point x="762" y="1566" type="line"/>
      <point x="743" y="1586"/>
      <point x="671" y="1625"/>
      <point x="637" y="1645" type="curve"/>
      <point x="275" y="1339" type="line"/>
      <point x="292" y="1315"/>
      <point x="302" y="1301"/>
      <point x="323" y="1292" type="curve"/>
      <point x="473" y="1368"/>
      <point x="622" y="1445"/>
    </contour>
  </outline>
</glyph>
<glyph name="lacute" format="2">
  <advance width="539"/>
  <unicode hex="013A"/>
  <outline>
    <contour>
      <point x="498" y="0" type="line"/>
      <point x="498" y="47" type="line"/>
      <point x="395" y="64"/>
      <point x="358" y="86"/>
      <point x="358" y="105" type="curve" smooth="yes"/>
      <point x="358" y="1432" type="line"/>
      <point x="322" y="1466" type="line"/>
      <point x="239" y="1426"/>
      <point x="163" y="1409"/>
      <point x="64" y="1391" type="curve"/>
      <point x="64" y="1345" type="line"/>
      <point x="170" y="1333"/>
      <point x="195" y="1333"/>
      <point x="195" y="1219" type="curve" smooth="yes"/>
      <point x="195" y="105" type="line" smooth="yes"/>
      <point x="195" y="84"/>
      <point x="164" y="66"/>
      <point x="55" y="47" type="curve"/>
      <point x="55" y="0" type="line"/>
    </contour>
    <contour>
      <point x="599" y="1823" type="curve"/>
      <point x="590" y="1868" type="line"/>
      <point x="571" y="1888"/>
      <point x="499" y="1927"/>
      <point x="465" y="1947" type="curve"/>
      <point x="103" y="1641" type="line"/>
      <point x="120" y="1617"/>
      <point x="130" y="1603"/>
      <point x="151" y="1594" type="curve"/>
      <point x="301" y="1670"/>
      <point x="450" y="1747"/>
    </contour>
  </outline>
</glyph>
<glyph name="Lslash" format="2">
  <advance width="938"/>
  <unicode hex="0141"/>
  <outline>
    <contour>
      <point x="911" y="245" type="curve"/>
      <point x="894" y="252"/>
      <point x="879" y="257"/>
      <point x="863" y="264" type="curve"/>
      <point x="809" y="116"/>
      <point x="774" y="92"/>
      <point x="657" y="92" type="curve" smooth="yes"/>
      <point x="529" y="92" type="line" smooth="yes"/>
      <point x="391" y="92"/>
      <point x="353" y="117"/>
      <point x="353" y="162" type="curve" smooth="yes"/>
      <point x="353" y="576" type="line"/>
      <point x="594" y="698" type="line"/>
      <point x="612" y="722"/>
      <point x="633" y="764"/>
      <point x="642" y="790" type="curve"/>
      <point x="617" y="813" type="line"/>
      <point x="353" y="680" type="line"/>
      <point x="353" y="1085" type="line" smooth="yes"/>
      <point x="353" y="1103"/>
      <point x="404" y="1126"/>
      <point x="489" y="1144" type="curve"/>
      <point x="489" y="1192" type="line"/>
      <point x="45" y="1192" type="line"/>
      <point x="45" y="1144" type="line"/>
      <point x="136" y="1126"/>
      <point x="181" y="1100"/>
      <point x="181" y="1085" type="curve" smooth="yes"/>
      <point x="181" y="592" type="line"/>
      <point x="147" y="576"/>
      <point x="114" y="559"/>
      <point x="81" y="543" type="curve"/>
      <point x="65" y="526"/>
      <point x="43" y="476"/>
      <point x="35" y="449" type="curve"/>
      <point x="61" y="429" type="line"/>
      <point x="181" y="489" type="line"/>
      <point x="181" y="105" type="line" smooth="yes"/>
      <point x="181" y="88"/>
      <point x="131" y="64"/>
      <point x="45" y="47" type="curve"/>
      <point x="45" y="0" type="line"/>
      <point x="872" y="0" type="line"/>
      <point x="881" y="37"/>
      <point x="901" y="136"/>
    </contour>
  </outline>
</glyph>
<glyph name="lslash" format="2">
  <advance width="562"/>
  <unicode hex="0142"/>
  <outline>
    <contour>
      <point x="510" y="0" type="line"/>
      <point x="510" y="47" type="line"/>
      <point x="406" y="64"/>
      <point x="370" y="86"/>
      <point x="370" y="105" type="curve" smooth="yes"/>
      <point x="370" y="740" type="line"/>
      <point x="500" y="832" type="line"/>
      <point x="517" y="874"/>
      <point x="525" y="890"/>
      <point x="532" y="932" type="curve"/>
      <point x="510" y="950" type="line"/>
      <point x="370" y="851" type="line"/>
      <point x="370" y="1434" type="line"/>
      <point x="358" y="1445"/>
      <point x="345" y="1456"/>
      <point x="334" y="1468" type="curve"/>
      <point x="250" y="1427"/>
      <point x="175" y="1410"/>
      <point x="76" y="1392" type="curve"/>
      <point x="76" y="1347" type="line"/>
      <point x="182" y="1335"/>
      <point x="206" y="1335"/>
      <point x="206" y="1220" type="curve" smooth="yes"/>
      <point x="206" y="738" type="line"/>
      <point x="78" y="649" type="line"/>
      <point x="59" y="600"/>
      <point x="52" y="582"/>
      <point x="46" y="547" type="curve"/>
      <point x="54" y="542"/>
      <point x="62" y="536"/>
      <point x="70" y="530" type="curve"/>
      <point x="206" y="626" type="line"/>
      <point x="206" y="105" type="line" smooth="yes"/>
      <point x="206" y="84"/>
      <point x="175" y="66"/>
      <point x="66" y="47" type="curve"/>
      <point x="66" y="0" type="line"/>
    </contour>
  </outline>
</glyph>
<glyph name="Nacute" format="2">
  <advance width="1264"/>
  <unicode hex="0143"/>
  <outline>
    <contour>
      <point x="437" y="0" type="line"/>
      <point x="437" y="47" type="line"/>
      <point x="340" y="60"/>
      <point x="301" y="90"/>
      <point x="301" y="105" type="curve" smooth="yes"/>
      <point x="301" y="922" type="line"/>
      <point x="943" y="32" type="line" smooth="yes"/>
      <point x="963" y="5"/>
      <point x="1008" y="-20"/>
      <point x="1084" y="-28" type="curve"/>
      <point x="1084" y="1085" type="line" smooth="yes"/>
      <point x="1084" y="1103"/>
      <point x="1129" y="1132"/>
      <point x="1220" y="1144" type="curve"/>
      <point x="1220" y="1192" type="line"/>
      <point x="829" y="1192" type="line"/>
      <point x="829" y="1144" type="line"/>
      <point x="930" y="1130"/>
      <point x="963" y="1100"/>
      <point x="963" y="1085" type="curve" smooth="yes"/>
      <point x="963" y="274" type="line"/>
      <point x="760" y="556"/>
      <point x="557" y="836"/>
      <point x="353" y="1118" type="curve" smooth="yes"/>
      <point x="306" y="1183"/>
      <point x="298" y="1192"/>
      <point x="262" y="1192" type="curve" smooth="yes"/>
      <point x="45" y="1192" type="line"/>
      <point x="45" y="1144" type="line"/>
      <point x="93" y="1136"/>
      <point x="139" y="1117"/>
      <point x="181" y="1079" type="curve"/>
      <point x="181" y="105" type="line" smooth="yes"/>
      <point x="181" y="88"/>
      <point x="138" y="58"/>
      <point x="45" y="47" type="curve"/>
      <point x="45" y="0" type="line"/>
    </contour>
    <contour>
      <point x="955" y="1521" type="curve"/>
      <point x="946" y="1566" type="line"/>
      <point x="927" y="1586"/>
      <point x="855" y="1625"/>
      <point x="821" y="1645" type="curve"/>
      <point x="459" y="1339" type="line"/>
      <point x="476" y="1315"/>
      <point x="486" y="1301"/>
      <point x="507" y="1292" type="curve"/>
      <point x="657" y="1368"/>
      <point x="806" y="1445"/>
    </contour>
  </outline>
</glyph>
<glyph name="nacute" format="2">
  <advance width="1083"/>
  <unicode hex="0144"/>
  <outline>
    <contour>
      <point x="1056" y="0" type="line"/>
      <point x="1056" y="47" type="line"/>
      <point x="957" y="73"/>
      <point x="926" y="88"/>
      <point x="926" y="105" type="curve" smooth="yes"/>
      <point x="926" y="692" type="line" smooth="yes"/>
      <point x="926" y="843"/>
      <point x="826" y="908"/>
      <point x="717" y="908" type="curve" smooth="yes"/>
      <point x="618" y="908"/>
      <point x="460" y="820"/>
      <point x="340" y="663" type="curve"/>
      <point x="330" y="873" type="line"/>
      <point x="295" y="908" type="line"/>
      <point x="219" y="873"/>
      <point x="144" y="848"/>
      <point x="50" y="834" type="curve"/>
      <point x="50" y="789" type="line"/>
      <point x="178" y="775"/>
      <point x="181" y="765"/>
      <point x="181" y="667" type="curve" smooth="yes"/>
      <point x="181" y="105" type="line" smooth="yes"/>
      <point x="181" y="84"/>
      <point x="133" y="69"/>
      <point x="50" y="47" type="curve"/>
      <point x="50" y="0" type="line"/>
      <point x="475" y="0" type="line"/>
      <point x="475" y="47" type="line"/>
      <point x="393" y="64"/>
      <point x="344" y="86"/>
      <point x="344" y="105" type="curve" smooth="yes"/>
      <point x="344" y="540" type="line"/>
      <point x="466" y="713"/>
      <point x="574" y="773"/>
      <point x="647" y="773" type="curve" smooth="yes"/>
      <point x="732" y="773"/>
      <point x="763" y="737"/>
      <point x="763" y="588" type="curve" smooth="yes"/>
      <point x="763" y="105" type="line" smooth="yes"/>
      <point x="763" y="88"/>
      <point x="723" y="71"/>
      <point x="632" y="47" type="curve"/>
      <point x="632" y="0" type="line"/>
    </contour>
    <contour>
      <point x="844" y="1348" type="line"/>
      <point x="820" y="1389" type="line"/>
      <point x="792" y="1397"/>
      <point x="693" y="1412"/>
      <point x="663" y="1414" type="curve"/>
      <point x="448" y="1019" type="line"/>
      <point x="462" y="1007"/>
      <point x="486" y="992"/>
      <point x="509" y="989" type="curve"/>
    </contour>
  </outline>
</glyph>
<glyph name="Ncaron" format="2">
  <advance width="1264"/>
  <unicode hex="0147"/>
  <outline>
    <contour>
      <point x="437" y="0" type="line"/>
      <point x="437" y="47" type="line"/>
      <point x="340" y="60"/>
      <point x="301" y="90"/>
      <point x="301" y="105" type="curve" smooth="yes"/>
      <point x="301" y="922" type="line"/>
      <point x="943" y="32" type="line" smooth="yes"/>
      <point x="963" y="5"/>
      <point x="1008" y="-20"/>
      <point x="1084" y="-28" type="curve"/>
      <point x="1084" y="1085" type="line" smooth="yes"/>
      <point x="1084" y="1103"/>
      <point x="1129" y="1132"/>
      <point x="1220" y="1144" type="curve"/>
      <point x="1220" y="1192" type="line"/>
      <point x="829" y="1192" type="line"/>
      <point x="829" y="1144" type="line"/>
      <point x="930" y="1130"/>
      <point x="963" y="1100"/>
      <point x="963" y="1085" type="curve" smooth="yes"/>
      <point x="963" y="274" type="line"/>
      <point x="760" y="556"/>
      <point x="557" y="836"/>
      <point x="353" y="1118" type="curve" smooth="yes"/>
      <point x="306" y="1183"/>
      <point x="298" y="1192"/>
      <point x="262" y="1192" type="curve" smooth="yes"/>
      <point x="45" y="1192" type="line"/>
      <point x="45" y="1144" type="line"/>
      <point x="93" y="1136"/>
      <point x="139" y="1117"/>
      <point x="181" y="1079" type="curve"/>
      <point x="181" y="105" type="line" smooth="yes"/>
      <point x="181" y="88"/>
      <point x="138" y="58"/>
      <point x="45" y="47" type="curve"/>
      <point x="45" y="0" type="line"/>
    </contour>
    <contour>
      <point x="936" y="1610" type="line"/>
      <point x="921" y="1635"/>
      <point x="914" y="1646"/>
      <point x="892" y="1658" type="curve"/>
      <point x="635" y="1463" type="line"/>
      <point x="373" y="1658" type="line"/>
      <point x="352" y="1646"/>
      <point x="344" y="1635"/>
      <point x="326" y="1610" type="curve"/>
      <point x="579" y="1314" type="line"/>
      <point x="687" y="1314" type="line"/>
    </contour>
  </outline>
</glyph>
<glyph name="ncaron" format="2">
  <advance width="1083"/>
  <unicode hex="0148"/>
  <outline>
    <contour>
      <point x="1056" y="0" type="line"/>
      <point x="1056" y="47" type="line"/>
      <point x="957" y="73"/>
      <point x="926" y="88"/>
      <point x="926" y="105" type="curve" smooth="yes"/>
      <point x="926" y="692" type="line" smooth="yes"/>
      <point x="926" y="843"/>
      <point x="826" y="908"/>
      <point x="717" y="908" type="curve" smooth="yes"/>
      <point x="618" y="908"/>
      <point x="460" y="820"/>
      <point x="340" y="663" type="curve"/>
      <point x="330" y="873" type="line"/>
      <point x="295" y="908" type="line"/>
      <point x="219" y="873"/>
      <point x="144" y="848"/>
      <point x="50" y="834" type="curve"/>
      <point x="50" y="789" type="line"/>
      <point x="178" y="775"/>
      <point x="181" y="765"/>
      <point x="181" y="667" type="curve" smooth="yes"/>
      <point x="181" y="105" type="line" smooth="yes"/>
      <point x="181" y="84"/>
      <point x="133" y="69"/>
      <point x="50" y="47" type="curve"/>
      <point x="50" y="0" type="line"/>
      <point x="475" y="0" type="line"/>
      <point x="475" y="47" type="line"/>
      <point x="393" y="64"/>
      <point x="344" y="86"/>
      <point x="344" y="105" type="curve" smooth="yes"/>
      <point x="344" y="540" type="line"/>
      <point x="466" y="713"/>
      <point x="574" y="773"/>
      <point x="647" y="773" type="curve" smooth="yes"/>
      <point x="732" y="773"/>
      <point x="763" y="737"/>
      <point x="763" y="588" type="curve" smooth="yes"/>
      <point x="763" y="105" type="line" smooth="yes"/>
      <point x="763" y="88"/>
      <point x="723" y="71"/>
      <point x="632" y="47" type="curve"/>
      <point x="632" y="0" type="line"/>
    </contour>
    <contour>
      <point x="859" y="1355" type="line"/>
      <point x="843" y="1379"/>
      <point x="834" y="1393"/>
      <point x="813" y="1404" type="curve"/>
      <point x="555" y="1175" type="line"/>
      <point x="468" y="1252"/>
      <point x="381" y="1328"/>
      <point x="294" y="1404" type="curve"/>
      <point x="272" y="1393"/>
      <point x="264" y="1379"/>
      <point x="247" y="1355" type="curve"/>
      <point x="499" y="1011" type="line"/>
      <point x="607" y="1011" type="line"/>
    </contour>
  </outline>
</glyph>
